<svg width="23" height="23" viewBox="0 0 23 23" fill="none" xmlns="http://www.w3.org/2000/svg">
<path fill-rule="evenodd" clip-rule="evenodd" d="M11.4346 4.63017C11.8463 4.21849 12.5138 4.21849 12.9254 4.63017L19.2505 10.9552C19.6622 11.3669 19.6622 12.0344 19.2505 12.446L12.9254 18.7711C12.5138 19.1827 11.8463 19.1827 11.4346 18.7711C11.0229 18.3594 11.0229 17.6919 11.4346 17.2802L17.0142 11.7006L11.4346 6.121C11.0229 5.70932 11.0229 5.04185 11.4346 4.63017Z" fill="#3652AD"/>
<path fill-rule="evenodd" clip-rule="evenodd" d="M3.74664 11.7005C3.74664 11.1183 4.21861 10.6464 4.80082 10.6464H17.6266C18.2088 10.6464 18.6808 11.1183 18.6808 11.7005C18.6808 12.2827 18.2088 12.7547 17.6266 12.7547H4.80082C4.21861 12.7547 3.74664 12.2827 3.74664 11.7005Z" fill="#3652AD"/>
</svg>
