<svg width="14" height="14" viewBox="0 0 14 14" fill="none" xmlns="http://www.w3.org/2000/svg">
<path fill-rule="evenodd" clip-rule="evenodd" d="M6.50758 2.85646C6.74556 2.61848 7.13139 2.61848 7.36937 2.85646L11.0256 6.51271C11.2636 6.75069 11.2636 7.13652 11.0256 7.3745L7.36937 11.0307C7.13139 11.2687 6.74556 11.2687 6.50758 11.0307C6.26961 10.7928 6.26961 10.4069 6.50758 10.169L9.73294 6.9436L6.50758 3.71825C6.26961 3.48027 6.26961 3.09444 6.50758 2.85646Z" fill="#FAFAFA"/>
<path fill-rule="evenodd" clip-rule="evenodd" d="M2.06348 6.9436C2.06348 6.60706 2.3363 6.33423 2.67285 6.33423H10.0869C10.4235 6.33423 10.6963 6.60706 10.6963 6.9436C10.6963 7.28015 10.4235 7.55298 10.0869 7.55298H2.67285C2.3363 7.55298 2.06348 7.28015 2.06348 6.9436Z" fill="#FAFAFA"/>
</svg>
