<svg width="14" height="14" viewBox="0 0 14 14" fill="none" xmlns="http://www.w3.org/2000/svg">
<path d="M6.35951 2.55113V3.73946H8.73617V2.55113H6.35951ZM9.92451 2.55113H10.5187C10.8338 2.55113 11.1361 2.67633 11.359 2.89918C11.5818 3.12204 11.707 3.42429 11.707 3.73946V12.0578C11.707 12.373 11.5818 12.6752 11.359 12.8981C11.1361 13.1209 10.8338 13.2461 10.5187 13.2461H4.57701C4.26184 13.2461 3.95958 13.1209 3.73673 12.8981C3.51387 12.6752 3.38867 12.373 3.38867 12.0578V3.73946C3.38867 3.42429 3.51387 3.12204 3.73673 2.89918C3.95958 2.67633 4.26184 2.55113 4.57701 2.55113H5.17117C5.17117 2.23596 5.29637 1.9337 5.51923 1.71085C5.74208 1.48799 6.04434 1.36279 6.35951 1.36279H8.73617C9.05134 1.36279 9.35359 1.48799 9.57645 1.71085C9.79931 1.9337 9.92451 2.23596 9.92451 2.55113ZM9.92451 3.73946C9.92451 4.05463 9.79931 4.35688 9.57645 4.57974C9.35359 4.80259 9.05134 4.92779 8.73617 4.92779H6.35951C6.04434 4.92779 5.74208 4.80259 5.51923 4.57974C5.29637 4.35688 5.17117 4.05463 5.17117 3.73946H4.57701V12.0578H10.5187V3.73946H9.92451ZM5.76534 6.11613H9.33034C9.48792 6.11613 9.63905 6.17873 9.75048 6.29015C9.86191 6.40158 9.92451 6.55271 9.92451 6.71029C9.92451 6.86788 9.86191 7.019 9.75048 7.13043C9.63905 7.24186 9.48792 7.30446 9.33034 7.30446H5.76534C5.60776 7.30446 5.45663 7.24186 5.3452 7.13043C5.23377 7.019 5.17117 6.86788 5.17117 6.71029C5.17117 6.55271 5.23377 6.40158 5.3452 6.29015C5.45663 6.17873 5.60776 6.11613 5.76534 6.11613ZM5.76534 9.08696H9.33034C9.48792 9.08696 9.63905 9.14956 9.75048 9.26099C9.86191 9.37241 9.92451 9.52354 9.92451 9.68113C9.92451 9.83871 9.86191 9.98984 9.75048 10.1013C9.63905 10.2127 9.48792 10.2753 9.33034 10.2753H5.76534C5.60776 10.2753 5.45663 10.2127 5.3452 10.1013C5.23377 9.98984 5.17117 9.83871 5.17117 9.68113C5.17117 9.52354 5.23377 9.37241 5.3452 9.26099C5.45663 9.14956 5.60776 9.08696 5.76534 9.08696Z" fill="#21272A"/>
</svg>
