<svg width="23" height="21" viewBox="0 0 23 21" fill="none" xmlns="http://www.w3.org/2000/svg">
<path d="M5.08301 4.8186V6.65194C5.08301 7.13817 5.27616 7.60448 5.61998 7.9483C5.9638 8.29212 6.43011 8.48527 6.91634 8.48527C7.40257 8.48527 7.86889 8.29212 8.2127 7.9483C8.55652 7.60448 8.74967 7.13817 8.74967 6.65194V4.8186H14.2497V6.65194C14.2497 7.13817 14.4428 7.60448 14.7866 7.9483C15.1305 8.29212 15.5968 8.48527 16.083 8.48527C16.5692 8.48527 17.0356 8.29212 17.3794 7.9483C17.7232 7.60448 17.9163 7.13817 17.9163 6.65194V4.8186C18.6457 4.8186 19.3452 5.10833 19.8609 5.62406C20.3766 6.13978 20.6663 6.83926 20.6663 7.5686V9.40194H2.33301V7.5686C2.33301 6.83926 2.62274 6.13978 3.13846 5.62406C3.65419 5.10833 4.35366 4.8186 5.08301 4.8186V4.8186ZM20.6663 11.2353V16.7353C20.6663 17.4646 20.3766 18.1641 19.8609 18.6798C19.3452 19.1955 18.6457 19.4853 17.9163 19.4853H5.08301C4.35366 19.4853 3.65419 19.1955 3.13846 18.6798C2.62274 18.1641 2.33301 17.4646 2.33301 16.7353V11.2353H20.6663ZM16.083 2.0686C16.3261 2.0686 16.5593 2.16518 16.7312 2.33709C16.9031 2.509 16.9997 2.74216 16.9997 2.98527V6.65194C16.9997 6.89505 16.9031 7.12821 16.7312 7.30012C16.5593 7.47203 16.3261 7.5686 16.083 7.5686C15.8399 7.5686 15.6067 7.47203 15.4348 7.30012C15.2629 7.12821 15.1663 6.89505 15.1663 6.65194V2.98527C15.1663 2.74216 15.2629 2.509 15.4348 2.33709C15.6067 2.16518 15.8399 2.0686 16.083 2.0686V2.0686ZM6.91634 2.0686C7.15946 2.0686 7.39261 2.16518 7.56452 2.33709C7.73643 2.509 7.83301 2.74216 7.83301 2.98527V6.65194C7.83301 6.89505 7.73643 7.12821 7.56452 7.30012C7.39261 7.47203 7.15946 7.5686 6.91634 7.5686C6.67323 7.5686 6.44007 7.47203 6.26816 7.30012C6.09625 7.12821 5.99967 6.89505 5.99967 6.65194V2.98527C5.99967 2.74216 6.09625 2.509 6.26816 2.33709C6.44007 2.16518 6.67323 2.0686 6.91634 2.0686V2.0686Z" fill="#3652AD"/>
</svg>
