<svg width="350" height="351" viewBox="0 0 350 351" fill="none" xmlns="http://www.w3.org/2000/svg">
<path opacity="0.7" d="M47.5503 117.463C47.5503 117.463 28.0343 167.863 55.4603 218.613C82.8863 269.363 139.376 296.173 184.589 319.098C229.802 342.023 276.751 330.858 299.06 293.31C321.369 255.762 290.772 228.959 290.73 175.416C290.688 121.873 298.745 107.698 269.73 62.4639C240.715 17.2299 169.588 7.2129 115.8 40.7639C62.0123 74.3149 47.5503 117.463 47.5503 117.463Z" fill="white"/>
<path d="M282.912 324.81C282.912 324.81 345.492 239.137 306.712 173.288C267.932 107.439 190.925 152.631 176.26 91.1778C161.595 29.7248 108.066 19.6449 57.3016 96.4979C6.53763 173.351 18.6826 280.213 45.5626 324.81H282.912Z" fill="#3652AD"/>
<path opacity="0.7" d="M282.912 324.81C282.912 324.81 345.492 239.137 306.712 173.288C267.932 107.439 190.925 152.631 176.26 91.1778C161.595 29.7248 108.066 19.6449 57.3016 96.4979C6.53763 173.351 18.6826 280.213 45.5626 324.81H282.912Z" fill="white"/>
<path d="M36.1621 324.81H315.154" stroke="#263238" stroke-linecap="round" stroke-linejoin="round"/>
<path d="M63.8612 100.894H81.3262V93.88H63.8612V100.894Z" stroke="#263238" stroke-linecap="round" stroke-linejoin="round"/>
<path d="M77.8475 108.916H95.3125V101.902H77.8475V108.916Z" stroke="#263238" stroke-linecap="round" stroke-linejoin="round"/>
<path d="M117.936 154.402H135.401V147.388H117.936V154.402Z" stroke="#263238" stroke-linecap="round" stroke-linejoin="round"/>
<path d="M109.207 163.663H126.672V156.649H109.207V163.663Z" stroke="#263238" stroke-linecap="round" stroke-linejoin="round"/>
<path d="M55.1248 220.286H72.5898V213.272H55.1248V220.286Z" stroke="#263238" stroke-linecap="round" stroke-linejoin="round"/>
<path d="M64.6942 229.015H82.1592V222.001H64.6942V229.015Z" stroke="#263238" stroke-linecap="round" stroke-linejoin="round"/>
<path d="M166.425 237.352H183.89V230.338H166.425V237.352Z" stroke="#263238" stroke-linecap="round" stroke-linejoin="round"/>
<path d="M157.192 246.69H174.657V239.676H157.192V246.69Z" stroke="#263238" stroke-linecap="round" stroke-linejoin="round"/>
<path d="M60.6483 283.349H78.1133V276.335H60.6483V283.349Z" stroke="#263238" stroke-linecap="round" stroke-linejoin="round"/>
<path d="M74.6971 220.286H92.1621V213.272H74.6971V220.286Z" stroke="#263238" stroke-linecap="round" stroke-linejoin="round"/>
<path d="M157.717 192.888C140.735 193.078 123.235 193.078 106.785 192.888" stroke="#263238" stroke-linecap="round" stroke-linejoin="round"/>
<path d="M164.71 192.888H160.44" stroke="#263238" stroke-linecap="round" stroke-linejoin="round"/>
<path d="M303.38 292.057C286.398 292.247 268.898 292.247 252.448 292.057" stroke="#263238" stroke-linecap="round" stroke-linejoin="round"/>
<path d="M310.374 292.057H306.104" stroke="#263238" stroke-linecap="round" stroke-linejoin="round"/>
<path d="M230.818 78.4102C213.836 78.6002 196.336 78.6002 179.886 78.4102" stroke="#263238" stroke-linecap="round" stroke-linejoin="round"/>
<path d="M237.811 78.4102H233.541" stroke="#263238" stroke-linecap="round" stroke-linejoin="round"/>
<path d="M79.9819 129.916C72.5152 130.043 65.0649 130.068 57.6309 129.993" stroke="#263238" stroke-linecap="round" stroke-linejoin="round"/>
<path d="M223.839 277.987C216.372 278.114 208.924 278.14 201.495 278.064" stroke="#263238" stroke-linecap="round" stroke-linejoin="round"/>
<path d="M77.3291 265.296H79.7371" stroke="#263238" stroke-linecap="round" stroke-linejoin="round"/>
<path d="M51.9541 265.296H74.5921" stroke="#263238" stroke-linecap="round" stroke-linejoin="round"/>
<path d="M137.382 59.6431H139.79" stroke="#263238" stroke-linecap="round" stroke-linejoin="round"/>
<path d="M112 59.6431H134.638" stroke="#263238" stroke-linecap="round" stroke-linejoin="round"/>
<path d="M290.976 257.428H273.511V264.442H290.976V257.428Z" stroke="#263238" stroke-linecap="round" stroke-linejoin="round"/>
<path d="M276.99 249.406H259.525V256.42H276.99V249.406Z" stroke="#263238" stroke-linecap="round" stroke-linejoin="round"/>
<path d="M236.902 203.92H219.437V210.934H236.902V203.92Z" stroke="#263238" stroke-linecap="round" stroke-linejoin="round"/>
<path d="M245.63 194.659H228.165V201.673H245.63V194.659Z" stroke="#263238" stroke-linecap="round" stroke-linejoin="round"/>
<path d="M299.712 138.036H282.247V145.05H299.712V138.036Z" stroke="#263238" stroke-linecap="round" stroke-linejoin="round"/>
<path d="M290.143 129.307H272.678V136.321H290.143V129.307Z" stroke="#263238" stroke-linecap="round" stroke-linejoin="round"/>
<path d="M188.419 120.97H170.954V127.984H188.419V120.97Z" stroke="#263238" stroke-linecap="round" stroke-linejoin="round"/>
<path d="M197.645 111.632H180.18V118.646H197.645V111.632Z" stroke="#263238" stroke-linecap="round" stroke-linejoin="round"/>
<path d="M253.435 59.9231H235.97V66.9371H253.435V59.9231Z" stroke="#263238" stroke-linecap="round" stroke-linejoin="round"/>
<path d="M280.14 138.036H262.675V145.05H280.14V138.036Z" stroke="#263238" stroke-linecap="round" stroke-linejoin="round"/>
<path d="M197.127 165.435C214.102 165.245 231.602 165.245 248.059 165.435" stroke="#263238" stroke-linecap="round" stroke-linejoin="round"/>
<path d="M190.134 165.434H194.397" stroke="#263238" stroke-linecap="round" stroke-linejoin="round"/>
<path d="M274.855 228.407C282.322 228.28 289.772 228.252 297.206 228.322" stroke="#263238" stroke-linecap="round" stroke-linejoin="round"/>
<path d="M277.509 93.0261H275.101" stroke="#263238" stroke-linecap="round" stroke-linejoin="round"/>
<path d="M302.89 93.0261H280.245" stroke="#263238" stroke-linecap="round" stroke-linejoin="round"/>
<path d="M247.604 144.7L235.9 135.81C235.9 135.81 221.732 109 220.927 108.02L216.685 113.501C216.685 113.501 224.679 136.846 225.862 140.101C227.045 143.356 231.91 147.031 234.262 149.53C236.614 152.029 245.945 158.595 245.945 158.595L247.604 144.7Z" fill="white" stroke="#263238" stroke-linecap="round" stroke-linejoin="round"/>
<path d="M189.322 223.303H178.535C175.287 223.303 172.161 222.06 169.8 219.829C167.439 217.598 166.021 214.548 165.837 211.305L165.249 200.945H202.601L202.013 211.305C201.831 214.548 200.414 217.597 198.054 219.828C195.694 222.06 192.57 223.303 189.322 223.303Z" fill="#263238"/>
<path d="M240.135 125.926C240.136 118.43 238.638 111.01 235.729 104.102C232.819 97.1938 228.557 90.9375 223.194 85.7011C217.83 80.4648 211.474 76.3543 204.498 73.6114C197.522 70.8686 190.068 69.5489 182.574 69.73C152.18 70.43 127.645 95.63 127.715 126.059C127.732 140.43 133.273 154.244 143.192 164.643C148.962 170.614 153.036 178.015 154.994 186.084L155.365 187.666H212.492L212.709 186.735C214.746 178.326 218.958 170.601 224.924 164.335C234.71 153.942 240.151 140.201 240.135 125.926Z" fill="white"/>
<mask id="mask0_668_4799" style="mask-type:luminance" maskUnits="userSpaceOnUse" x="127" y="69" width="114" height="119">
<path d="M240.135 125.926C240.136 118.43 238.638 111.01 235.729 104.102C232.819 97.1938 228.557 90.9375 223.194 85.7011C217.83 80.4648 211.474 76.3543 204.498 73.6114C197.522 70.8686 190.068 69.5489 182.574 69.73C152.18 70.43 127.645 95.63 127.715 126.059C127.732 140.43 133.273 154.244 143.192 164.643C148.962 170.614 153.036 178.015 154.994 186.084L155.365 187.666H212.492L212.709 186.735C214.746 178.326 218.958 170.601 224.924 164.335C234.71 153.942 240.151 140.201 240.135 125.926Z" fill="white"/>
</mask>
<g mask="url(#mask0_668_4799)">
<path opacity="0.4" d="M182.574 69.73C152.18 70.43 127.645 95.63 127.715 126.059C127.732 140.43 133.273 154.244 143.192 164.643C148.962 170.614 153.036 178.015 154.994 186.084L155.365 187.666H212.492L212.709 186.735C214.745 178.325 218.961 170.599 224.931 164.335C232.5 156.253 237.513 146.115 239.34 135.195C241.168 124.274 239.73 113.056 235.205 102.95C230.68 92.8445 223.271 84.3002 213.908 78.39C204.544 72.4798 193.644 69.4671 182.574 69.73ZM183.743 171.3C173.818 171.299 164.116 168.354 155.865 162.839C147.613 157.324 141.182 149.486 137.385 140.316C133.588 131.146 132.595 121.057 134.532 111.322C136.469 101.588 141.249 92.6473 148.268 85.6297C155.286 78.6122 164.228 73.8335 173.962 71.8977C183.697 69.9619 193.786 70.9561 202.956 74.7546C212.125 78.553 219.962 84.9851 225.476 93.2375C230.99 101.49 233.933 111.192 233.933 121.117C233.933 127.708 232.635 134.234 230.112 140.323C227.59 146.412 223.893 151.944 219.232 156.604C214.572 161.264 209.039 164.96 202.949 167.482C196.86 170.004 190.334 171.301 183.743 171.3Z" fill="#3652AD"/>
</g>
<path d="M240.135 125.926C240.136 118.43 238.638 111.01 235.729 104.102C232.819 97.1938 228.557 90.9375 223.194 85.7011C217.83 80.4648 211.474 76.3543 204.498 73.6114C197.522 70.8686 190.068 69.5489 182.574 69.73C152.18 70.43 127.645 95.63 127.715 126.059C127.732 140.43 133.273 154.244 143.192 164.643C148.962 170.614 153.036 178.015 154.994 186.084L155.365 187.666H212.492L212.709 186.735C214.746 178.326 218.958 170.601 224.924 164.335C234.71 153.942 240.151 140.201 240.135 125.926Z" stroke="#263238" stroke-miterlimit="10"/>
<path d="M164.745 216.044H203.112C206.236 214.316 208.87 211.825 210.769 208.802C212.667 205.78 213.769 202.325 213.969 198.761L214.942 181.562H152.915L153.881 198.761C154.084 202.325 155.187 205.779 157.087 208.802C158.987 211.824 161.621 214.316 164.745 216.044Z" fill="#3652AD" stroke="#263238" stroke-linecap="round" stroke-linejoin="round"/>
<path d="M214.655 187.806L154.35 192.671C153.742 192.721 153.139 192.529 152.673 192.135C152.207 191.741 151.916 191.179 151.865 190.571C151.816 189.964 152.01 189.362 152.403 188.896C152.796 188.431 153.358 188.139 153.965 188.086L214.284 183.2C214.892 183.15 215.495 183.342 215.961 183.736C216.426 184.13 216.717 184.692 216.769 185.3C216.796 185.604 216.762 185.909 216.67 186.2C216.578 186.491 216.43 186.76 216.233 186.993C216.037 187.226 215.796 187.418 215.525 187.557C215.254 187.697 214.959 187.781 214.655 187.806Z" fill="#3652AD" stroke="#263238" stroke-linecap="round" stroke-linejoin="round"/>
<path d="M214.641 196.934L154.98 201.75C154.373 201.797 153.772 201.603 153.307 201.21C152.842 200.817 152.55 200.256 152.495 199.65C152.446 199.043 152.64 198.441 153.033 197.975C153.426 197.51 153.988 197.219 154.595 197.165L214.27 192.3C214.877 192.252 215.479 192.445 215.945 192.838C216.41 193.232 216.701 193.793 216.755 194.4C216.786 194.706 216.757 195.015 216.667 195.309C216.577 195.604 216.429 195.877 216.232 196.113C216.035 196.349 215.793 196.544 215.52 196.685C215.246 196.826 214.947 196.91 214.641 196.934Z" fill="#3652AD" stroke="#263238" stroke-linecap="round" stroke-linejoin="round"/>
<path d="M212.8 206.258L157.822 210.696C157.215 210.743 156.614 210.549 156.149 210.156C155.684 209.763 155.392 209.202 155.337 208.596C155.287 207.987 155.479 207.384 155.873 206.917C156.266 206.45 156.829 206.157 157.437 206.104L212.415 201.666C213.022 201.619 213.623 201.813 214.088 202.206C214.553 202.599 214.845 203.16 214.9 203.766C214.949 204.374 214.755 204.977 214.362 205.444C213.969 205.91 213.408 206.203 212.8 206.258Z" fill="#3652AD" stroke="#263238" stroke-linecap="round" stroke-linejoin="round"/>
<path d="M227.633 313.4C227.633 313.4 228.907 321.184 227.633 324.817H201.887C201.887 324.817 200.802 322.094 201.887 320.372C202.972 318.65 211.134 317.677 213.675 315.353C215.619 313.421 217.379 311.312 218.932 309.053L227.633 313.4Z" fill="#263238" stroke="#263238" stroke-miterlimit="10"/>
<path d="M201.404 323.438H227.976L228.2 324.81H201.404V323.438Z" fill="white" stroke="#263238" stroke-linecap="round" stroke-linejoin="round"/>
<path d="M221.445 312.448C221.445 312.448 219.023 313.029 218.75 313.148C218.477 313.267 216.125 316.865 213.766 317.502C211.407 318.139 209.048 318.013 209.412 319.161" stroke="white" stroke-linecap="round" stroke-linejoin="round"/>
<path d="M216.083 312.448L218.841 314.478" stroke="white" stroke-linecap="round" stroke-linejoin="round"/>
<path d="M214.802 314.226L217.462 316.179" stroke="white" stroke-linecap="round" stroke-linejoin="round"/>
<path d="M213.101 315.787L215.411 318.02" stroke="white" stroke-linecap="round" stroke-linejoin="round"/>
<path d="M210.77 316.928L211.771 319.133" stroke="white" stroke-linecap="round" stroke-linejoin="round"/>
<path d="M228.053 316.9C225.059 316.65 222.046 317.024 219.205 317.999C214.578 319.623 212.982 321.037 213.101 321.464C213.22 321.891 213.766 323.151 213.766 323.151H216.083C216.083 323.151 215.243 321.674 215.383 321.464C215.523 321.254 223.454 318.167 228.025 318.713L228.053 316.9Z" fill="white"/>
<path d="M265.244 324.81C265.244 324.81 266.238 321.023 265.076 319.616C262.976 317.096 265.328 314.982 263.235 314.107L262.36 315.122C262.192 314.093 262.682 310.957 258.804 310.544C254.114 310.054 254.023 313.463 253.771 314.59L253.848 313.015C251.846 313.015 252.882 315.01 249.851 318.279C249.057 319.159 248.453 320.193 248.077 321.317C247.701 322.44 247.562 323.63 247.667 324.81H265.244Z" fill="#263238" stroke="#263238" stroke-miterlimit="10"/>
<path d="M247.646 323.438H265.636L265.244 324.81H247.667L247.646 323.438Z" fill="white" stroke="#263238" stroke-linecap="round" stroke-linejoin="round"/>
<path d="M253.4 318.118C253.4 318.118 259.308 316.165 262.157 318.608" stroke="white" stroke-linecap="round" stroke-linejoin="round"/>
<path d="M253.4 316.83C253.4 316.83 258.594 315.185 262.157 317.383" stroke="white" stroke-linecap="round" stroke-linejoin="round"/>
<path d="M253.729 315.556C253.729 315.556 258.629 313.715 262.178 316.256" stroke="white" stroke-linecap="round" stroke-linejoin="round"/>
<path d="M249.851 318.3L250.439 318.874C250.518 318.953 250.567 319.056 250.579 319.167C250.59 319.278 250.563 319.39 250.502 319.483C249.72 320.662 249.301 322.044 249.298 323.459H248.437C248.629 322.078 249.05 320.739 249.683 319.497L249.242 319.049L249.851 318.3Z" fill="white"/>
<path d="M232.267 276.797C232.267 276.797 228.445 283.293 221.984 281.907" stroke="#263238" stroke-linecap="round" stroke-linejoin="round"/>
<path d="M236.306 202.856L233.8 208.155C226.916 222.934 221.332 238.285 217.112 254.033C216.958 254.614 213.682 266.213 216.307 295.102L214.809 300.17L216.447 308.57C216.447 308.57 213.983 312.126 214.074 313.295C214.074 313.295 220.15 314.429 222.18 315.514C223.755 316.361 228.48 321.044 228.48 321.044C229.824 320.764 229.936 315.332 229.936 315.332C229.936 315.332 232.736 267.116 233.555 265.03C234.374 262.944 239.295 253.998 246.988 233.495C246.988 233.495 247.163 262.132 249.221 269.377C251.048 275.824 248.885 293.877 248.885 293.877L250.117 313.953C250.117 313.953 245.791 318.447 249.298 319.658C249.298 319.658 251.643 315.143 258.328 314.121C261.723 313.596 265.958 319.63 265.958 319.63C267.442 319.154 265.328 311.573 265.328 311.573C270.06 275.838 266.567 282.306 267.512 264.834C268.121 253.634 271.299 205.656 267.568 201.764L236.306 202.856Z" fill="#757575"/>
<mask id="mask1_668_4799" style="mask-type:luminance" maskUnits="userSpaceOnUse" x="214" y="201" width="56" height="121">
<path d="M236.306 202.856L233.8 208.155C226.916 222.934 221.332 238.285 217.112 254.033C216.958 254.614 213.682 266.213 216.307 295.102L214.809 300.17L216.447 308.57C216.447 308.57 213.983 312.126 214.074 313.295C214.074 313.295 220.15 314.429 222.18 315.514C223.755 316.361 228.48 321.044 228.48 321.044C229.824 320.764 229.936 315.332 229.936 315.332C229.936 315.332 232.736 267.116 233.555 265.03C234.374 262.944 239.295 253.998 246.988 233.495C246.988 233.495 247.163 262.132 249.221 269.377C251.048 275.824 248.885 293.877 248.885 293.877L250.117 313.953C250.117 313.953 245.791 318.447 249.298 319.658C249.298 319.658 251.643 315.143 258.328 314.121C261.723 313.596 265.958 319.63 265.958 319.63C267.442 319.154 265.328 311.573 265.328 311.573C270.06 275.838 266.567 282.306 267.512 264.834C268.121 253.634 271.299 205.656 267.568 201.764L236.306 202.856Z" fill="white"/>
</mask>
<g mask="url(#mask1_668_4799)">
<path opacity="0.2" d="M269.374 219.369C252.644 220.685 238.154 215.211 231.875 212.369C233.065 209.688 233.8 208.169 233.8 208.169L236.306 202.87L267.582 201.736C268.933 203.129 269.374 210.276 269.374 219.369Z" fill="black"/>
<path opacity="0.2" d="M246.869 233.831C239.253 254.075 234.367 262.937 233.569 265.002C233.107 266.199 231.987 282.572 231.119 296.32C230.111 283.818 229.082 270.623 229.019 268.033C228.83 262.881 232.554 255.811 233.114 253.984C233.674 252.157 232.414 250.183 232.414 250.183L239.113 241.741C238.889 238.871 242.431 226.341 242.431 226.341C244.51 228.364 246.4 232.606 246.869 233.831Z" fill="black"/>
</g>
<path d="M236.306 202.856L233.8 208.155C226.916 222.934 221.332 238.285 217.112 254.033C216.958 254.614 213.682 266.213 216.307 295.102L214.809 300.17L216.447 308.57C216.447 308.57 213.983 312.126 214.074 313.295C214.074 313.295 220.15 314.429 222.18 315.514C223.755 316.361 228.48 321.044 228.48 321.044C229.824 320.764 229.936 315.332 229.936 315.332C229.936 315.332 232.736 267.116 233.555 265.03C234.374 262.944 239.295 253.998 246.988 233.495C246.988 233.495 247.163 262.132 249.221 269.377C251.048 275.824 248.885 293.877 248.885 293.877L250.117 313.953C250.117 313.953 245.791 318.447 249.298 319.658C249.298 319.658 251.643 315.143 258.328 314.121C261.723 313.596 265.958 319.63 265.958 319.63C267.442 319.154 265.328 311.573 265.328 311.573C270.06 275.838 266.567 282.306 267.512 264.834C268.121 253.634 271.299 205.656 267.568 201.764L236.306 202.856Z" stroke="#263238" stroke-linecap="round" stroke-linejoin="round"/>
<path d="M247.002 233.467C247.002 233.467 243.18 226.089 239.918 224.031" stroke="#263238" stroke-linecap="round" stroke-linejoin="round"/>
<path d="M238.49 221.644C238.49 221.644 250.103 225.144 254.128 225.844" stroke="#263238" stroke-linecap="round" stroke-linejoin="round"/>
<path d="M244.433 209.8C243.929 219.474 240.52 221.119 243.817 223.226C243.817 223.226 243.726 227.748 245.364 230.618" stroke="#263238" stroke-linecap="round" stroke-linejoin="round"/>
<path d="M264.782 206.097C264.782 206.097 263.382 220.958 267.981 223.751" stroke="#263238" stroke-linecap="round" stroke-linejoin="round"/>
<path d="M267.981 210.885C267.981 210.885 268.324 220.776 267.981 228.749C267.981 228.749 266.84 262.44 265.699 266.675C264.558 270.91 267.456 277.287 267.204 295.585" stroke="#263238" stroke-linecap="round" stroke-linejoin="round"/>
<path d="M257.005 309.9C258.091 309.667 259.224 309.818 260.211 310.327" stroke="#263238" stroke-linecap="round" stroke-linejoin="round"/>
<path d="M250.131 313.911C251.562 312.518 253.219 311.377 255.031 310.537" stroke="#263238" stroke-linecap="round" stroke-linejoin="round"/>
<path d="M252.042 235.805C254.611 238.675 258.671 244.1 262.836 244.562" stroke="#263238" stroke-linecap="round" stroke-linejoin="round"/>
<path d="M248.094 231.115C248.878 232.116 249.697 233.089 250.523 234.055" stroke="#263238" stroke-linecap="round" stroke-linejoin="round"/>
<path d="M251.748 264.792C251.748 264.792 257.579 272.73 260.778 273.192" stroke="#263238" stroke-linecap="round" stroke-linejoin="round"/>
<path d="M244.888 232.032C244.888 232.032 234.507 260.956 230.888 263.812C230.888 263.812 230.475 285.078 230.363 292.512C230.251 299.946 228.536 309.816 228.536 309.816" stroke="#263238" stroke-linecap="round" stroke-linejoin="round"/>
<path d="M217.455 309.599C217.455 309.599 221.452 310.999 223.398 311.86C224.591 312.436 225.529 313.434 226.03 314.66" stroke="#263238" stroke-linecap="round" stroke-linejoin="round"/>
<path d="M227.57 253.382C233.17 249.882 240.499 245.514 243.46 239.347" stroke="#263238" stroke-linecap="round" stroke-linejoin="round"/>
<path d="M222.712 256.266C223.769 255.685 224.812 255.076 225.834 254.453" stroke="#263238" stroke-linecap="round" stroke-linejoin="round"/>
<path d="M240.282 213.699C243.278 213.657 246.582 213.258 249.123 211.599" stroke="#263238" stroke-linecap="round" stroke-linejoin="round"/>
<path d="M235.515 213.419C236.376 213.538 237.237 213.615 238.105 213.657" stroke="#263238" stroke-linecap="round" stroke-linejoin="round"/>
<path d="M251.041 150.713C251.041 150.713 268.667 145.708 278.803 151.133C281.323 152.477 287.084 156.852 286.881 162.095C286.678 167.338 269.997 191.747 270.2 194.995C270.403 198.243 270.2 206.643 268.968 207.217C267.736 207.791 240.968 208.568 234.36 206.867C231.721 206.167 236.908 193.7 236.908 193.7C236.908 193.7 241.962 166.645 251.041 150.713Z" fill="#3652AD" stroke="#263238" stroke-linecap="round" stroke-linejoin="round"/>
<path d="M276.136 149.782C276.136 149.782 264.992 154.241 261.338 149.579C261.958 149.615 262.578 149.493 263.138 149.225C263.699 148.957 264.182 148.551 264.544 148.046C265.12 147.16 265.433 146.128 265.447 145.071C265.503 144.245 263.865 133.647 264.544 132.695C274.813 118.345 277.081 139.415 277.081 139.415C277.081 139.415 273.448 148.459 276.136 149.782Z" fill="white" stroke="#263238" stroke-linecap="round" stroke-linejoin="round"/>
<path d="M268.331 144.035C268.331 144.035 267.631 147.346 264.544 148.046C265.12 147.16 265.433 146.128 265.447 145.071C266.438 144.814 267.403 144.467 268.331 144.035Z" fill="#263238"/>
<path d="M278.131 146.044L266.609 149.103V155.088C266.609 155.088 263.263 163.453 263.368 164.811C263.473 166.169 266.609 220.699 266.609 220.699C266.609 220.699 275.968 219.999 279.349 214.189C279.349 214.189 277.991 193.049 279.349 189.57C280.231 186.969 280.745 184.257 280.875 181.513C280.875 181.513 289.688 165.042 287.728 160.016C285.768 154.99 279.65 150.097 279.65 150.097L278.131 146.044Z" fill="#263238"/>
<path d="M267.939 149.957C267.939 149.957 269.836 156.159 270.074 156.033C270.312 155.907 276.899 153.233 278.677 150.587" stroke="white" stroke-linecap="round" stroke-linejoin="round"/>
<path d="M263.991 148.669C263.823 148.431 256.655 144.035 256.655 144.035L252.966 145.015L247.52 141.613C247.52 141.613 242.004 158.413 242.165 162.298C242.326 166.183 236.446 187.694 235.585 196.185C235.585 196.185 242.585 182.381 243.586 179.973C244.587 177.565 247.835 161.353 250.523 157.573C253.211 153.793 259.497 149.096 259.497 149.096L263.991 148.669Z" fill="#263238"/>
<path d="M277.48 137.987C278.01 136.583 278.22 135.079 278.096 133.584C277.34 122.965 274.834 120.494 270.697 121.187C255.248 123.763 259.826 131.603 259.238 134.207C258.65 136.811 256.438 137.007 256.753 138.19C256.872 138.659 258.692 138.708 258.692 138.708L258.804 141.158L259.504 141.326C259.504 141.326 260.064 146.926 261.485 147.549C263.284 148.368 268.66 145.12 268.646 143.104" fill="white"/>
<path d="M277.48 137.987C278.01 136.583 278.22 135.079 278.096 133.584C277.34 122.965 274.834 120.494 270.697 121.187C255.248 123.763 259.826 131.603 259.238 134.207C258.65 136.811 256.438 137.007 256.753 138.19C256.872 138.659 258.692 138.708 258.692 138.708L258.804 141.158L259.504 141.326C259.504 141.326 260.064 146.926 261.485 147.549C263.284 148.368 268.66 145.12 268.646 143.104" stroke="#263238" stroke-linecap="round" stroke-linejoin="round"/>
<path d="M260.442 130.392C260.442 130.392 262.612 129.951 263.697 131.687" stroke="#263238" stroke-linecap="round" stroke-linejoin="round"/>
<path d="M261.345 133.605C261.422 134.123 261.709 134.501 261.975 134.459C262.241 134.417 262.395 133.969 262.318 133.458C262.241 132.947 261.954 132.562 261.688 132.604C261.422 132.646 261.268 133.094 261.345 133.605Z" fill="#263238"/>
<path d="M259.497 141.326C260.637 141.328 261.772 141.163 262.864 140.836" stroke="#263238" stroke-linecap="round" stroke-linejoin="round"/>
<path d="M262.395 140.99C262.395 140.99 261.499 142.236 260.694 142.236C259.889 142.236 259.84 141.613 259.84 141.613" stroke="#263238" stroke-linecap="round" stroke-linejoin="round"/>
<path d="M278.411 122.86C278.411 122.86 279.181 119.563 271.495 119.122C265.496 118.779 260.015 119.304 257.992 123.189C255.969 127.074 256.179 130.567 259.07 131.015C259.321 129.573 259.86 128.196 260.655 126.967C261.45 125.738 262.485 124.682 263.697 123.861C263.697 123.861 262.017 128.201 264.544 130.343C265.098 130.82 265.73 131.199 266.413 131.463C266.598 131.834 266.834 132.178 267.113 132.485C268.331 133.885 268.38 136.783 268.38 136.783L269.556 136.083C269.556 136.083 267.848 131.561 272.811 132.625C275.359 133.171 274.911 136.251 275.282 138.169C275.653 140.087 276.682 140.612 276.682 140.612C277.835 139.312 278.741 137.813 279.356 136.188C279.356 136.188 281.89 134.382 281.89 131.729C281.89 129.076 281.176 124.764 278.411 122.86Z" fill="#263238"/>
<path d="M270.074 132.702C270.074 132.702 271.684 130.224 273.112 130.168C274.54 130.112 275.499 135.068 274.19 136.993C272.881 138.918 271.593 139.562 270.998 138.988C270.826 138.802 270.699 138.579 270.626 138.336C270.554 138.094 270.537 137.838 270.578 137.588" fill="white"/>
<path d="M270.074 132.702C270.074 132.702 271.684 130.224 273.112 130.168C274.54 130.112 275.499 135.068 274.19 136.993C272.881 138.918 271.593 139.562 270.998 138.988C270.826 138.802 270.699 138.579 270.626 138.336C270.554 138.094 270.537 137.838 270.578 137.588" stroke="#263238" stroke-linecap="round" stroke-linejoin="round"/>
<path d="M251.3 152.246C253.041 150.321 254.608 148.245 255.983 146.044" stroke="white" stroke-linecap="round" stroke-linejoin="round"/>
<path d="M251.3 146.044C252.287 146.421 253.113 147.128 253.638 148.046" stroke="white" stroke-linecap="round" stroke-linejoin="round"/>
<path d="M247.52 141.613L241.752 139.191L239.799 136.216C236.649 141.227 235.178 147.112 235.599 153.016L238.805 155.06L243.18 165L247.52 141.613Z" fill="#263238"/>
<path d="M268.422 165C268.422 165 274.218 173.176 271.369 176.634C270.032 178.265 258.223 182.185 258.223 182.185L222.803 180.085L211.015 182.185L209.699 182.29C209.58 182.142 209.494 181.972 209.446 181.789C209.398 181.606 209.389 181.415 209.419 181.228C209.449 181.041 209.518 180.863 209.622 180.704C209.726 180.546 209.861 180.411 210.021 180.309C210.021 180.309 209.384 178.769 209.65 178.426C210.455 177.397 214.123 175.71 214.123 175.71C214.123 175.71 209.888 176.767 211.631 174.492C212.821 172.945 217.343 172.623 219.429 171.258C221.144 170.131 219.646 163.88 223.37 165C222.735 166.695 222.496 168.512 222.67 170.313C222.726 170.768 222.824 173.008 222.824 173.008C224.714 175.171 244.979 172.371 246.722 172.308C248.465 172.245 256.956 170.964 256.956 170.964L268.422 165Z" fill="white" stroke="#263238" stroke-linecap="round" stroke-linejoin="round"/>
<path d="M217.252 173.197C217.459 173.635 217.569 174.113 217.574 174.597C217.483 175.059 216.237 175.934 216.237 175.934C216.165 176.377 216.165 176.828 216.237 177.271C216.377 177.593 214.9 178.741 214.9 179.154C214.772 179.637 214.554 180.09 214.256 180.491" stroke="#263238" stroke-linecap="round" stroke-linejoin="round"/>
<path d="M210 180.33C210.553 180.75 212.912 178.419 214.235 178.307" stroke="#263238" stroke-linecap="round" stroke-linejoin="round"/>
<path d="M213.108 180.652C212.139 181.26 211.103 181.756 210.021 182.129" stroke="#263238" stroke-linecap="round" stroke-linejoin="round"/>
<path d="M267.4 164.888L268.303 163.348C268.303 163.348 270.683 164.363 271.327 163.348C271.971 162.333 279.174 159.015 280.56 159.106" stroke="white" stroke-linecap="round" stroke-linejoin="round"/>
<path d="M270.34 178.3C270.34 178.3 272.09 180.099 272.552 179.336C273.014 178.573 279.272 178.244 281.883 176.081" stroke="white" stroke-linecap="round" stroke-linejoin="round"/>
<path d="M268.674 185.594C268.674 185.874 273.294 200.364 275.135 202.394" stroke="white" stroke-linecap="round" stroke-linejoin="round"/>
<path d="M259.259 187.071C258.706 187.442 247.968 196.395 243.46 196.486" stroke="#263238" stroke-linecap="round" stroke-linejoin="round"/>
<path d="M251.3 161.997C251.3 162.522 254.478 166.862 255.983 168.059" stroke="#263238" stroke-linecap="round" stroke-linejoin="round"/>
<path d="M209.118 209.485C210.987 209.485 208.124 212.509 208.124 212.509C208.061 214.714 207.63 216.893 206.85 218.956L212.646 227.916L207.662 231.878L202.601 221.602C202.601 221.602 198.184 220.02 199.248 217.402C199.906 215.75 202.048 215.568 202.048 215.568C204.155 213.266 206.528 211.224 209.118 209.485Z" fill="white" stroke="#263238" stroke-linecap="round" stroke-linejoin="round"/>
<path d="M204.197 226.53C204.197 226.53 207.242 221.84 210.497 222.148L211.722 224.948C211.722 224.948 213.731 225.053 214.942 227.909C216.153 230.765 222.866 238.703 222.866 238.703L213.143 248.79C213.143 248.79 205.023 231.724 205.443 228.952L204.197 226.53Z" fill="#BFBFBF"/>
<mask id="mask2_668_4799" style="mask-type:luminance" maskUnits="userSpaceOnUse" x="204" y="222" width="19" height="27">
<path d="M204.197 226.53C204.197 226.53 207.242 221.84 210.497 222.148L211.722 224.948C211.722 224.948 213.731 225.053 214.942 227.909C216.153 230.765 222.866 238.703 222.866 238.703L213.143 248.79C213.143 248.79 205.023 231.724 205.443 228.952L204.197 226.53Z" fill="white"/>
</mask>
<g mask="url(#mask2_668_4799)">
<path opacity="0.2" d="M204.197 226.53C204.197 226.53 207.242 221.84 210.497 222.148L211.722 224.948C211.722 224.948 213.731 225.053 214.942 227.909C216.153 230.765 222.866 238.703 222.866 238.703L213.143 248.79C213.143 248.79 205.023 231.724 205.443 228.952L204.197 226.53Z" fill="black"/>
</g>
<path d="M204.197 226.53C204.197 226.53 207.242 221.84 210.497 222.148L211.722 224.948C211.722 224.948 213.731 225.053 214.942 227.909C216.153 230.765 222.866 238.703 222.866 238.703L213.143 248.79C213.143 248.79 205.023 231.724 205.443 228.952L204.197 226.53Z" stroke="#263238" stroke-linecap="round" stroke-linejoin="round"/>
<path d="M228.053 202.513C228.053 202.513 215.754 204.326 217.945 218.529C220.136 232.732 218.764 234.727 218.89 240.579C219.016 246.431 222.866 248.797 222.866 248.797L225.869 238.654C225.869 238.654 224.371 240.579 224.868 233.103C225.365 225.627 225.491 216.037 225.491 216.037" fill="#3652AD"/>
<mask id="mask3_668_4799" style="mask-type:luminance" maskUnits="userSpaceOnUse" x="217" y="202" width="12" height="47">
<path d="M228.053 202.513C228.053 202.513 215.754 204.326 217.945 218.529C220.136 232.732 218.764 234.727 218.89 240.579C219.016 246.431 222.866 248.797 222.866 248.797L225.869 238.654C225.869 238.654 224.371 240.579 224.868 233.103C225.365 225.627 225.491 216.037 225.491 216.037" fill="white"/>
</mask>
<g mask="url(#mask3_668_4799)">
<path opacity="0.2" d="M228.053 202.513C228.053 202.513 215.754 204.326 217.945 218.529C220.136 232.732 218.764 234.727 218.89 240.579C219.016 246.431 222.866 248.797 222.866 248.797L225.869 238.654C225.869 238.654 224.371 240.579 224.868 233.103C225.365 225.627 225.491 216.037 225.491 216.037" fill="black"/>
</g>
<path d="M228.053 202.513C228.053 202.513 215.754 204.326 217.945 218.529C220.136 232.732 218.764 234.727 218.89 240.579C219.016 246.431 222.866 248.797 222.866 248.797L225.869 238.654C225.869 238.654 224.371 240.579 224.868 233.103C225.365 225.627 225.491 216.037 225.491 216.037" stroke="#263238" stroke-linecap="round" stroke-linejoin="round"/>
<path d="M220.5 224.346C220.5 224.346 221.9 232.046 220.878 237.38" stroke="#263238" stroke-linecap="round" stroke-linejoin="round"/>
<path d="M193.375 234.58C192.329 232.899 191.596 231.042 191.212 229.099C191.989 228.084 191.548 223.366 191.576 222.89C191.604 222.414 189.063 220.034 188.076 216.709C187.431 217.303 187.04 218.123 186.984 218.998C187.047 220.398 187.726 221.455 187.474 221.693C186.137 222.953 182.63 221.469 181.566 221.091C179.214 220.265 178.066 221.49 179.256 222.799C179.676 223.261 180.579 222.925 180.502 224.059C180.425 225.193 180.243 224.213 180.845 226.04C181.447 227.867 181.23 228.448 182.602 229.365L186.151 231.745L189 237.8L193.375 234.58Z" fill="white" stroke="#263238" stroke-linecap="round" stroke-linejoin="round"/>
<path d="M222.299 279.905C222.299 279.905 227.199 272.66 239.4 272.254C251.601 271.848 250.999 279.135 250.999 279.135C250.999 279.135 257.341 288.438 256.599 295.711C255.857 302.984 246.323 309.466 246.323 309.466C246.323 309.466 265.797 314.023 268.023 313.078C270.249 312.133 274.771 321.807 273.028 323.977C271.285 326.147 216.223 322.437 216.223 322.437C216.223 322.437 210.742 315.99 210.497 311.482C210.252 306.974 222.628 289.684 222.292 288.858C221.956 288.032 222.299 279.905 222.299 279.905Z" fill="#263238"/>
<path d="M242.935 288.123C242.935 288.123 244.566 301.619 237.629 303.964L214.774 313.155C214.774 313.155 246.575 315.906 251.419 314.926C256.263 313.946 263.06 323.774 263.06 323.774H205.03C195.139 323.774 189.49 315.941 191.485 309.634C193.48 303.327 220.556 284.749 220.556 284.749C220.556 284.749 219.156 277.938 234.003 272.926C247.401 268.404 242.935 288.123 242.935 288.123Z" fill="#263238"/>
<path d="M247.625 269.517C247.625 269.517 251.125 274.942 249.879 276.174C249.879 276.174 235.809 271.155 221.403 282.691C221.137 282.901 220.878 283.118 220.612 283.342L219.569 279.646L222.11 277.546C222.11 277.546 221.648 275.712 221.284 273.402C220.92 271.092 220.619 268.11 221.039 266.178C221.081 265.975 220.521 265.135 219.863 263.63C219.044 261.741 218.489 259.748 218.211 257.708C217.713 253.797 217.967 249.826 218.96 246.011C219.499 243.788 220.201 241.607 221.06 239.487C223.104 234.363 233.443 231.955 245.476 235.084C246.924 235.453 248.197 236.317 249.074 237.527C255.143 245.689 247.625 269.517 247.625 269.517Z" fill="#BFBFBF"/>
<mask id="mask4_668_4799" style="mask-type:luminance" maskUnits="userSpaceOnUse" x="217" y="233" width="35" height="51">
<path d="M247.625 269.517C247.625 269.517 251.125 274.942 249.879 276.174C249.879 276.174 235.809 271.155 221.403 282.691C221.137 282.901 220.878 283.118 220.612 283.342L219.569 279.646L222.11 277.546C222.11 277.546 221.648 275.712 221.284 273.402C220.92 271.092 220.619 268.11 221.039 266.178C221.081 265.975 220.521 265.135 219.863 263.63C219.044 261.741 218.489 259.748 218.211 257.708C217.713 253.797 217.967 249.826 218.96 246.011C219.499 243.788 220.201 241.607 221.06 239.487C223.104 234.363 233.443 231.955 245.476 235.084C246.924 235.453 248.197 236.317 249.074 237.527C255.143 245.689 247.625 269.517 247.625 269.517Z" fill="white"/>
</mask>
<g mask="url(#mask4_668_4799)">
<path opacity="0.2" d="M218.204 257.722C217.706 253.811 217.96 249.84 218.953 246.025L221.501 245.213C221.501 245.213 223.16 249.973 218.204 257.722Z" fill="black"/>
<path opacity="0.2" d="M221.284 273.416C220.899 271.022 220.619 268.124 221.039 266.192C221.081 265.989 220.521 265.149 219.863 263.644C219.863 263.644 225.736 268.25 228.053 267.844C229.453 267.592 225.022 270.819 221.284 273.416Z" fill="black"/>
<path opacity="0.2" d="M247.625 269.517C247.625 269.517 251.125 274.942 249.879 276.174C249.879 276.174 235.809 271.155 221.403 282.691C224.161 279.191 228.403 275.145 233.611 273.941C243.243 271.722 247.002 272.037 247.002 272.037L243.88 267.991C243.88 267.991 233.38 267.991 228.053 260.018C230.815 260.929 233.694 261.434 236.6 261.516C240.52 261.6 245.147 258.317 246.554 257.239C245.357 258.023 241.654 259.451 235.494 253.305C227.878 245.689 227.5 231.5 243.88 235.469C245.699 235.924 247.444 236.631 249.067 237.569C255.143 245.689 247.625 269.517 247.625 269.517Z" fill="black"/>
</g>
<path d="M247.625 269.517C247.625 269.517 251.125 274.942 249.879 276.174C249.879 276.174 235.809 271.155 221.403 282.691C221.137 282.901 220.878 283.118 220.612 283.342L219.569 279.646L222.11 277.546C222.11 277.546 221.648 275.712 221.284 273.402C220.92 271.092 220.619 268.11 221.039 266.178C221.081 265.975 220.521 265.135 219.863 263.63C219.044 261.741 218.489 259.748 218.211 257.708C217.713 253.797 217.967 249.826 218.96 246.011C219.499 243.788 220.201 241.607 221.06 239.487C223.104 234.363 233.443 231.955 245.476 235.084C246.924 235.453 248.197 236.317 249.074 237.527C255.143 245.689 247.625 269.517 247.625 269.517Z" stroke="#263238" stroke-linecap="round" stroke-linejoin="round"/>
<path d="M248.374 293.646C248.5 298.504 241.451 303.488 237.44 303.11C237.44 303.11 230.741 308.01 222.992 309.851" stroke="white" stroke-linecap="round" stroke-linejoin="round"/>
<path d="M206.438 310.712C206.438 310.712 215.755 309.718 219.192 311.377C222.629 313.036 239.73 315.514 242.558 315.024" stroke="white" stroke-linecap="round" stroke-linejoin="round"/>
<path d="M236.251 283.342C236.251 283.342 240.815 282.383 244.224 283.342C244.224 283.342 244.721 288.452 244.224 291.28L240.346 293.268C238.955 292.843 237.588 292.346 236.251 291.777C235.999 291.525 236.027 286.296 235.684 285.302" stroke="white" stroke-linecap="round" stroke-linejoin="round"/>
<path d="M255.682 292.61L254.695 293.268L252.273 291.112C252.357 288.788 250.362 283.804 250.362 283.804C251.27 283.681 252.194 283.825 253.022 284.217" stroke="white" stroke-linecap="round" stroke-linejoin="round"/>
<path d="M246.639 301.745C247.496 302.277 248.451 302.631 249.448 302.788C250.445 302.944 251.463 302.899 252.442 302.655" stroke="white" stroke-linecap="round" stroke-linejoin="round"/>
<path d="M245.631 309.851C245.631 309.851 241.844 312.455 235.684 311.041" stroke="white" stroke-linecap="round" stroke-linejoin="round"/>
<path d="M235.683 302.571C235.683 302.571 229.936 300.681 228.606 298.014" stroke="white" stroke-linecap="round" stroke-linejoin="round"/>
<path d="M224.868 301.241C225.288 301.577 228.606 302.571 232.141 302.571" stroke="white" stroke-linecap="round" stroke-linejoin="round"/>
<path d="M205.03 307.723C205.03 307.723 207.928 308.423 208.677 309.466" stroke="white" stroke-linecap="round" stroke-linejoin="round"/>
<path d="M240.982 316.438C240.982 316.438 238.182 318.265 238.238 320.673" stroke="white" stroke-linecap="round" stroke-linejoin="round"/>
<path d="M263.249 316.536C263.403 312.525 267.106 314.191 267.106 314.191C267.106 314.191 269.815 310.208 272.44 311.139C275.065 312.07 275.744 313.449 279.916 314.919C284.088 316.389 289.758 315.234 291.298 319.203C292.838 323.172 290.871 325.398 281.456 324.67C272.041 323.942 269.556 323.641 269.556 323.641C269.556 323.641 262.934 324.6 263.249 316.536Z" fill="#3652AD" stroke="#263238" stroke-linecap="round" stroke-linejoin="round"/>
<path d="M266.91 315.689C266.833 316.539 266.965 317.394 267.294 318.181C267.624 318.968 268.141 319.663 268.8 320.204" stroke="#263238" stroke-linecap="round" stroke-linejoin="round"/>
<path d="M270.746 311.139C268.744 311.937 268.492 316.536 273.126 319.469C277.76 322.402 278.684 319.896 281.61 322.353C284.536 324.81 289.128 325.153 291.774 323.249C294.42 321.345 292.257 317.649 287.322 315.689C282.387 313.729 280.805 315.689 278.089 314.191C275.373 312.693 275.009 309.438 270.746 311.139Z" fill="#BFBFBF" stroke="#263238" stroke-linecap="round" stroke-linejoin="round"/>
<path d="M272.349 312C272.195 312.504 272.349 317.138 272.349 317.138" stroke="#263238" stroke-linecap="round" stroke-linejoin="round"/>
<path d="M274.681 312.245V319.203" stroke="#263238" stroke-linecap="round" stroke-linejoin="round"/>
<path d="M277.137 314.191V320.085" stroke="#263238" stroke-linecap="round" stroke-linejoin="round"/>
<path d="M279.84 315.689L279.524 320.204" stroke="#263238" stroke-linecap="round" stroke-linejoin="round"/>
<path d="M282.842 315.724V322.017" stroke="#263238" stroke-linecap="round" stroke-linejoin="round"/>
<path d="M285.782 316.361V323.249" stroke="#263238" stroke-linecap="round" stroke-linejoin="round"/>
<path d="M289.093 317.572L289.401 322.787" stroke="#263238" stroke-linecap="round" stroke-linejoin="round"/>
<path d="M254.184 312.91C251.584 313.418 249.101 314.406 246.862 315.822C246.862 315.822 245.385 313.645 243.999 315.766C242.613 317.887 243.621 325.335 246.862 323.844C246.862 323.844 251.489 325.37 260.827 324.439C270.165 323.508 261.289 318.37 261.289 318.37L254.184 312.91Z" fill="#3652AD" stroke="#263238" stroke-linecap="round" stroke-linejoin="round"/>
<path d="M255.038 312.959C251.405 312.217 249.361 318.412 251.076 321.359C252.791 324.306 254.24 324.327 260.708 324.327C267.176 324.327 273.63 324.558 273.231 318.356C272.832 312.154 263.991 313.729 261.884 314.513C259.777 315.297 256.977 313.358 255.038 312.959Z" fill="#BFBFBF" stroke="#263238" stroke-linecap="round" stroke-linejoin="round"/>
<path d="M253.883 314.331L254.247 322.668" stroke="#263238" stroke-linecap="round" stroke-linejoin="round"/>
<path d="M256.585 315.108L257.047 322.668" stroke="#263238" stroke-linecap="round" stroke-linejoin="round"/>
<path d="M258.902 315.493L259.364 323.053" stroke="#263238" stroke-linecap="round" stroke-linejoin="round"/>
<path d="M261.667 315.955L262.374 323.053" stroke="#263238" stroke-linecap="round" stroke-linejoin="round"/>
<path d="M264.453 315.108L265.104 323.053" stroke="#263238" stroke-linecap="round" stroke-linejoin="round"/>
<path d="M267.31 315.108L268.234 322.668" stroke="#263238" stroke-linecap="round" stroke-linejoin="round"/>
<path d="M270.088 315.493L270.858 321.429" stroke="#263238" stroke-linecap="round" stroke-linejoin="round"/>
<path d="M246.323 317.033C246.323 317.033 245.623 320.33 246.708 322.206" stroke="#263238" stroke-linecap="round" stroke-linejoin="round"/>
<path d="M227.206 233.075C226.506 233.208 221.683 233.369 219.653 234.048C214.494 235.756 201.376 246.83 201.376 246.83L192.36 230.912C192.36 230.912 188.433 230.212 186.494 233.712L187.523 236.673C187.193 237.953 186.945 239.253 186.781 240.565C186.543 243.757 193.438 260.375 196.791 261.355C202.041 262.888 216.482 251.968 216.482 251.968C216.482 251.968 222.537 247.929 223.153 244.163" fill="#BFBFBF"/>
<path d="M227.206 233.075C226.506 233.208 221.683 233.369 219.653 234.048C214.494 235.756 201.376 246.83 201.376 246.83L192.36 230.912C192.36 230.912 188.433 230.212 186.494 233.712L187.523 236.673C187.193 237.953 186.945 239.253 186.781 240.565C186.543 243.757 193.438 260.375 196.791 261.355C202.041 262.888 216.482 251.968 216.482 251.968C216.482 251.968 222.537 247.929 223.153 244.163" stroke="#263238" stroke-linecap="round" stroke-linejoin="round"/>
<path d="M221.354 207.294C224.819 200.567 231.154 202.912 231.154 202.912C243.488 200.567 243.866 214.931 244.986 222.512C246.106 230.093 250.187 231.829 251.342 238.185C251.524 239.714 251.496 241.262 251.258 242.784C251.103 242.109 250.704 241.516 250.138 241.118C250.376 249.336 245.511 253.41 245.203 253.648C248.647 248.916 248.227 245.85 248.227 245.85C246.897 250.666 241.745 255.405 241.745 255.405C241.745 255.405 237.349 254.411 235.284 248.006C233.457 242.308 231.028 240.306 230.881 240.215C232.552 243.485 233.785 246.961 234.549 250.554C232.134 247.004 229.957 243.297 228.032 239.459C219.457 223.1 220.5 216.289 220.5 216.289" fill="#3652AD"/>
<mask id="mask5_668_4799" style="mask-type:luminance" maskUnits="userSpaceOnUse" x="220" y="202" width="32" height="54">
<path d="M221.354 207.294C224.819 200.567 231.154 202.912 231.154 202.912C243.488 200.567 243.866 214.931 244.986 222.512C246.106 230.093 250.187 231.829 251.342 238.185C251.524 239.714 251.496 241.262 251.258 242.784C251.103 242.109 250.704 241.516 250.138 241.118C250.376 249.336 245.511 253.41 245.203 253.648C248.647 248.916 248.227 245.85 248.227 245.85C246.897 250.666 241.745 255.405 241.745 255.405C241.745 255.405 237.349 254.411 235.284 248.006C233.457 242.308 231.028 240.306 230.881 240.215C232.552 243.485 233.785 246.961 234.549 250.554C232.134 247.004 229.957 243.297 228.032 239.459C219.457 223.1 220.5 216.289 220.5 216.289" fill="white"/>
</mask>
<g mask="url(#mask5_668_4799)">
<path opacity="0.2" d="M221.354 207.294C224.819 200.567 231.154 202.912 231.154 202.912C243.488 200.567 243.866 214.931 244.986 222.512C246.106 230.093 250.187 231.829 251.342 238.185C251.524 239.714 251.496 241.262 251.258 242.784C251.103 242.109 250.704 241.516 250.138 241.118C250.376 249.336 245.511 253.41 245.203 253.648C248.647 248.916 248.227 245.85 248.227 245.85C246.897 250.666 241.745 255.405 241.745 255.405C241.745 255.405 237.349 254.411 235.284 248.006C233.457 242.308 231.028 240.306 230.881 240.215C232.552 243.485 233.785 246.961 234.549 250.554C232.134 247.004 229.957 243.297 228.032 239.459C219.457 223.1 220.5 216.289 220.5 216.289" fill="black"/>
</g>
<path d="M221.354 207.294C224.819 200.567 231.154 202.912 231.154 202.912C243.488 200.567 243.866 214.931 244.986 222.512C246.106 230.093 250.187 231.829 251.342 238.185C251.524 239.714 251.496 241.262 251.258 242.784C251.103 242.109 250.704 241.516 250.138 241.118C250.376 249.336 245.511 253.41 245.203 253.648C248.647 248.916 248.227 245.85 248.227 245.85C246.897 250.666 241.745 255.405 241.745 255.405C241.745 255.405 237.349 254.411 235.284 248.006C233.457 242.308 231.028 240.306 230.881 240.215C232.552 243.485 233.785 246.961 234.549 250.554C232.134 247.004 229.957 243.297 228.032 239.459C219.457 223.1 220.5 216.289 220.5 216.289" stroke="#263238" stroke-linecap="round" stroke-linejoin="round"/>
<path d="M232.05 204.249C232.05 204.249 238.35 200.175 240.688 212.341C243.026 224.507 244.923 225.753 246.085 231.731C247.247 237.709 246.008 242.532 244.258 244.331" stroke="#263238" stroke-linecap="round" stroke-linejoin="round"/>
<path d="M232.883 206.237C235.046 210.311 236.705 215.792 237.37 225.921C238.035 236.05 237.811 246.508 241.85 249.588" stroke="#263238" stroke-linecap="round" stroke-linejoin="round"/>
<path d="M226.1 205.075C226.1 205.075 220.619 207.819 224.609 216.037C228.599 224.255 232.911 230.821 232.911 235.553C232.911 240.285 234.199 242.77 236.649 243.61" stroke="#263238" stroke-linecap="round" stroke-linejoin="round"/>
<path d="M208.124 212.509C208.124 212.509 206.556 215.001 206.465 215.736" stroke="#263238" stroke-linecap="round" stroke-linejoin="round"/>
<path d="M201.376 246.83C201.376 246.83 197.218 248.51 197.729 252.087" stroke="#263238" stroke-linecap="round" stroke-linejoin="round"/>
<path d="M196.7 246.2C196.7 246.2 198.24 244.625 199.5 245.22" stroke="#263238" stroke-linecap="round" stroke-linejoin="round"/>
<path d="M189.385 234.65C189.385 234.65 191.968 232.718 193.375 232.907" stroke="#263238" stroke-linecap="round" stroke-linejoin="round"/>
<path d="M211.722 224.955C210.084 225.35 208.564 226.133 207.291 227.237" stroke="#263238" stroke-linecap="round" stroke-linejoin="round"/>
<path d="M224.274 247.908C224.141 247.908 220.934 250.379 218.729 250.253" stroke="#263238" stroke-linecap="round" stroke-linejoin="round"/>
<path d="M227.073 258.52C227.073 259.402 235.473 269.328 244.699 267.837" stroke="#263238" stroke-linecap="round" stroke-linejoin="round"/>
<path d="M107.437 167.1C107.437 167.1 114.717 170.999 116.327 174.457C117.937 177.915 123.796 195.751 123.796 195.751C123.796 195.751 128.241 203.066 129.277 204.55C130.313 206.034 129.865 212.25 124.734 212.208C119.603 212.166 113.674 207.273 113.45 205.061C113.226 202.849 110.587 201.561 110.384 199.65C110.181 197.739 104.014 185.125 104.014 185.125L107.437 167.1Z" fill="#263238"/>
<path d="M115.648 314.618C115.648 314.618 114.549 321.366 115.648 324.516H137.964C137.964 324.516 138.909 322.15 137.964 320.666C137.019 319.182 129.949 318.328 127.751 316.312C126.064 314.636 124.538 312.806 123.194 310.845L115.648 314.618Z" fill="white" stroke="#263238" stroke-linecap="round" stroke-linejoin="round"/>
<path d="M138.383 323.326H115.36L115.157 324.516H138.383V323.326Z" fill="white" stroke="#263238" stroke-linecap="round" stroke-linejoin="round"/>
<path d="M121.017 313.799C121.017 313.799 123.117 314.303 123.348 314.387C123.579 314.471 125.63 317.607 127.674 318.153C129.718 318.699 131.755 318.601 131.44 319.595" stroke="#263238" stroke-linecap="round" stroke-linejoin="round"/>
<path d="M125.665 313.799L123.271 315.563" stroke="#263238" stroke-linecap="round" stroke-linejoin="round"/>
<path d="M126.771 315.346L124.468 317.033" stroke="#263238" stroke-linecap="round" stroke-linejoin="round"/>
<path d="M128.24 316.697L126.245 318.629" stroke="#263238" stroke-linecap="round" stroke-linejoin="round"/>
<path d="M130.264 317.677L129.396 319.595" stroke="#263238" stroke-linecap="round" stroke-linejoin="round"/>
<path d="M77.8338 324.516C77.8338 324.516 76.9728 321.233 77.9808 320.015C79.7868 317.831 77.7568 315.997 79.5698 315.241L80.3328 316.123C80.4798 315.227 80.0528 312.504 83.4198 312.154C87.4798 311.727 87.5568 314.681 87.7738 315.654L87.7108 314.296C89.4398 314.296 88.5438 316.025 91.1688 318.853C91.8579 319.615 92.3821 320.512 92.7085 321.486C93.035 322.461 93.1566 323.492 93.0658 324.516H77.8338Z" fill="white" stroke="#263238" stroke-linecap="round" stroke-linejoin="round"/>
<path d="M63.1124 199.629C61.2434 200.7 56.3993 211.025 59.2273 231.5C62.0553 251.975 70.5043 291.91 71.9253 298C73.3463 304.09 78.3094 318.825 78.3094 318.825C78.3094 318.825 80.2064 312.441 89.3274 315.857C89.4053 315.884 89.489 315.891 89.5702 315.875C89.6514 315.86 89.727 315.823 89.7895 315.769C89.852 315.715 89.8992 315.646 89.9262 315.568C89.9532 315.49 89.9591 315.406 89.9434 315.325L87.9413 304.902C87.9413 304.902 87.8013 297.279 87.1433 295.368C84.6723 288.172 83.4403 260.368 82.6213 256.483C81.8023 252.598 83.4124 241.44 83.4124 241.44C83.4124 241.44 94.8293 268.74 95.2003 271.442C95.5714 274.144 102.529 285.288 102.529 285.288L103.733 295.543C103.733 295.543 112.994 311.419 114.625 316.158L125.664 313.771L125.356 305.924L122.381 304.902L117.187 287.059C115.545 280.875 113.527 274.797 111.146 268.859C108.689 262.65 101.724 238.619 101.724 238.619C99.5614 236.267 97.5244 223.261 97.5244 223.261L94.1783 206.86L63.1124 199.629Z" fill="#3652AD"/>
<mask id="mask6_668_4799" style="mask-type:luminance" maskUnits="userSpaceOnUse" x="58" y="199" width="68" height="120">
<path d="M63.1124 199.629C61.2434 200.7 56.3993 211.025 59.2273 231.5C62.0553 251.975 70.5043 291.91 71.9253 298C73.3463 304.09 78.3094 318.825 78.3094 318.825C78.3094 318.825 80.2064 312.441 89.3274 315.857C89.4053 315.884 89.489 315.891 89.5702 315.875C89.6514 315.86 89.727 315.823 89.7895 315.769C89.852 315.715 89.8992 315.646 89.9262 315.568C89.9532 315.49 89.9591 315.406 89.9434 315.325L87.9413 304.902C87.9413 304.902 87.8013 297.279 87.1433 295.368C84.6723 288.172 83.4403 260.368 82.6213 256.483C81.8023 252.598 83.4124 241.44 83.4124 241.44C83.4124 241.44 94.8293 268.74 95.2003 271.442C95.5714 274.144 102.529 285.288 102.529 285.288L103.733 295.543C103.733 295.543 112.994 311.419 114.625 316.158L125.664 313.771L125.356 305.924L122.381 304.902L117.187 287.059C115.545 280.875 113.527 274.797 111.146 268.859C108.689 262.65 101.724 238.619 101.724 238.619C99.5614 236.267 97.5244 223.261 97.5244 223.261L94.1783 206.86L63.1124 199.629Z" fill="white"/>
</mask>
<g mask="url(#mask6_668_4799)">
<path opacity="0.2" d="M95.7812 214.749C90.1812 217.738 77.9592 223.485 72.4152 219.901C67.7602 216.891 62.4962 212.054 59.2832 208.932C60.3612 203.255 62.1392 200.196 63.1122 199.629L94.1782 206.881L95.7812 214.749Z" fill="black"/>
<path opacity="0.2" d="M125.664 313.799L114.625 316.2C112.994 311.461 103.733 295.585 103.733 295.585L102.529 285.33C102.529 285.33 95.5712 274.151 95.2002 271.47C94.8292 268.789 83.4122 241.468 83.4122 241.468C83.4122 241.468 83.1392 243.379 82.8662 245.906C82.9502 244.597 83.5662 235.798 83.2092 233.089L83.4892 231.451C83.4892 231.451 91.0072 226.019 92.0152 228.091C93.0232 230.163 88.0742 232.291 88.0742 232.291C88.0742 232.291 92.6452 233.691 94.8642 233.761C97.0832 233.831 94.3602 239.27 93.3172 239.886C92.2742 240.502 88.2422 239.886 88.2422 239.886C88.2422 239.886 96.8942 261.257 104.923 268.691C107.189 270.784 109.887 272.354 112.826 273.29C115.773 281.361 117.187 287.087 117.187 287.087L122.381 304.93L125.356 305.952L125.664 313.799Z" fill="black"/>
</g>
<path d="M63.1124 199.629C61.2434 200.7 56.3993 211.025 59.2273 231.5C62.0553 251.975 70.5043 291.91 71.9253 298C73.3463 304.09 78.3094 318.825 78.3094 318.825C78.3094 318.825 80.2064 312.441 89.3274 315.857C89.4053 315.884 89.489 315.891 89.5702 315.875C89.6514 315.86 89.727 315.823 89.7895 315.769C89.852 315.715 89.8992 315.646 89.9262 315.568C89.9532 315.49 89.9591 315.406 89.9434 315.325L87.9413 304.902C87.9413 304.902 87.8013 297.279 87.1433 295.368C84.6723 288.172 83.4403 260.368 82.6213 256.483C81.8023 252.598 83.4124 241.44 83.4124 241.44C83.4124 241.44 94.8293 268.74 95.2003 271.442C95.5713 274.144 102.529 285.288 102.529 285.288L103.733 295.543C103.733 295.543 112.994 311.419 114.625 316.158L125.664 313.771L125.356 305.924L122.381 304.902L117.187 287.059C115.545 280.875 113.527 274.797 111.146 268.859C108.689 262.65 101.724 238.619 101.724 238.619C99.5614 236.267 97.5244 223.261 97.5244 223.261L94.1783 206.86L63.1124 199.629Z" stroke="#263238" stroke-linecap="round" stroke-linejoin="round"/>
<path d="M108.5 185.384C104.685 192.944 98.6999 202.394 98.6999 202.394L96.0609 212.929C96.0609 212.929 86.1489 219.047 74.7809 216.485C61.4809 213.475 59.2969 206.685 59.2969 206.685L62.8809 194.82C64.6099 186.896 68.3689 171.769 76.1809 167.52C83.9929 163.271 97.3839 162.879 102.781 164.608C107.59 166.155 110.25 167.324 111.566 168.752C111.566 168.752 113.512 175.43 113.085 177.649C112.658 179.868 108.5 185.384 108.5 185.384Z" fill="#263238"/>
<path d="M93.0792 323.326H77.4902L77.8332 324.516H93.0652L93.0792 323.326Z" fill="white" stroke="#263238" stroke-linecap="round" stroke-linejoin="round"/>
<path d="M88.0742 318.713C88.0742 318.713 82.9642 317.026 80.4932 319.14" stroke="#263238" stroke-linecap="round" stroke-linejoin="round"/>
<path d="M88.0742 317.6C88.0742 317.6 83.5802 316.2 80.4932 318.076" stroke="#263238" stroke-linecap="round" stroke-linejoin="round"/>
<path d="M87.8152 316.494C87.8152 316.494 83.6152 314.898 80.4932 317.082" stroke="#263238" stroke-linecap="round" stroke-linejoin="round"/>
<g opacity="0.96">
<path d="M87.1434 230.044C86.5344 230.184 74.7674 234.475 72.4434 238.766" stroke="#263238" stroke-linecap="round" stroke-linejoin="round"/>
<path d="M84.2871 236.274C84.8751 237.107 89.8871 252.752 91.9871 257.043C94.0871 261.334 101.332 280.584 102.991 281.69C102.991 281.69 105.21 292.89 106.589 294.703C107.968 296.516 115.136 310.845 115.136 310.845" stroke="#263238" stroke-linecap="round" stroke-linejoin="round"/>
<path d="M123.193 310.845L114.506 312.707" stroke="#263238" stroke-linecap="round" stroke-linejoin="round"/>
<path d="M87.8149 311.776C87.8149 311.776 80.8569 311.153 78.5049 313.799" stroke="#263238" stroke-linecap="round" stroke-linejoin="round"/>
<path d="M79.8 238.073C79.219 241.398 70.497 259.815 68.418 257.736" stroke="#263238" stroke-linecap="round" stroke-linejoin="round"/>
<path d="M83.1602 239.739C83.1602 239.739 84.1822 235.168 83.2092 233.089C82.8452 232.298 90.6922 235.028 93.3172 234.405" stroke="#263238" stroke-linecap="round" stroke-linejoin="round"/>
<path d="M84.2874 217.108C84.2874 217.108 82.8874 221.042 82.5794 222.288C82.2714 223.534 85.0784 228.385 84.2874 229.351" stroke="#263238" stroke-linecap="round" stroke-linejoin="round"/>
<path d="M65.2116 213.426C65.2116 213.426 63.2726 216.394 63.2726 218.585C63.2726 220.776 60.6406 221.735 60.6406 221.735" stroke="#263238" stroke-linecap="round" stroke-linejoin="round"/>
<path d="M61.082 210.185C59.6261 216.711 59.4762 223.46 60.641 230.044C62.58 240.985 65.765 263.273 67.011 268.95C68.257 274.627 71.169 287.367 71.169 289.166C71.169 290.965 74.088 301.213 74.088 301.213" stroke="#263238" stroke-linecap="round" stroke-linejoin="round"/>
<path d="M73.3809 285.708C73.7939 285.708 81.5499 293.184 83.4889 293.324" stroke="#263238" stroke-linecap="round" stroke-linejoin="round"/>
<path d="M107.303 281.137C107.723 281.277 114.226 284.462 114.506 283.489" stroke="#263238" stroke-linecap="round" stroke-linejoin="round"/>
</g>
<path d="M99.2957 163.292C99.2957 163.292 91.3857 164.083 91.1057 168.479C90.8257 172.875 94.5217 177.852 100.71 178.132C106.898 178.412 107.654 172.343 107.871 169.032C108.088 165.721 103.601 163.033 99.2957 163.292Z" fill="#BFBFBF" stroke="#263238" stroke-linecap="round" stroke-linejoin="round"/>
<path d="M96.7684 165.966C95.4919 162.39 95.2923 158.517 96.1944 154.829C97.2934 150.216 102.788 143.874 111.118 149.642C115.416 152.617 115.675 159.064 114.338 164.972C114.023 166.372 114.261 167.772 113.792 169.053C112.147 173.603 109.13 177.103 107.492 177.18C104.741 177.313 99.2464 173.988 99.4704 171.09" fill="#BFBFBF"/>
<path d="M96.7684 165.966C95.4919 162.39 95.2923 158.517 96.1944 154.829C97.2934 150.216 102.788 143.874 111.118 149.642C115.416 152.617 115.675 159.064 114.338 164.972C114.023 166.372 114.261 167.772 113.792 169.053C112.147 173.603 109.13 177.103 107.492 177.18C104.741 177.313 99.2464 173.988 99.4704 171.09" stroke="#263238" stroke-linecap="round" stroke-linejoin="round"/>
<path d="M107.871 163.026C107.145 162.817 106.384 162.759 105.636 162.855C104.887 162.952 104.166 163.2 103.517 163.586" stroke="#263238" stroke-linecap="round" stroke-linejoin="round"/>
<path d="M112.063 162.9C112.063 162.9 113.743 162.06 114.863 162.277" stroke="#263238" stroke-linecap="round" stroke-linejoin="round"/>
<path d="M105.196 167.086C105.452 167.086 105.658 166.754 105.658 166.344C105.658 165.934 105.452 165.602 105.196 165.602C104.941 165.602 104.734 165.934 104.734 166.344C104.734 166.754 104.941 167.086 105.196 167.086Z" fill="#263238"/>
<path d="M112.064 166.673C112.319 166.673 112.526 166.341 112.526 165.931C112.526 165.521 112.319 165.189 112.064 165.189C111.808 165.189 111.602 165.521 111.602 165.931C111.602 166.341 111.808 166.673 112.064 166.673Z" fill="#263238"/>
<path d="M102.529 157.377L102.305 160.779C102.305 160.779 99.8973 162.018 99.2953 163.292C98.932 164.121 98.799 165.033 98.9103 165.931C98.9103 165.931 97.4473 163.376 96.6633 163.586C96.3763 163.656 96.3763 164.727 96.3763 164.727C96.3763 164.727 93.1003 157.377 96.0613 153.492C99.0223 149.607 102.529 157.377 102.529 157.377Z" fill="#263238"/>
<path d="M97.881 165.189C97.881 165.189 97.223 162.725 95.004 162.067C92.785 161.409 94.304 167.324 96.194 168.108C98.084 168.892 98.56 169.424 98.672 168.724" fill="#BFBFBF"/>
<path d="M97.881 165.189C97.881 165.189 97.223 162.725 95.004 162.067C92.785 161.409 94.304 167.324 96.194 168.108C98.084 168.892 98.56 169.424 98.672 168.724" stroke="#263238" stroke-linecap="round" stroke-linejoin="round"/>
<path d="M110.447 166.344C110.346 167.17 110.526 168.006 110.958 168.717C111.105 168.928 111.182 169.181 111.177 169.438C111.173 169.696 111.086 169.945 110.931 170.151C110.775 170.356 110.558 170.507 110.311 170.581C110.065 170.656 109.801 170.65 109.558 170.565" stroke="#263238" stroke-linecap="round" stroke-linejoin="round"/>
<path d="M109.571 172.637C108.301 172.976 106.964 172.976 105.693 172.637" stroke="#263238" stroke-linecap="round" stroke-linejoin="round"/>
<path d="M102.529 157.377C102.529 157.377 108.185 158.742 111.629 158.287C115.073 157.832 117.229 156.25 116.704 152.631C116.179 149.012 112.091 147.339 105.378 146.191C98.7775 145.064 91.8615 150.006 95.0045 156.04C98.1475 162.074 102.529 157.377 102.529 157.377Z" fill="#263238"/>
<path d="M110.026 211.13C110.216 211.506 110.317 211.92 110.32 212.341C110.39 213.209 107.275 214.245 106.722 213.902C106.169 213.559 104.86 211.802 106.379 210.787C107.898 209.772 110.026 211.13 110.026 211.13Z" fill="#BFBFBF" stroke="#263238" stroke-linecap="round" stroke-linejoin="round"/>
<path d="M118.217 210.185C118.353 211.151 118.622 212.093 119.015 212.985C119.498 213.783 122.515 212.985 123.341 213.412C124.167 213.839 124.237 212.376 123.341 211.641C122.445 210.906 121.297 209.275 118.217 210.185Z" fill="#BFBFBF" stroke="#263238" stroke-linecap="round" stroke-linejoin="round"/>
<path d="M116.326 209.751H112.771V265.926H116.326V209.751Z" fill="#BFBFBF" stroke="#263238" stroke-linecap="round" stroke-linejoin="round"/>
<path d="M111.601 250.4H117.495C117.837 250.4 118.165 250.536 118.406 250.777C118.648 251.019 118.783 251.346 118.783 251.688V324.488H110.32V251.688C110.32 251.348 110.455 251.021 110.695 250.78C110.935 250.538 111.261 250.402 111.601 250.4Z" fill="#757575" stroke="#263238" stroke-linecap="round" stroke-linejoin="round"/>
<path d="M124.846 205.88H104.252C103.825 205.88 103.415 206.05 103.113 206.351C102.811 206.653 102.642 207.063 102.642 207.49V208.575C102.642 209.002 102.811 209.411 103.113 209.713C103.415 210.015 103.825 210.185 104.252 210.185H111.854V213.426H117.251V210.185H124.846C125.057 210.185 125.266 210.143 125.462 210.062C125.657 209.981 125.835 209.863 125.984 209.713C126.134 209.564 126.252 209.386 126.333 209.191C126.414 208.996 126.456 208.786 126.456 208.575V207.49C126.456 207.278 126.414 207.069 126.333 206.874C126.252 206.678 126.134 206.501 125.984 206.351C125.835 206.202 125.657 206.083 125.462 206.002C125.266 205.922 125.057 205.88 124.846 205.88Z" fill="#3652AD" stroke="#263238" stroke-linecap="round" stroke-linejoin="round"/>
<path d="M95.641 204.116C95.641 204.116 106.554 202.639 107.632 202.457C108.71 202.275 112.063 207.994 112.063 207.994L109.571 211.83C109.571 211.83 100.051 213.16 99.484 212.607C99.1163 212.179 98.8485 211.674 98.7 211.13C98.7 211.13 93.8 212.978 93.345 209.653C92.89 206.328 92.54 205.838 95.641 204.116Z" fill="#BFBFBF" stroke="#263238" stroke-linecap="round" stroke-linejoin="round"/>
<path d="M117.846 205.88C117.846 205.88 119.512 202.919 121.171 202.919C122.83 202.919 129.2 204.025 129.942 204.949C130.684 205.873 132.434 207.35 132.154 208.547C131.874 209.744 130.124 212.25 128.465 211.83C126.806 211.41 122.557 211.879 122.557 211.879C122.557 211.879 120.247 211.452 120.065 210.185L122.004 209.653C122.004 209.653 122.277 206.979 121.906 206.608C121.535 206.237 117.846 205.88 117.846 205.88Z" fill="#BFBFBF" stroke="#263238" stroke-linecap="round" stroke-linejoin="round"/>
<path d="M123.795 211.767C123.795 211.767 125.818 209.562 125.664 208.729C125.51 207.896 125.209 205.313 124.712 205.04" stroke="#263238" stroke-linecap="round" stroke-linejoin="round"/>
<path d="M126.596 211.655C126.596 211.655 128.094 211.039 128.094 209.653C128.054 208.539 127.928 207.429 127.716 206.335" stroke="#263238" stroke-linecap="round" stroke-linejoin="round"/>
<path d="M129.276 211.816C129.79 211.26 130.127 210.564 130.246 209.817C130.364 209.069 130.258 208.303 129.941 207.616" stroke="#263238" stroke-linecap="round" stroke-linejoin="round"/>
<path d="M107.801 211.9C107.801 211.9 109.537 209.569 109.257 208.4C108.873 207.239 108.385 206.114 107.801 205.04" stroke="#263238" stroke-linecap="round" stroke-linejoin="round"/>
<path d="M105.484 212.341C105.484 212.341 106.45 209.541 106.38 208.995C106.31 208.449 104.98 205.733 104.924 205.453" stroke="#263238" stroke-linecap="round" stroke-linejoin="round"/>
<path d="M102.641 212.6C103.264 211.585 104.741 211.2 103.607 208.967C102.473 206.734 101.948 206.307 101.948 206.307" stroke="#263238" stroke-linecap="round" stroke-linejoin="round"/>
<path d="M98.7002 211.13C99.2042 210.647 100.177 209.478 100.177 209.478C100.177 209.478 100.38 210.437 100.8 210.717" stroke="#263238" stroke-linecap="round" stroke-linejoin="round"/>
<path d="M103.461 323.025H126.001C126.303 323.025 126.594 323.145 126.808 323.359C127.022 323.573 127.142 323.863 127.142 324.166V324.803H102.593V323.9C102.592 323.785 102.614 323.672 102.657 323.566C102.7 323.459 102.764 323.363 102.845 323.282C102.925 323.2 103.021 323.136 103.127 323.092C103.233 323.048 103.346 323.025 103.461 323.025Z" fill="#263238"/>
<path d="M69.4051 178.769C66.6051 185.706 63.3501 193.819 62.8811 201.365C62.7061 204.165 65.4011 205.152 67.6761 206.181C72.1437 208.185 76.8273 209.667 81.6341 210.598C83.3211 210.927 85.1341 210.913 86.7441 211.298C88.5711 211.753 91.1401 213.356 93.0441 212.32" stroke="white" stroke-linecap="round" stroke-linejoin="round"/>
<path d="M82.5511 182.5L78.8901 190.375L76.5381 195.1C77.4149 195.986 78.5493 196.571 79.7791 196.773C80.3446 196.85 80.8869 197.048 81.3699 197.352C81.8528 197.656 82.2651 198.06 82.5791 198.537C82.5791 198.537 91.7981 202.52 93.0441 202.478C94.2901 202.436 95.2981 201.239 96.3201 202.947" stroke="white" stroke-linecap="round" stroke-linejoin="round"/>
<path d="M76.5379 195.1C76.5379 195.1 71.5539 193.434 69.7549 195.1" stroke="white" stroke-linecap="round" stroke-linejoin="round"/>
<path d="M77.3711 170.6C77.7841 170.271 82.8521 175.808 83.1601 179.966" stroke="white" stroke-linecap="round" stroke-linejoin="round"/>
<path d="M84.4278 182.5C84.4278 182.5 83.0698 185.3 80.8438 186.175" stroke="white" stroke-linecap="round" stroke-linejoin="round"/>
<path d="M112.532 183.025C112.532 183.025 109.732 187.827 106.834 188.625" stroke="white" stroke-linecap="round" stroke-linejoin="round"/>
<path d="M113.197 199.629C113.197 199.629 117.11 196.619 119.735 196.745" stroke="white" stroke-linecap="round" stroke-linejoin="round"/>
<path d="M112.063 187.4C112.063 187.4 109.634 189.388 107.828 188.646" stroke="white" stroke-linecap="round" stroke-linejoin="round"/>
<path d="M116.383 319.609C136.046 319.609 132.868 324.509 152.916 324.509C172.964 324.509 185.116 324.803 185.116 219.803" stroke="#263238" stroke-width="3" stroke-linecap="round" stroke-linejoin="round"/>
</svg>
