<svg width="290" height="303" viewBox="0 0 290 303" fill="none" xmlns="http://www.w3.org/2000/svg">
<path d="M2.71024 213.232C2.71024 213.232 -0.372073 197.681 4.04963 189.454C8.47133 181.227 21.7364 190.09 20.4743 178.709C19.2122 167.327 10.3688 115.473 37.5258 102.828C64.6827 90.1822 105.105 105.982 117.108 71.2012C129.111 36.4199 127.84 11.1291 168.262 10.5015C208.684 9.87399 283.845 107.882 288.266 138.236C292.688 168.591 248.926 195.128 247.715 210.945C246.505 226.763 273.069 263.444 264.887 276.725C256.705 290.007 254.781 293.162 254.781 293.162L2.71024 213.232Z" fill="#3652AD"/>
<path opacity="0.7" d="M2.71024 213.232C2.71024 213.232 -0.372073 197.681 4.04963 189.454C8.47133 181.227 21.7364 190.09 20.4743 178.709C19.2122 167.327 10.3688 115.473 37.5258 102.828C64.6827 90.1822 105.105 105.982 117.108 71.2012C129.111 36.4199 127.84 11.1291 168.262 10.5015C208.684 9.87399 283.845 107.882 288.266 138.236C292.688 168.591 248.926 195.128 247.715 210.945C246.505 226.763 273.069 263.444 264.887 276.725C256.705 290.007 254.781 293.162 254.781 293.162L2.71024 213.232Z" fill="white"/>
<path d="M249.433 291.675L261.341 295.423" stroke="#263238" stroke-linecap="round" stroke-linejoin="round"/>
<path d="M19.8906 219.507L240.821 288.967" stroke="#263238" stroke-linecap="round" stroke-linejoin="round"/>
<path d="M130.081 300.753L156.895 271.035L72.2129 242.383L48.0781 272.101L130.081 300.753Z" fill="#3652AD" stroke="#263238" stroke-linecap="round" stroke-linejoin="round"/>
<path d="M127.523 292.853L145.527 273.407L81.108 250.635L63.1035 271.508L127.523 292.853Z" fill="#263238" stroke="#263238" stroke-linecap="round" stroke-linejoin="round"/>
<path d="M118.07 160.656C118.07 160.656 104.779 164.181 99.1813 169.476C93.5834 174.772 91.0076 184.554 91.0076 184.554C91.0076 184.554 83.4778 190.967 79.9491 192.893C77.0768 194.344 74.5217 196.353 72.4329 198.803C70.3442 201.253 68.7634 204.095 67.7829 207.163C64.8981 215.828 61.3779 235.394 61.3779 235.394L70.3415 239.572C70.3415 239.572 70.5047 234.414 78.5152 226.583C86.5258 218.751 91.4798 205.409 92.1238 205.091C92.7677 204.773 106.857 195.472 106.857 195.472C106.857 195.472 117.752 203.002 130.082 205.091C142.411 207.18 156.028 204.928 156.028 204.928L152.182 216.8C152.182 216.8 143.373 220.642 141.132 225.293C138.891 229.944 128.322 247.584 128.322 247.584L135.851 253.679C141.803 249.244 148.122 245.327 154.74 241.97C165.79 236.357 168.478 232.351 171.714 225.774C174.652 219.227 177.114 212.475 179.081 205.573C179.244 204.447 182.447 201.567 182.927 194.664L183.408 187.787L200.219 172.717C209.447 168.625 217.735 162.676 224.569 155.24C235.619 143.051 237.379 137.119 238.503 126.21C239.628 115.301 244.11 72.1728 244.265 71.5281C244.419 70.8833 245.87 67.6854 247.793 67.3588C249.717 67.0321 260.286 76.3421 261.728 77.3049C263.171 78.2677 266.021 78.7491 266.365 75.6973C266.708 72.6456 264.124 65.1151 255.958 56.9399C247.793 48.7646 241.861 47.4837 239.946 49.5641C238.031 51.6444 239.302 56.1318 238.023 62.7081C236.743 69.2844 228.733 93.0192 224.723 104.246C220.714 115.473 222.002 130.706 222.002 130.706C218.711 131.9 215.589 133.516 212.712 135.512C208.874 138.4 202.95 142.389 202.95 142.389L201.353 141.572C201.353 141.572 210.325 132.589 213.047 127.457C215.768 122.325 216.567 122.006 215.124 118.963C213.682 115.92 201.997 101.169 196.871 94.5838C191.745 87.9989 185.495 76.9438 184.181 73.7373C183.01 70.9817 182.951 67.8787 184.018 65.0807C184.979 62.837 193.952 58.3497 194.115 51.4553C194.278 44.5609 189.822 46.478 185.623 47.9222C181.425 49.3664 170.246 60.2753 167.688 67.1696C165.129 74.064 167.361 76.3077 171.852 80.477C176.342 84.6463 181.811 93.1482 184.696 101.169C187.581 109.189 191.264 116.883 197.189 118.972C197.189 118.972 187.744 123.459 181.494 127.947C175.243 132.434 172.204 134.523 172.204 134.523C172.204 134.523 163.712 136.93 160.51 141.099C158.796 143.24 157.295 145.544 156.028 147.976C156.028 147.976 127.042 152.954 118.07 160.656Z" fill="white"/>
<mask id="mask0_668_4542" style="mask-type:luminance" maskUnits="userSpaceOnUse" x="61" y="46" width="206" height="208">
<path d="M118.07 160.656C118.07 160.656 104.779 164.181 99.1813 169.476C93.5834 174.772 91.0076 184.554 91.0076 184.554C91.0076 184.554 83.4778 190.967 79.9491 192.893C77.0768 194.344 74.5217 196.353 72.4329 198.803C70.3442 201.253 68.7634 204.095 67.7829 207.163C64.8981 215.828 61.3779 235.394 61.3779 235.394L70.3415 239.572C70.3415 239.572 70.5047 234.414 78.5152 226.583C86.5258 218.751 91.4798 205.409 92.1238 205.091C92.7677 204.773 106.857 195.472 106.857 195.472C106.857 195.472 117.752 203.002 130.082 205.091C142.411 207.18 156.028 204.928 156.028 204.928L152.182 216.8C152.182 216.8 143.373 220.642 141.132 225.293C138.891 229.944 128.322 247.584 128.322 247.584L135.851 253.679C141.803 249.244 148.122 245.327 154.74 241.97C165.79 236.357 168.478 232.351 171.714 225.774C174.652 219.227 177.114 212.475 179.081 205.573C179.244 204.447 182.447 201.567 182.927 194.664L183.408 187.787L200.219 172.717C209.447 168.625 217.735 162.676 224.569 155.24C235.619 143.051 237.379 137.119 238.503 126.21C239.628 115.301 244.11 72.1728 244.265 71.5281C244.419 70.8833 245.87 67.6854 247.793 67.3588C249.717 67.0321 260.286 76.3421 261.728 77.3049C263.171 78.2677 266.021 78.7491 266.365 75.6973C266.708 72.6456 264.124 65.1151 255.958 56.9399C247.793 48.7646 241.861 47.4837 239.946 49.5641C238.031 51.6444 239.302 56.1318 238.023 62.7081C236.743 69.2844 228.733 93.0192 224.723 104.246C220.714 115.473 222.002 130.706 222.002 130.706C218.711 131.9 215.589 133.516 212.712 135.512C208.874 138.4 202.95 142.389 202.95 142.389L201.353 141.572C201.353 141.572 210.325 132.589 213.047 127.457C215.768 122.325 216.567 122.006 215.124 118.963C213.682 115.92 201.997 101.169 196.871 94.5838C191.745 87.9989 185.495 76.9438 184.181 73.7373C183.01 70.9817 182.951 67.8787 184.018 65.0807C184.979 62.837 193.952 58.3497 194.115 51.4553C194.278 44.5609 189.822 46.478 185.623 47.9222C181.425 49.3664 170.246 60.2753 167.688 67.1696C165.129 74.064 167.361 76.3077 171.852 80.477C176.342 84.6463 181.811 93.1482 184.696 101.169C187.581 109.189 191.264 116.883 197.189 118.972C197.189 118.972 187.744 123.459 181.494 127.947C175.243 132.434 172.204 134.523 172.204 134.523C172.204 134.523 163.712 136.93 160.51 141.099C158.796 143.24 157.295 145.544 156.028 147.976C156.028 147.976 127.042 152.954 118.07 160.656Z" fill="white"/>
</mask>
<g mask="url(#mask0_668_4542)">
<path opacity="0.2" d="M194.698 175.863L181.021 182.216C181.021 182.216 181.682 192.575 178.016 197.922C174.35 203.269 173.011 204.937 173.011 204.937C173.011 204.937 172.676 212.957 170.34 217.969C168.005 222.981 164.33 224.648 164.33 224.648C164.335 226.528 163.953 228.388 163.207 230.113C162.461 231.838 161.367 233.39 159.994 234.672C155.324 239.022 143.681 246.036 136.298 250.713C135.533 251.203 134.804 251.719 134.1 252.252L135.817 253.661C141.768 249.227 148.088 245.31 154.706 241.953C165.756 236.34 168.443 232.334 171.68 225.757C174.617 219.209 177.079 212.458 179.046 205.556C179.21 204.429 182.412 201.55 182.893 194.647L183.374 187.769L195.669 176.749L194.698 175.863Z" fill="black"/>
<path opacity="0.2" d="M130.09 205.074C141.252 206.965 153.495 205.298 155.693 204.971C156.397 203.123 156.844 201.051 155.693 200.26C153.693 198.919 154.362 195.248 154.362 195.248C154.362 195.248 152.697 198.919 139.346 198.919C125.995 198.919 107.973 187.563 107.973 187.563C107.973 187.563 106.642 191.569 102.968 192.91C99.293 194.251 89.2819 199.925 89.2819 199.925C89.2819 199.925 88.947 209.278 82.2759 214.96C75.6047 220.642 67.9118 233.872 67.9118 233.872L66.7012 237.852L70.3416 239.572C70.3416 239.572 70.5047 234.414 78.5153 226.582C86.5258 218.751 91.4799 205.409 92.1238 205.091C92.7677 204.773 106.857 195.472 106.857 195.472C106.857 195.472 117.752 202.985 130.09 205.074Z" fill="black"/>
</g>
<path d="M118.07 160.656C118.07 160.656 104.779 164.181 99.1813 169.476C93.5834 174.772 91.0076 184.554 91.0076 184.554C91.0076 184.554 83.4778 190.967 79.9491 192.893C77.0768 194.344 74.5217 196.353 72.4329 198.803C70.3442 201.253 68.7634 204.095 67.7829 207.163C64.8981 215.828 61.3779 235.394 61.3779 235.394L70.3415 239.572C70.3415 239.572 70.5047 234.414 78.5152 226.583C86.5258 218.751 91.4798 205.409 92.1238 205.091C92.7677 204.773 106.857 195.472 106.857 195.472C106.857 195.472 117.752 203.002 130.082 205.091C142.411 207.18 156.028 204.928 156.028 204.928L152.182 216.8C152.182 216.8 143.373 220.642 141.132 225.293C138.891 229.944 128.322 247.584 128.322 247.584L135.851 253.679C141.803 249.244 148.122 245.327 154.74 241.97C165.79 236.357 168.478 232.351 171.714 225.774C174.652 219.227 177.114 212.475 179.081 205.573C179.244 204.447 182.447 201.567 182.927 194.664L183.408 187.787L200.219 172.717C209.447 168.625 217.735 162.676 224.569 155.24C235.619 143.051 237.379 137.119 238.504 126.21C239.628 115.301 244.11 72.1728 244.265 71.5281C244.419 70.8833 245.87 67.6854 247.793 67.3588C249.717 67.0321 260.286 76.3421 261.728 77.3049C263.171 78.2677 266.021 78.7491 266.365 75.6973C266.708 72.6456 264.124 65.1151 255.958 56.9399C247.793 48.7646 241.861 47.4837 239.946 49.5641C238.031 51.6444 239.302 56.1318 238.023 62.7081C236.743 69.2844 228.733 93.0192 224.723 104.246C220.714 115.473 222.002 130.706 222.002 130.706C218.711 131.9 215.589 133.516 212.712 135.512C208.874 138.4 202.95 142.389 202.95 142.389L201.353 141.572C201.353 141.572 210.325 132.589 213.047 127.457C215.768 122.325 216.567 122.006 215.124 118.963C213.682 115.92 201.997 101.169 196.871 94.5838C191.745 87.9989 185.495 76.9438 184.181 73.7373C183.01 70.9817 182.951 67.8787 184.018 65.0807C184.979 62.837 193.952 58.3497 194.115 51.4553C194.278 44.5609 189.822 46.478 185.623 47.9222C181.425 49.3664 170.246 60.2753 167.688 67.1696C165.129 74.064 167.361 76.3077 171.852 80.477C176.342 84.6463 181.811 93.1482 184.696 101.169C187.581 109.189 191.264 116.883 197.189 118.972C197.189 118.972 187.744 123.459 181.494 127.947C175.243 132.434 172.204 134.523 172.204 134.523C172.204 134.523 163.712 136.93 160.51 141.099C158.796 143.24 157.295 145.544 156.028 147.976C156.028 147.976 127.042 152.954 118.07 160.656Z" stroke="#263238" stroke-linecap="round" stroke-linejoin="round"/>
<path d="M166.151 142.371C164.133 142.371 161.635 142.56 159.282 142.801C158.071 144.431 156.995 146.156 156.062 147.959C156.062 147.959 127.042 152.954 118.07 160.656C118.07 160.656 104.779 164.181 99.1812 169.476C93.5833 174.771 91.0075 184.554 91.0075 184.554C91.0075 184.554 87.0151 187.95 83.4863 190.572C86.2595 190.374 90.9217 190.486 93.403 193.082C95.8843 195.678 95.7469 200.337 95.3863 203.019C99.7307 200.191 106.857 195.489 106.857 195.489C106.857 195.489 117.752 203.019 130.082 205.108C142.411 207.197 156.028 204.945 156.028 204.945L155.41 206.853C157.719 205.134 162.708 202.555 169.963 205.426C171.6 206.008 173.079 206.965 174.282 208.22C175.485 209.475 176.378 210.994 176.892 212.656C178.128 209.02 179.021 206.106 179.09 205.59C179.253 204.464 182.455 201.584 182.936 194.681L183.417 187.804L197.583 175.098C197.884 172.012 197.498 167.267 194.63 160.699C189.023 147.822 171.079 142.371 166.151 142.371Z" fill="#3652AD"/>
<mask id="mask1_668_4542" style="mask-type:luminance" maskUnits="userSpaceOnUse" x="83" y="142" width="115" height="71">
<path d="M166.151 142.371C164.133 142.371 161.635 142.56 159.282 142.801C158.071 144.431 156.995 146.156 156.062 147.959C156.062 147.959 127.042 152.954 118.07 160.656C118.07 160.656 104.779 164.181 99.1812 169.476C93.5833 174.771 91.0075 184.554 91.0075 184.554C91.0075 184.554 87.0151 187.95 83.4863 190.572C86.2595 190.374 90.9217 190.486 93.403 193.082C95.8843 195.678 95.7469 200.337 95.3863 203.019C99.7307 200.191 106.857 195.489 106.857 195.489C106.857 195.489 117.752 203.019 130.082 205.108C142.411 207.197 156.028 204.945 156.028 204.945L155.41 206.853C157.719 205.134 162.708 202.555 169.963 205.426C171.6 206.008 173.079 206.965 174.282 208.22C175.485 209.475 176.378 210.994 176.892 212.656C178.128 209.02 179.021 206.106 179.09 205.59C179.253 204.464 182.455 201.584 182.936 194.681L183.417 187.804L197.583 175.098C197.884 172.012 197.498 167.267 194.63 160.699C189.023 147.822 171.079 142.371 166.151 142.371Z" fill="white"/>
</mask>
<g mask="url(#mask1_668_4542)">
<path opacity="0.2" d="M130.09 205.074C141.252 206.965 153.495 205.297 155.693 204.971C156.397 203.123 156.844 201.051 155.693 200.26C153.693 198.919 154.362 195.248 154.362 195.248C154.362 195.248 152.697 198.919 139.346 198.919C125.995 198.919 107.973 187.563 107.973 187.563C107.973 187.563 106.642 191.569 102.968 192.91C99.293 194.251 89.2819 199.925 89.2819 199.925C89.2819 199.925 88.947 209.278 82.2759 214.96C75.6047 220.642 67.9118 233.872 67.9118 233.872L66.7012 237.852L70.3416 239.572C70.3416 239.572 70.5047 234.414 78.5153 226.582C86.5258 218.751 91.4799 205.409 92.1238 205.091C92.7677 204.773 106.857 195.472 106.857 195.472C106.857 195.472 117.752 202.985 130.09 205.074Z" fill="black"/>
<path opacity="0.2" d="M194.698 175.863L181.021 182.216C181.021 182.216 181.682 192.575 178.016 197.922C174.35 203.269 173.011 204.936 173.011 204.936C173.011 204.936 172.676 212.957 170.34 217.969C168.005 222.98 164.33 224.648 164.33 224.648C164.335 226.528 163.953 228.388 163.207 230.113C162.461 231.837 161.367 233.389 159.994 234.672C155.324 239.021 143.681 246.036 136.298 250.713C135.533 251.203 134.804 251.718 134.1 252.251L135.817 253.661C141.768 249.227 148.088 245.31 154.706 241.953C165.756 236.339 168.443 232.333 171.68 225.757C174.617 219.209 177.079 212.458 179.046 205.555C179.21 204.429 182.412 201.549 182.893 194.646L183.374 187.769L195.669 176.749L194.698 175.863Z" fill="black"/>
</g>
<path d="M166.151 142.371C164.133 142.371 161.635 142.56 159.282 142.801C158.071 144.431 156.995 146.156 156.062 147.959C156.062 147.959 127.042 152.954 118.07 160.656C118.07 160.656 104.779 164.181 99.1812 169.476C93.5833 174.771 91.0075 184.554 91.0075 184.554C91.0075 184.554 87.0151 187.95 83.4863 190.572C86.2595 190.374 90.9217 190.486 93.403 193.082C95.8843 195.678 95.7469 200.337 95.3863 203.019C99.7307 200.191 106.857 195.489 106.857 195.489C106.857 195.489 117.752 203.019 130.082 205.108C142.411 207.197 156.028 204.945 156.028 204.945L155.41 206.853C157.719 205.134 162.708 202.555 169.963 205.426C171.6 206.008 173.079 206.965 174.282 208.22C175.485 209.475 176.378 210.994 176.892 212.656C178.128 209.02 179.021 206.106 179.09 205.59C179.253 204.464 182.455 201.584 182.936 194.681L183.417 187.804L197.583 175.098C197.884 172.012 197.498 167.267 194.63 160.699C189.023 147.822 171.079 142.371 166.151 142.371Z" stroke="#263238" stroke-linecap="round" stroke-linejoin="round"/>
<path d="M161.471 184.064C158.299 186.234 156.022 189.485 155.066 193.211C153.469 199.461 155.229 203.148 155.229 203.148" stroke="#263238" stroke-linecap="round" stroke-linejoin="round"/>
<path d="M111.82 158.215C111.82 158.215 104.633 161.447 102.118 160.011C99.6019 158.576 99.9626 152.455 102.976 149.034C105.99 145.612 111.966 145.251 109.991 144.735C108.016 144.22 104.238 143.111 108.368 139.878C112.498 136.646 124.544 133.758 134.435 136.638C144.326 139.517 147.914 144.916 148.627 147.435C149.001 148.549 149.243 149.703 149.348 150.873C149.348 150.873 153.641 149.077 154.38 150.521C154.592 150.894 154.673 151.328 154.607 151.753C154.542 152.178 154.334 152.568 154.019 152.859C154.019 152.859 155.642 154.475 155.994 158.258C156.346 162.04 153.839 165.453 152.405 166.854C150.971 168.255 148.807 168.659 146.292 166.502C143.776 164.344 142.342 156.96 140.719 156.96C139.097 156.96 132.271 157.321 132.134 156.1L131.962 154.845L113.623 159.521L111.82 158.215Z" fill="#263238" stroke="#263238" stroke-linecap="round" stroke-linejoin="round"/>
<path d="M149.306 173.963C149.306 173.963 150.585 189.36 146.258 197.054C141.931 204.747 134.083 199.297 132.323 197.535C130.563 195.773 140.497 188.397 142.738 182.62C144.979 176.843 148.499 170.8 149.306 173.963Z" fill="white"/>
<mask id="mask2_668_4542" style="mask-type:luminance" maskUnits="userSpaceOnUse" x="132" y="173" width="18" height="29">
<path d="M149.306 173.963C149.306 173.963 150.585 189.36 146.258 197.054C141.931 204.747 134.083 199.297 132.323 197.535C130.563 195.773 140.497 188.397 142.738 182.62C144.979 176.843 148.499 170.8 149.306 173.963Z" fill="white"/>
</mask>
<g mask="url(#mask2_668_4542)">
<path opacity="0.2" d="M149.306 173.963C149.306 173.963 150.585 189.36 146.258 197.054C141.931 204.747 134.083 199.297 132.323 197.535C130.563 195.773 140.497 188.397 142.738 182.62C144.979 176.843 148.499 170.8 149.306 173.963Z" fill="black"/>
</g>
<path d="M149.306 173.963C149.306 173.963 150.585 189.36 146.258 197.054C141.931 204.747 134.083 199.297 132.323 197.535C130.563 195.773 140.497 188.397 142.738 182.62C144.979 176.843 148.499 170.8 149.306 173.963Z" stroke="#263238" stroke-linecap="round" stroke-linejoin="round"/>
<path d="M111.819 158.215C112.292 166.749 113.987 175.17 116.851 183.222C121.521 195.996 129.429 200.32 132.846 200.501C136.263 200.681 142.728 194.2 145.605 188.079C147.533 183.821 149.157 179.432 150.464 174.943C150.464 174.943 154.594 173.508 155.676 169.725C156.758 165.943 156.534 162.53 153.692 162.169C150.85 161.808 149.563 165.951 149.563 165.951C147.175 164.213 145.411 161.75 144.531 158.928C143.089 154.252 145.965 150.65 144.531 151.552C143.098 152.455 140.238 155.335 138.779 154.793C137.319 154.252 139.637 150.117 139.637 150.117C139.637 150.117 116.353 156.229 111.819 158.215Z" fill="white" stroke="#263238" stroke-linecap="round" stroke-linejoin="round"/>
<path d="M142.377 167.748L150.285 164.688" stroke="#263238" stroke-linecap="round" stroke-linejoin="round"/>
<path d="M123.685 168.651L107.87 165.771C107.87 165.771 108.05 170.809 110.566 173.688C113.082 176.568 118.293 176.929 120.268 176.207C122.243 175.485 121.882 169.906 124.046 170.447C126.209 170.989 125.84 173.327 126.742 175.485C127.643 177.643 128.536 177.462 132.486 178.004C136.435 178.545 140.213 178.184 141.655 176.207C143.098 174.23 143.81 168.109 142.377 167.748C140.943 167.387 136.083 168.109 130.872 168.29C125.66 168.47 123.685 168.651 123.685 168.651Z" fill="white"/>
<mask id="mask3_668_4542" style="mask-type:luminance" maskUnits="userSpaceOnUse" x="107" y="165" width="37" height="14">
<path d="M123.685 168.651L107.87 165.771C107.87 165.771 108.05 170.809 110.566 173.688C113.082 176.568 118.293 176.929 120.268 176.207C122.243 175.485 121.882 169.906 124.046 170.447C126.209 170.989 125.84 173.327 126.742 175.485C127.643 177.643 128.536 177.462 132.486 178.004C136.435 178.545 140.213 178.184 141.655 176.207C143.098 174.23 143.81 168.109 142.377 167.748C140.943 167.387 136.083 168.109 130.872 168.29C125.66 168.47 123.685 168.651 123.685 168.651Z" fill="white"/>
</mask>
<g mask="url(#mask3_668_4542)">
<path d="M132.486 178.004C136.444 178.545 140.213 178.184 141.656 176.207C142.695 174.771 143.373 171.178 143.098 169.158L127.644 176.895C128.425 177.6 129.696 177.625 132.486 178.004Z" fill="#3652AD"/>
<path d="M120.268 176.207C122.243 175.485 121.882 169.906 124.046 170.447C125.325 170.774 125.72 171.737 126.02 172.923L131.464 168.264H130.871C129.326 168.315 128.064 168.367 127.059 168.419L111.416 174.436C112.681 175.344 114.125 175.972 115.651 176.277C117.178 176.582 118.752 176.558 120.268 176.207Z" fill="#3652AD"/>
</g>
<path d="M123.685 168.651L107.87 165.771C107.87 165.771 108.05 170.809 110.566 173.688C113.082 176.568 118.293 176.929 120.268 176.207C122.243 175.485 121.882 169.906 124.046 170.447C126.209 170.989 125.84 173.327 126.742 175.485C127.643 177.643 128.536 177.462 132.486 178.004C136.435 178.545 140.213 178.184 141.655 176.207C143.098 174.23 143.81 168.109 142.377 167.748C140.943 167.387 136.083 168.109 130.872 168.29C125.66 168.47 123.685 168.651 123.685 168.651Z" stroke="#263238" stroke-linecap="round" stroke-linejoin="round"/>
<path d="M122.603 174.411C122.603 174.411 122.423 179.087 122.423 181.967C122.423 184.847 123.505 184.847 125.479 184.666C126.579 184.598 127.638 184.223 128.536 183.583" stroke="#263238" stroke-linecap="round" stroke-linejoin="round"/>
<path d="M128.897 189.712C128.897 189.712 132.666 184.675 136.444 185.208C140.222 185.741 140.213 189.171 138.239 190.434C136.264 191.698 131.233 192.412 129.97 192.05C128.708 191.689 128.176 190.426 128.897 189.712Z" stroke="#263238" stroke-linecap="round" stroke-linejoin="round"/>
<path d="M138.419 186.463C138.419 186.463 133.748 190.426 129.077 190.598" stroke="#263238" stroke-linecap="round" stroke-linejoin="round"/>
<path d="M124.578 164.507C124.578 164.507 126.913 167.026 127.815 166.313C128.716 165.599 131.953 162.35 135.723 162.014C139.492 161.679 140.015 162.375 139.5 161.653C138.985 160.931 136.444 159.676 133.387 160.037C130.331 160.398 128.176 163.476 127.094 163.992C126.298 164.329 125.443 164.504 124.578 164.507Z" fill="#263238" stroke="#263238" stroke-linecap="round" stroke-linejoin="round"/>
<path d="M120.449 163.794C120.449 163.794 120.088 165.229 119.547 165.41C119.006 165.591 118.826 165.591 115.778 164.688C112.73 163.785 111.82 163.613 111.82 163.613C111.82 163.613 111.64 162.169 113.795 161.989C115.95 161.808 118.654 163.433 118.654 163.433C118.654 163.433 119.908 164.327 120.449 163.794Z" fill="#263238" stroke="#263238" stroke-linecap="round" stroke-linejoin="round"/>
<path d="M141.475 139.5C141.475 139.5 149.562 142.939 150.284 156.409L151.898 156.229C151.899 152.086 151.042 147.988 149.382 144.194C146.686 138.417 141.475 139.5 141.475 139.5Z" fill="white" stroke="#263238" stroke-linecap="round" stroke-linejoin="round"/>
<path d="M148.532 162.066C147.936 162.051 147.364 161.83 146.912 161.439C146.461 161.049 146.159 160.514 146.058 159.926C145.957 159.338 146.062 158.733 146.357 158.214C146.652 157.695 147.117 157.294 147.674 157.08L155.238 154.372C155.856 154.225 156.506 154.311 157.064 154.614C157.623 154.918 158.049 155.417 158.262 156.016C158.475 156.615 158.46 157.272 158.218 157.86C157.977 158.449 157.527 158.927 156.955 159.203L149.391 161.911C149.116 162.012 148.825 162.065 148.532 162.066Z" fill="white" stroke="#263238" stroke-miterlimit="10"/>
<path d="M149.306 159.178C149.718 160.287 149.391 161.438 148.567 161.757C147.743 162.075 146.738 161.421 146.318 160.304C145.897 159.186 146.232 158.043 147.056 157.725C147.88 157.407 148.885 158.069 149.306 159.178Z" fill="white" stroke="#263238" stroke-linecap="round" stroke-linejoin="round"/>
<path d="M148.404 173.499C148.404 173.955 148.223 174.393 147.901 174.715C147.579 175.037 147.142 175.219 146.687 175.219C146.231 175.219 145.795 175.037 145.473 174.715C145.151 174.393 144.97 173.955 144.97 173.499C144.97 172.545 146.687 168.745 146.687 168.745C146.687 168.745 148.404 172.519 148.404 173.499Z" stroke="#263238" stroke-linecap="round" stroke-linejoin="round"/>
<path d="M239.989 49.5297C238.065 51.61 239.345 56.0974 238.065 62.6737C236.786 69.25 228.775 92.9848 224.766 104.212C220.756 115.439 222.044 130.672 222.044 130.672C218.754 131.866 215.631 133.481 212.754 135.477C208.916 138.366 202.992 142.354 202.992 142.354L201.352 141.572C201.352 141.572 210.325 132.589 213.046 127.457C215.768 122.325 216.566 122.006 215.124 118.963C213.682 115.92 201.996 101.169 196.871 94.5838C191.745 87.9989 185.494 76.9438 184.181 73.7373C183.009 70.9817 182.951 67.8787 184.018 65.0807C184.979 62.837 193.951 58.3497 194.115 51.4553C194.278 44.5609 189.822 46.478 185.623 47.9222C181.425 49.3664 170.246 60.2753 167.687 67.1696C165.129 74.064 167.361 76.3077 171.851 80.477C176.342 84.6463 181.811 93.1482 184.696 101.169C187.581 109.189 191.264 116.883 197.188 118.972C197.188 118.972 187.744 123.459 181.493 127.947C175.243 132.434 172.203 134.523 172.203 134.523C172.203 134.523 163.712 136.93 160.51 141.099C159.114 142.886 157.843 144.768 156.706 146.73C160.364 145.389 169.224 143.334 179.57 149.429C192.406 156.986 195.128 169.528 195.128 177.256L200.228 172.683C209.455 168.591 217.743 162.642 224.577 155.206C235.627 143.016 237.387 137.085 238.512 126.176C239.637 115.267 244.118 72.1384 244.273 71.4937C244.427 70.8489 245.878 67.6511 247.802 67.3244C249.725 66.9977 260.294 76.3077 261.736 77.2705C263.179 78.2333 266.029 78.7147 266.373 75.663C266.716 72.6112 264.132 65.0807 255.967 56.9055C247.802 48.7302 241.869 47.4408 239.989 49.5297Z" fill="#263238" stroke="#263238" stroke-linecap="round" stroke-linejoin="round"/>
<path d="M184.533 135.795C184.533 135.795 201.516 138.047 210.48 151.836" stroke="white" stroke-linecap="round" stroke-linejoin="round"/>
<path d="M266.373 75.6629C266.7 72.6197 264.132 65.0806 255.967 56.9054C247.802 48.7301 241.869 47.4493 239.955 49.5296C238.04 51.61 239.311 56.0973 238.031 62.6736C237.86 63.5333 237.559 64.754 237.173 66.181C239.054 65.9227 240.963 66.3898 242.513 67.4876C243.486 68.1105 244.355 68.882 245.089 69.7743C245.724 68.6997 246.677 67.5134 247.811 67.3243C249.725 67.0062 260.303 76.3076 261.745 77.2704C263.188 78.2332 266.056 78.7146 266.373 75.6629Z" fill="#263238" stroke="#263238" stroke-linecap="round" stroke-linejoin="round"/>
<path d="M171.886 80.477C172.862 81.4016 173.78 82.3864 174.633 83.4256C176.9 83.4414 179.129 82.8414 181.082 81.6894C183.036 80.5374 184.641 78.8765 185.726 76.8836C185.031 75.5512 184.498 74.4423 184.215 73.7373C183.044 70.9817 182.985 67.8787 184.052 65.0807C185.013 62.837 193.986 58.3497 194.149 51.4553C194.312 44.5609 189.856 46.478 185.657 47.9222C181.459 49.3664 170.28 60.2753 167.722 67.1696C165.163 74.064 167.395 76.3077 171.886 80.477Z" fill="#263238" stroke="#263238" stroke-linecap="round" stroke-linejoin="round"/>
<path d="M185.658 47.9221C181.494 49.3663 170.281 60.2752 167.722 67.1696C165.704 72.5767 166.666 75.1299 169.336 77.9839C170.554 77.6573 171.693 77.0871 172.685 76.3076C176.531 73.4192 178.128 68.2871 180.532 66.5248C181.897 65.5191 184.353 63.9459 186.843 62.2696C189.813 59.7508 194.038 56.1661 194.149 51.4552C194.304 44.5523 189.822 46.4779 185.658 47.9221Z" fill="white" stroke="#263238" stroke-linecap="round" stroke-linejoin="round"/>
<path d="M185.657 47.922C181.493 49.3662 170.28 60.2751 167.722 67.1695C166.288 71.0121 166.356 73.4105 167.473 75.508C168.333 75.6623 169.216 75.6269 170.062 75.4042C170.907 75.1815 171.693 74.7769 172.367 74.2186C177.647 70.376 175.724 66.3614 180.369 64.1177C185.163 61.764 189.54 58.6393 193.325 54.8679C193.839 53.7914 194.131 52.6218 194.183 51.4293C194.303 44.5522 189.822 46.4778 185.657 47.922Z" fill="white" stroke="#263238" stroke-linecap="round" stroke-linejoin="round"/>
<path d="M266.373 75.6629C266.7 72.6197 264.132 65.0806 255.967 56.9054C247.802 48.7301 241.869 47.4493 239.955 49.5296C239.388 50.2141 239.039 51.0521 238.95 51.9366C240.461 51.3951 243.003 51.077 246.36 52.5728C251.966 55.1517 262.209 67.969 263.815 71.485C264.751 73.5481 264.484 76.0841 264.261 77.9753C265.291 77.9581 266.202 77.3048 266.373 75.6629Z" fill="white" stroke="#263238" stroke-linecap="round" stroke-linejoin="round"/>
<path d="M202.357 165.573L194.861 171.66C194.788 171.721 194.73 171.799 194.691 171.887C194.652 171.975 194.634 172.071 194.638 172.167L194.896 178.803C194.903 178.918 194.941 179.028 195.006 179.122C195.071 179.216 195.16 179.291 195.265 179.338C195.369 179.385 195.484 179.402 195.598 179.388C195.711 179.375 195.819 179.33 195.909 179.259L203.636 173.018C203.721 172.964 203.792 172.891 203.843 172.804C203.894 172.717 203.923 172.62 203.928 172.519L203.413 166.012C203.413 165.889 203.377 165.769 203.309 165.667C203.241 165.565 203.145 165.485 203.032 165.438C202.918 165.391 202.794 165.379 202.674 165.403C202.554 165.427 202.443 165.486 202.357 165.573Z" fill="#263238" stroke="#263238" stroke-linecap="round" stroke-linejoin="round"/>
<path d="M198.949 97.4377C198.72 65.2067 198.72 33.3654 198.949 1.91382" stroke="#263238" stroke-linecap="round" stroke-linejoin="round"/>
<path d="M198.948 168.195V97.4377" stroke="white" stroke-linecap="round" stroke-linejoin="round"/>
<path d="M152.182 148.63C152.353 99.6299 152.353 50.6301 152.182 1.9397" stroke="#263238" stroke-linecap="round" stroke-linejoin="round"/>
<path d="M144.497 234.061C140.779 232.076 138.727 231.663 137.628 231.646C136.237 234.087 134.658 236.804 133.189 239.297C135.834 239.726 139.783 240.715 142.222 242.899C143.571 244.095 144.763 245.458 145.768 246.956C147.811 245.71 150.061 244.377 152.568 243.07C151.228 240.431 148.567 236.236 144.497 234.061Z" fill="#263238" stroke="#263238" stroke-linecap="round" stroke-linejoin="round"/>
<path d="M145.39 228.878L132.82 244.025L140.505 248.925L155.401 234.001L145.39 228.878Z" fill="#263238" stroke="#263238" stroke-linecap="round" stroke-linejoin="round"/>
<path d="M146.086 231.517L136.624 242.709L140.342 244.884L151.211 233.846L146.086 231.517Z" fill="white" stroke="#263238" stroke-linecap="round" stroke-linejoin="round"/>
<path d="M62.6659 247.309C62.7518 243.354 60.9488 237.569 60.5109 236.314C59.5064 233.21 57.2741 231.929 55.5054 233.537C54.0973 234.835 54.9473 237.749 55.2821 239.314C55.7509 242.12 56.4166 244.889 57.274 247.601C57.6604 248.684 58.1326 250.739 59.4634 251.039C61.8074 251.538 62.6058 249.784 62.6659 247.309Z" fill="white" stroke="#263238" stroke-linecap="round" stroke-linejoin="round"/>
<path d="M57.7462 250.627C57.8149 247.652 56.4325 243.311 56.132 242.366C55.3679 240.036 53.6937 239.073 52.3714 240.285C51.3068 241.257 51.9507 243.449 52.1997 244.626C52.5513 246.734 53.0506 248.813 53.6937 250.85C53.9856 251.658 54.3376 253.197 55.3421 253.429C57.1108 253.79 57.7032 252.466 57.7462 250.627Z" fill="white" stroke="#263238" stroke-linecap="round" stroke-linejoin="round"/>
<path d="M72.3932 237.569C72.3932 237.569 76.0336 242.056 79.1073 242.477C80.2501 242.581 81.3527 242.951 82.3264 243.559C83.3002 244.166 84.1179 244.994 84.7138 245.976C85.6926 247.523 82.4729 252.707 82.327 254.53C82.181 256.352 80.9275 256.636 79.2533 255.656C77.579 254.676 77.0124 252.011 77.5361 250.042C78.0598 248.074 78.3947 247.523 77.9568 247.377C76.243 246.926 74.5597 246.366 72.9169 245.701C71.9725 245.142 72.3932 237.569 72.3932 237.569Z" fill="white" stroke="#263238" stroke-linecap="round" stroke-linejoin="round"/>
<path d="M68.3154 246.088C68.4012 242.133 66.5982 236.348 66.1603 235.093C65.1558 231.99 62.9149 230.709 61.1548 232.316C59.7467 233.614 60.5967 236.529 60.9315 238.093C61.4004 240.899 62.066 243.668 62.9235 246.38C63.3098 247.463 63.782 249.518 65.1129 249.819C67.4568 250.3 68.2724 248.546 68.3154 246.088Z" fill="white" stroke="#263238" stroke-linecap="round" stroke-linejoin="round"/>
<path d="M75.0289 247.67C75.1147 243.715 73.3117 237.921 72.8739 236.675C71.8693 233.571 69.6284 232.29 67.8683 233.898C66.4602 235.187 67.3102 238.11 67.6365 239.675C68.1082 242.481 68.7767 245.25 69.637 247.962C70.0234 249.036 70.4956 251.1 71.8264 251.4C74.1703 251.882 74.9688 250.128 75.0289 247.67Z" fill="white" stroke="#263238" stroke-linecap="round" stroke-linejoin="round"/>
<path d="M127.927 265.714C129.138 261.338 132.958 255.922 133.8 254.753C135.869 251.873 138.625 251.598 139.93 254.246C140.978 256.378 139.123 259.146 138.264 260.693C136.86 263.497 135.25 266.192 133.448 268.757C132.692 269.737 131.525 271.765 130.013 271.396C127.429 270.751 127.172 268.43 127.927 265.714Z" fill="white" stroke="#263238" stroke-linecap="round" stroke-linejoin="round"/>
<path d="M134.443 268.456C135.353 265.172 138.221 261.106 138.848 260.229C140.41 258.063 142.471 257.856 143.45 259.851C144.24 261.45 142.849 263.521 142.205 264.682C141.154 266.79 139.946 268.816 138.59 270.742C138.015 271.482 137.148 273.003 136.015 272.72C134.066 272.238 133.877 270.519 134.443 268.456Z" fill="white" stroke="#263238" stroke-linecap="round" stroke-linejoin="round"/>
<path d="M123.479 246.758C123.479 246.758 118.207 249.836 114.85 248.736C111.493 247.635 109.39 248.555 107.861 249.741C106.333 250.928 107.973 258.243 107.518 260.315C107.063 262.387 108.291 263.324 110.36 263.092C112.429 262.859 113.897 260.238 113.966 257.805C114.035 255.372 113.923 254.615 114.404 254.676C114.885 254.736 119.006 255.535 120.216 255.381C121.427 255.226 123.479 246.758 123.479 246.758Z" fill="white" stroke="#263238" stroke-linecap="round" stroke-linejoin="round"/>
<path d="M124.939 258.149C126.15 253.773 129.962 248.357 130.803 247.188C132.881 244.308 135.628 244.033 136.934 246.69C137.981 248.813 136.135 251.581 135.268 253.128C133.87 255.933 132.262 258.629 130.46 261.192C129.696 262.18 128.537 264.201 127.025 263.831C124.424 263.186 124.166 260.874 124.939 258.149Z" fill="white" stroke="#263238" stroke-linecap="round" stroke-linejoin="round"/>
<path d="M117.401 256.49C118.611 252.114 122.432 246.698 123.273 245.529C125.343 242.649 128.099 242.374 129.404 245.022C130.451 247.154 128.597 249.922 127.738 251.469C126.334 254.273 124.724 256.968 122.921 259.533C122.166 260.513 120.998 262.541 119.487 262.172C116.903 261.527 116.645 259.206 117.401 256.49Z" fill="white" stroke="#263238" stroke-linecap="round" stroke-linejoin="round"/>
<path d="M32.7871 230.245L48.0785 272.101L130.082 300.753L125.385 260.771L32.7871 230.245Z" fill="#3652AD" stroke="#263238" stroke-linecap="round" stroke-linejoin="round"/>
<path d="M217.597 206.406H243.655" stroke="#263238" stroke-linecap="round" stroke-linejoin="round"/>
<path d="M198.991 206.406H208.092" stroke="#263238" stroke-linecap="round" stroke-linejoin="round"/>
<path d="M239.104 211.169H243.655" stroke="#263238" stroke-linecap="round" stroke-linejoin="round"/>
<path d="M226.286 211.169H235.387" stroke="#263238" stroke-linecap="round" stroke-linejoin="round"/>
<path d="M198.991 211.169H220.078" stroke="#263238" stroke-linecap="round" stroke-linejoin="round"/>
<path d="M220.499 215.923H243.655" stroke="#263238" stroke-linecap="round" stroke-linejoin="round"/>
<path d="M198.991 215.923H215.536" stroke="#263238" stroke-linecap="round" stroke-linejoin="round"/>
<path d="M233.729 220.685H243.655" stroke="#263238" stroke-linecap="round" stroke-linejoin="round"/>
<path d="M208.917 220.685H229.592" stroke="#263238" stroke-linecap="round" stroke-linejoin="round"/>
<path d="M198.991 220.685H204.366" stroke="#263238" stroke-linecap="round" stroke-linejoin="round"/>
<path d="M217.597 224.846H243.655" stroke="#263238" stroke-linecap="round" stroke-linejoin="round"/>
<path d="M198.991 224.846H208.092" stroke="#263238" stroke-linecap="round" stroke-linejoin="round"/>
<path d="M239.104 229.608H243.655" stroke="#263238" stroke-linecap="round" stroke-linejoin="round"/>
<path d="M226.286 229.608H235.387" stroke="#263238" stroke-linecap="round" stroke-linejoin="round"/>
<path d="M198.991 229.608H220.078" stroke="#263238" stroke-linecap="round" stroke-linejoin="round"/>
<path d="M220.499 234.362H243.655" stroke="#263238" stroke-linecap="round" stroke-linejoin="round"/>
<path d="M198.991 234.362H215.536" stroke="#263238" stroke-linecap="round" stroke-linejoin="round"/>
<path d="M239.104 243.302H243.655" stroke="#263238" stroke-linecap="round" stroke-linejoin="round"/>
<path d="M226.286 243.302H235.387" stroke="#263238" stroke-linecap="round" stroke-linejoin="round"/>
<path d="M198.991 243.302H220.078" stroke="#263238" stroke-linecap="round" stroke-linejoin="round"/>
<path d="M220.499 248.056H243.655" stroke="#263238" stroke-linecap="round" stroke-linejoin="round"/>
<path d="M198.991 248.056H215.536" stroke="#263238" stroke-linecap="round" stroke-linejoin="round"/>
<path d="M233.729 252.819H243.655" stroke="#263238" stroke-linecap="round" stroke-linejoin="round"/>
<path d="M208.917 252.819H229.592" stroke="#263238" stroke-linecap="round" stroke-linejoin="round"/>
<path d="M198.991 252.819H204.366" stroke="#263238" stroke-linecap="round" stroke-linejoin="round"/>
<path d="M217.597 256.979H243.655" stroke="#263238" stroke-linecap="round" stroke-linejoin="round"/>
<path d="M198.991 256.979H208.092" stroke="#263238" stroke-linecap="round" stroke-linejoin="round"/>
<path d="M239.104 261.733H243.655" stroke="#263238" stroke-linecap="round" stroke-linejoin="round"/>
<path d="M226.286 261.733H235.387" stroke="#263238" stroke-linecap="round" stroke-linejoin="round"/>
<path d="M198.991 261.733H220.078" stroke="#263238" stroke-linecap="round" stroke-linejoin="round"/>
<path d="M249.09 270.416L252.438 255.303L255.795 264.819L260.269 223.969L266.416 255.303L273.68 201.016L281.51 263.693L284.858 257.538L286.533 269.857" stroke="#263238" stroke-linecap="round" stroke-linejoin="round"/>
<path d="M202.503 197.217L221.727 177.978L235.867 190.683L247.836 179.792L265.6 193.228L284.824 172.889" stroke="#263238" stroke-linecap="round" stroke-linejoin="round"/>
<path d="M224.26 177.978C224.268 177.464 224.123 176.96 223.843 176.529C223.564 176.099 223.162 175.761 222.689 175.561C222.217 175.36 221.696 175.306 221.192 175.404C220.688 175.502 220.226 175.748 219.863 176.112C219.5 176.475 219.254 176.938 219.156 177.443C219.058 177.947 219.112 178.469 219.313 178.942C219.513 179.415 219.85 179.817 220.28 180.097C220.71 180.377 221.214 180.522 221.727 180.514C222.395 180.503 223.033 180.232 223.505 179.759C223.978 179.286 224.248 178.647 224.26 177.978Z" fill="#3652AD" stroke="#263238" stroke-linecap="round" stroke-linejoin="round"/>
<path d="M250.369 179.792C250.369 179.28 250.217 178.78 249.932 178.355C249.647 177.93 249.242 177.599 248.769 177.405C248.296 177.211 247.776 177.163 247.275 177.266C246.774 177.369 246.315 177.619 245.957 177.984C245.598 178.349 245.357 178.812 245.262 179.315C245.168 179.819 245.225 180.338 245.426 180.809C245.628 181.279 245.965 181.679 246.394 181.957C246.823 182.235 247.325 182.379 247.836 182.371C248.512 182.359 249.156 182.083 249.63 181.6C250.104 181.118 250.369 180.468 250.369 179.792Z" fill="#3652AD" stroke="#263238" stroke-linecap="round" stroke-linejoin="round"/>
<path d="M265.6 195.773C267.004 195.773 268.141 194.633 268.141 193.228C268.141 191.823 267.004 190.683 265.6 190.683C264.196 190.683 263.059 191.823 263.059 193.228C263.059 194.633 264.196 195.773 265.6 195.773Z" fill="#3652AD" stroke="#263238" stroke-linecap="round" stroke-linejoin="round"/>
<path d="M287.005 172.889C287.005 172.379 286.854 171.88 286.571 171.456C286.288 171.032 285.886 170.701 285.415 170.506C284.944 170.311 284.426 170.26 283.927 170.359C283.427 170.459 282.968 170.705 282.608 171.065C282.248 171.426 282.002 171.885 281.903 172.386C281.804 172.886 281.855 173.404 282.05 173.876C282.245 174.347 282.575 174.75 282.998 175.033C283.422 175.316 283.92 175.468 284.429 175.468C285.112 175.468 285.768 175.196 286.251 174.712C286.734 174.229 287.005 173.573 287.005 172.889Z" fill="#3652AD" stroke="#263238" stroke-linecap="round" stroke-linejoin="round"/>
<path d="M202.503 199.761C203.907 199.761 205.045 198.622 205.045 197.217C205.045 195.811 203.907 194.672 202.503 194.672C201.1 194.672 199.962 195.811 199.962 197.217C199.962 198.622 201.1 199.761 202.503 199.761Z" fill="#3652AD" stroke="#263238" stroke-linecap="round" stroke-linejoin="round"/>
<path d="M235.868 192.497C237.271 192.497 238.409 191.358 238.409 189.953C238.409 188.547 237.271 187.408 235.868 187.408C234.464 187.408 233.326 188.547 233.326 189.953C233.326 191.358 234.464 192.497 235.868 192.497Z" fill="#3652AD" stroke="#263238" stroke-linecap="round" stroke-linejoin="round"/>
<path d="M64.7949 114.132L72.2646 109.816" stroke="#263238" stroke-linecap="round" stroke-linejoin="round"/>
<path d="M28.374 109.817V135.185L50.3194 147.873L72.2648 135.185V109.817L50.3194 97.1282L28.374 109.817Z" stroke="#263238" stroke-linecap="round" stroke-linejoin="round"/>
<path d="M35.835 114.132V130.869L50.3192 139.242L64.7949 130.869V114.132L50.3192 105.759L35.835 114.132Z" stroke="#263238" stroke-linecap="round" stroke-linejoin="round"/>
<path d="M50.3193 97.1281V78.2847" stroke="#263238" stroke-linecap="round" stroke-linejoin="round"/>
<path d="M50.3196 81.0527C52.3634 81.0527 54.0201 79.3939 54.0201 77.3477C54.0201 75.3014 52.3634 73.6426 50.3196 73.6426C48.2759 73.6426 46.6191 75.3014 46.6191 77.3477C46.6191 79.3939 48.2759 81.0527 50.3196 81.0527Z" fill="#3652AD" stroke="#263238" stroke-linecap="round" stroke-linejoin="round"/>
<path d="M50.3193 147.34V166.184" stroke="#263238" stroke-linecap="round" stroke-linejoin="round"/>
<path d="M46.6104 167.12C46.6087 167.855 46.8247 168.574 47.2313 169.186C47.6378 169.798 48.2165 170.275 48.8941 170.558C49.5717 170.84 50.3177 170.915 51.0378 170.772C51.7578 170.63 52.4195 170.277 52.9391 169.758C53.4587 169.239 53.8128 168.577 53.9566 167.857C54.1004 167.136 54.0275 166.389 53.747 165.71C53.4665 165.031 52.9911 164.45 52.381 164.042C51.7708 163.633 51.0534 163.415 50.3194 163.415C49.3372 163.415 48.3951 163.805 47.6998 164.5C47.0044 165.195 46.6126 166.137 46.6104 167.12Z" fill="#3652AD" stroke="#263238" stroke-linecap="round" stroke-linejoin="round"/>
<path d="M35.8351 114.132L28.374 109.816" stroke="#263238" stroke-linecap="round" stroke-linejoin="round"/>
<path d="M36.4707 130.998L50.9464 122.625L64.7953 130.869" stroke="#263238" stroke-linecap="round" stroke-linejoin="round"/>
<path d="M50.9463 122.625V105.759" stroke="#263238" stroke-linecap="round" stroke-linejoin="round"/>
<path d="M95.4121 40.4602H105.337" stroke="#263238" stroke-linecap="round" stroke-linejoin="round"/>
<path d="M70.5986 40.4602H91.2819" stroke="#263238" stroke-linecap="round" stroke-linejoin="round"/>
<path d="M60.6738 40.4602H66.0486" stroke="#263238" stroke-linecap="round" stroke-linejoin="round"/>
<path d="M79.2881 44.6208H105.337" stroke="#263238" stroke-linecap="round" stroke-linejoin="round"/>
<path d="M60.6738 44.6208H69.7748" stroke="#263238" stroke-linecap="round" stroke-linejoin="round"/>
<path d="M100.796 49.3833H105.338" stroke="#263238" stroke-linecap="round" stroke-linejoin="round"/>
<path d="M87.9678 49.3833H97.0687" stroke="#263238" stroke-linecap="round" stroke-linejoin="round"/>
<path d="M60.6738 49.3833H81.7692" stroke="#263238" stroke-linecap="round" stroke-linejoin="round"/>
<path d="M82.1816 54.1372H105.338" stroke="#263238" stroke-linecap="round" stroke-linejoin="round"/>
<path d="M60.6738 54.1372H77.2187" stroke="#263238" stroke-linecap="round" stroke-linejoin="round"/>
<path d="M95.4121 58.8997H105.337" stroke="#263238" stroke-linecap="round" stroke-linejoin="round"/>
<path d="M70.5986 58.8997H91.2819" stroke="#263238" stroke-linecap="round" stroke-linejoin="round"/>
<path d="M60.6738 58.8997H66.0486" stroke="#263238" stroke-linecap="round" stroke-linejoin="round"/>
<path d="M79.2881 63.0603H105.337" stroke="#263238" stroke-linecap="round" stroke-linejoin="round"/>
<path d="M60.6738 63.0603H69.7748" stroke="#263238" stroke-linecap="round" stroke-linejoin="round"/>
<path d="M100.796 67.8142H105.338" stroke="#263238" stroke-linecap="round" stroke-linejoin="round"/>
<path d="M87.9678 67.8142H97.0687" stroke="#263238" stroke-linecap="round" stroke-linejoin="round"/>
<path d="M60.6738 67.8142H81.7692" stroke="#263238" stroke-linecap="round" stroke-linejoin="round"/>
<path d="M82.1816 72.5767H105.338" stroke="#263238" stroke-linecap="round" stroke-linejoin="round"/>
<path d="M60.6738 72.5767H77.2187" stroke="#263238" stroke-linecap="round" stroke-linejoin="round"/>
<path d="M95.4121 77.3306H105.337" stroke="#263238" stroke-linecap="round" stroke-linejoin="round"/>
<path d="M70.5986 77.3306H91.2819" stroke="#263238" stroke-linecap="round" stroke-linejoin="round"/>
<path d="M60.6738 77.3306H66.0486" stroke="#263238" stroke-linecap="round" stroke-linejoin="round"/>
<path d="M79.2881 81.4998H105.337" stroke="#263238" stroke-linecap="round" stroke-linejoin="round"/>
<path d="M60.6738 81.4998H69.7748" stroke="#263238" stroke-linecap="round" stroke-linejoin="round"/>
<path d="M105.338 86.2537H100.796" stroke="#263238" stroke-linecap="round" stroke-linejoin="round"/>
<path d="M87.9678 86.2537H97.0687" stroke="#263238" stroke-linecap="round" stroke-linejoin="round"/>
<path d="M60.6738 86.2537H81.7692" stroke="#263238" stroke-linecap="round" stroke-linejoin="round"/>
<path d="M82.1816 91.0161H105.338" stroke="#263238" stroke-linecap="round" stroke-linejoin="round"/>
<path d="M60.6738 91.0161H77.2187" stroke="#263238" stroke-linecap="round" stroke-linejoin="round"/>
<path d="M95.4121 95.7698H105.337" stroke="#263238" stroke-linecap="round" stroke-linejoin="round"/>
<path d="M70.5986 95.7698H91.2819" stroke="#263238" stroke-linecap="round" stroke-linejoin="round"/>
<path d="M60.6738 95.7698H66.0486" stroke="#263238" stroke-linecap="round" stroke-linejoin="round"/>
</svg>
