<svg width="500" height="500" viewBox="0 0 500 500" fill="none" xmlns="http://www.w3.org/2000/svg">
<path d="M425 239C425.94 233.61 427.45 228.28 428.53 222.79C430.484 212.191 430.636 201.339 428.98 190.69C425.832 170.254 417.707 150.906 405.32 134.35C392.14 116.67 372.32 102.35 351.02 107.76C328.86 113.36 310.1 130.45 288.55 138.25C252.05 151.45 215.1 127.39 178.32 128.25C146.56 128.94 113.24 140.34 92.3198 168.53C83.7798 180.04 77.8298 195.53 79.8498 210.77C82.3198 229.34 95.9498 243.47 106.11 257.21C121.69 278.27 127.59 301.21 114.48 325.79C105.62 342.45 93.6998 357.17 94.7298 377.86C96.3798 410.96 126.94 430.95 152.14 439.86C177.74 448.92 206.81 449.86 232.26 439.66C254.87 430.56 270.65 410.66 291.26 397.96C309.327 386.768 330.676 382.082 351.77 384.68C373.55 387.28 396.5 391.86 417.55 382.47C437.69 373.47 447.23 349.42 447.98 326.37C448.404 314.87 446.671 303.392 442.87 292.53C438.2 279.47 427.87 269.28 424.96 255.43C423.917 250.002 423.931 244.423 425 239Z" fill="#3652AD"/>
<path opacity="0.7" d="M425 239C425.94 233.61 427.45 228.28 428.53 222.79C430.484 212.191 430.636 201.339 428.98 190.69C425.832 170.254 417.707 150.906 405.32 134.35C392.14 116.67 372.32 102.35 351.02 107.76C328.86 113.36 310.1 130.45 288.55 138.25C252.05 151.45 215.1 127.39 178.32 128.25C146.56 128.94 113.24 140.34 92.3198 168.53C83.7798 180.04 77.8298 195.53 79.8498 210.77C82.3198 229.34 95.9498 243.47 106.11 257.21C121.69 278.27 127.59 301.21 114.48 325.79C105.62 342.45 93.6998 357.17 94.7298 377.86C96.3798 410.96 126.94 430.95 152.14 439.86C177.74 448.92 206.81 449.86 232.26 439.66C254.87 430.56 270.65 410.66 291.26 397.96C309.327 386.768 330.676 382.082 351.77 384.68C373.55 387.28 396.5 391.86 417.55 382.47C437.69 373.47 447.23 349.42 447.98 326.37C448.404 314.87 446.671 303.392 442.87 292.53C438.2 279.47 427.87 269.28 424.96 255.43C423.917 250.002 423.931 244.423 425 239Z" fill="white"/>
<path d="M367.66 77.2799C367.72 77.2799 369.51 72.5599 369.59 72.2799C370.5 68.6499 370.11 61.0999 366.59 58.8899C365.989 58.5496 365.324 58.3376 364.637 58.2672C363.949 58.1968 363.255 58.2697 362.597 58.4811C361.94 58.6925 361.333 59.0379 360.815 59.4955C360.298 59.9531 359.881 60.513 359.59 61.1399C358.28 63.7999 359.2 67.3299 360.46 69.8299C361.88 72.7099 367.66 77.2699 367.66 77.2799Z" fill="#3652AD"/>
<path d="M450.63 111.89C447.7 108.89 440.25 110.13 436.9 111.8C436.61 111.94 432.34 114.71 432.4 114.8L432.46 114.86C431.29 115.05 430.02 115.26 428.65 115.52C426.12 116.03 423.26 116.62 420.2 117.52C416.885 118.398 413.625 119.477 410.44 120.75C406.862 122.148 403.415 123.862 400.14 125.87L400.03 125.95C400.83 125.02 402.97 122.33 403.12 122.11C405.12 118.94 407.12 111.65 404.41 108.44C403.942 107.928 403.372 107.518 402.736 107.239C402.101 106.959 401.414 106.814 400.72 106.814C400.026 106.814 399.339 106.959 398.704 107.239C398.069 107.518 397.499 107.928 397.03 108.44C394.96 110.56 394.73 114.19 395.15 116.96C395.63 120.07 399.36 125.8 399.66 126.26C396.379 128.378 393.245 130.717 390.28 133.26C388.54 134.74 386.84 136.26 385.15 137.84C385.81 137.01 386.4 136.27 386.47 136.15C388.47 132.98 390.47 125.69 387.77 122.48C387.302 121.968 386.732 121.558 386.096 121.279C385.461 120.999 384.774 120.854 384.08 120.854C383.386 120.854 382.699 120.999 382.064 121.279C381.429 121.558 380.859 121.968 380.39 122.48C378.32 124.6 378.09 128.24 378.51 131C378.93 133.76 382.02 138.75 382.85 140L380.93 141.81C377.86 144.73 374.81 147.66 371.73 150.44C370.65 151.44 369.54 152.35 368.44 153.28C369.03 152.54 369.52 151.92 369.59 151.82C371.59 148.65 373.59 141.36 370.88 138.14C370.415 137.624 369.848 137.211 369.215 136.927C368.581 136.643 367.895 136.494 367.201 136.489C366.507 136.484 365.819 136.624 365.182 136.9C364.545 137.175 363.972 137.581 363.5 138.09C361.44 140.21 361.2 143.85 361.62 146.61C362.04 149.37 364.84 153.88 365.82 155.43C364.67 156.35 363.51 157.27 362.35 158.11C361.54 158.66 360.8 159.25 359.96 159.76L357.52 161.32C355.93 162.25 354.3 163.22 352.73 164.1C351.64 164.71 350.59 165.27 349.54 165.85C350.63 164.85 352.72 162.95 352.88 162.77C354.949 160.203 356.326 157.15 356.88 153.9C357.125 153.627 357.339 153.329 357.52 153.01C357.886 152.42 358.125 151.761 358.222 151.074C358.319 150.387 358.271 149.687 358.083 149.02C357.895 148.352 357.57 147.731 357.129 147.195C356.688 146.66 356.14 146.222 355.52 145.91C352.63 144.58 348.19 146.47 345.11 148.66C345.24 146.53 345.18 145.22 345.18 145.22L344.37 145.3L344.96 143.89C345.36 143.01 345.66 142.03 346.01 141.09C346.79 138.89 347.47 136.62 348.11 134.33C349.56 135.03 354.73 137.48 357.54 137.58C360.35 137.68 363.92 137.04 365.79 134.74C366.243 134.213 366.581 133.598 366.783 132.933C366.984 132.268 367.045 131.568 366.961 130.879C366.878 130.189 366.651 129.524 366.296 128.927C365.941 128.33 365.466 127.813 364.9 127.41C361.4 125.11 354.38 127.92 351.46 130.26C351.28 130.41 349.37 132.33 348.35 133.4C348.72 132.02 349.1 130.64 349.43 129.22C350.38 125.15 351.22 120.99 352.08 116.85C352.34 115.58 352.62 114.32 352.89 113.05C353.4 113.31 359.49 116.35 362.63 116.46C365.43 116.56 369.01 115.92 370.88 113.62C371.331 113.093 371.668 112.478 371.869 111.815C372.069 111.151 372.13 110.453 372.046 109.764C371.962 109.076 371.736 108.412 371.382 107.816C371.028 107.22 370.554 106.703 369.99 106.3C366.49 103.99 359.47 106.8 356.55 109.15C356.33 109.32 353.55 112.08 352.94 112.82C353.53 110.04 354.16 107.27 354.88 104.56C355.835 100.905 357.031 97.3171 358.46 93.82C358.7 93.94 365.04 97.14 368.26 97.25C371.05 97.36 374.64 96.71 376.51 94.41C376.961 93.8826 377.297 93.2673 377.497 92.6031C377.697 91.9389 377.756 91.2403 377.671 90.5519C377.587 89.8634 377.36 89.2001 377.005 88.6041C376.65 88.0081 376.175 87.4925 375.61 87.09C372.11 84.78 365.1 87.59 362.18 89.94C361.95 90.12 359.01 93.09 358.51 93.67C358.6 93.47 358.66 93.25 358.75 93.05C360.269 89.5591 362.1 86.2122 364.22 83.05C365.37 81.3 366.56 79.68 367.76 78.14C368.88 78.86 374.03 82.08 376.92 82.51C379.81 82.94 383.32 82.66 385.43 80.59C385.937 80.1153 386.339 79.5403 386.611 78.9016C386.884 78.2628 387.02 77.5744 387.011 76.8802C387.003 76.1859 386.85 75.501 386.562 74.8691C386.274 74.2372 385.858 73.6722 385.34 73.21C382.12 70.53 374.84 72.56 371.68 74.57C371.51 74.67 369.88 75.98 368.68 76.94C369.23 76.26 369.78 75.54 370.32 74.89C372.32 72.45 374.32 70.34 376.14 68.49C377.14 67.49 378.14 66.49 379.01 65.66C380.48 65.79 386.39 66.24 389.1 65.31C391.81 64.38 394.86 62.5 395.77 59.68C396.002 59.0258 396.094 58.3307 396.042 57.6387C395.99 56.9468 395.795 56.2732 395.469 55.6609C395.142 55.0486 394.692 54.5109 394.147 54.0821C393.601 53.6532 392.972 53.3426 392.3 53.17C388.2 52.28 382.67 57.44 380.79 60.67C380.63 60.95 378.6 65.62 378.67 65.67H378.76C377.88 66.47 376.95 67.35 375.95 68.32C374.11 70.14 372.06 72.21 369.95 74.62C367.675 77.1874 365.551 79.8853 363.59 82.7C361.381 85.8562 359.456 89.2027 357.84 92.7L357.78 92.83C357.94 91.61 358.25 88.19 358.24 87.92C358.16 84.18 355.8 77 351.78 75.8C351.11 75.6252 350.41 75.5918 349.726 75.7018C349.042 75.8118 348.388 76.0628 347.806 76.4389C347.224 76.815 346.726 77.308 346.345 77.8866C345.963 78.4652 345.706 79.1168 345.59 79.8C345.04 82.7 346.85 85.86 348.73 87.94C350.84 90.28 357.12 92.94 357.62 93.21C356.054 96.7822 354.734 100.457 353.67 104.21C353.03 106.4 352.46 108.62 351.91 110.86C352.01 109.8 352.09 108.86 352.08 108.72C352 104.98 349.64 97.8 345.62 96.6C344.95 96.4268 344.252 96.3946 343.569 96.5054C342.886 96.6161 342.233 96.8674 341.652 97.2434C341.071 97.6194 340.575 98.1118 340.194 98.6896C339.813 99.2674 339.557 99.9179 339.44 100.6C338.88 103.5 340.7 106.66 342.57 108.74C344.44 110.82 349.78 113.26 351.19 113.89C350.99 114.75 350.78 115.6 350.58 116.46C349.63 120.59 348.71 124.72 347.67 128.73C347.31 130.15 346.9 131.53 346.5 132.91C346.58 131.98 346.64 131.18 346.64 131.06C346.56 127.32 344.2 120.14 340.18 118.94C339.51 118.767 338.812 118.735 338.129 118.845C337.446 118.956 336.793 119.207 336.212 119.583C335.631 119.959 335.135 120.452 334.754 121.03C334.373 121.607 334.117 122.258 334 122.94C333.44 125.85 335.25 129.01 337.13 131.09C339.01 133.17 343.82 135.37 345.49 136.09C345.04 137.5 344.58 138.9 344.07 140.24C343.71 141.15 343.42 142.05 343 142.94L341.85 145.52C340.96 145.67 339.93 145.87 338.78 146.13C338.48 142.36 337.07 137.76 334.2 136.4C333.561 136.125 332.872 135.987 332.177 135.994C331.482 136.001 330.795 136.153 330.162 136.44C329.529 136.727 328.962 137.143 328.499 137.661C328.035 138.179 327.685 138.789 327.47 139.45C326.47 142.24 327.8 145.64 329.34 147.97C329.565 148.324 329.82 148.658 330.1 148.97C325.186 150.974 320.767 154.025 317.15 157.91C306.78 169.51 307.56 187.13 307.56 187.13C307.56 187.13 322.27 186.13 332.72 177.13C335.93 175.61 340.08 173.59 344.83 171.04C346.61 170.1 348.49 169.04 350.41 167.95C350.92 168.58 355.05 173.7 357.8 175.09C360.3 176.36 363.8 177.27 366.48 175.97C367.108 175.681 367.669 175.264 368.128 174.747C368.586 174.23 368.933 173.623 369.145 172.965C369.357 172.308 369.431 171.613 369.361 170.925C369.292 170.238 369.08 169.572 368.74 168.97C366.53 165.41 358.98 165.03 355.35 165.97C355.14 166.03 352.88 166.87 351.46 167.42C352.24 166.97 353.01 166.54 353.81 166.06C355.4 165.13 356.96 164.16 358.64 163.12L361.05 161.51C361.86 160.99 362.66 160.34 363.47 159.75C365.33 158.35 367.15 156.83 368.95 155.27C369.77 156.66 372.74 161.55 375.02 163.18C377.3 164.81 380.64 166.25 383.47 165.37C384.138 165.179 384.759 164.851 385.293 164.407C385.827 163.963 386.263 163.412 386.573 162.79C386.882 162.168 387.059 161.489 387.091 160.795C387.123 160.101 387.011 159.408 386.76 158.76C385.12 154.91 377.71 153.38 373.99 153.76C373.75 153.76 371.11 154.33 369.66 154.66C370.73 153.71 371.81 152.76 372.87 151.77C375.87 148.89 378.87 145.89 381.87 142.91C382.79 141.99 383.72 141.09 384.64 140.19C384.92 140.68 388.33 146.58 390.89 148.41C393.16 150.04 396.51 151.47 399.33 150.59C399.998 150.4 400.619 150.073 401.153 149.63C401.687 149.187 402.124 148.638 402.434 148.017C402.745 147.396 402.922 146.717 402.956 146.024C402.99 145.331 402.879 144.638 402.63 143.99C400.98 140.13 393.63 138.61 389.85 138.99C389.57 138.99 385.77 139.81 384.85 140.06C386.85 138.06 388.93 136.06 391.02 134.25C393.838 131.725 396.818 129.387 399.94 127.25C400.07 127.48 403.6 133.65 406.22 135.52C408.49 137.15 411.84 138.59 414.66 137.7C415.328 137.51 415.949 137.183 416.483 136.74C417.017 136.297 417.454 135.748 417.764 135.127C418.074 134.506 418.252 133.827 418.286 133.134C418.32 132.441 418.209 131.748 417.96 131.1C416.31 127.24 408.91 125.72 405.18 126.1C404.89 126.1 400.8 126.99 400.06 127.2C400.25 127.07 400.42 126.93 400.6 126.81C403.789 124.753 407.156 122.986 410.66 121.53C412.58 120.7 414.46 120.01 416.31 119.39C416.85 120.6 419.37 126.13 421.55 128.08C423.73 130.03 426.8 131.74 429.7 131.18C430.386 131.064 431.039 130.807 431.62 130.424C432.2 130.041 432.694 129.542 433.07 128.957C433.447 128.373 433.697 127.717 433.806 127.03C433.914 126.344 433.878 125.642 433.7 124.97C432.48 120.97 425.29 118.63 421.55 118.57C421.34 118.57 419.27 118.75 417.76 118.92C418.6 118.65 419.46 118.35 420.27 118.11C423.27 117.19 426.14 116.54 428.66 115.98C430.09 115.67 431.39 115.42 432.66 115.21C433.81 116.12 438.5 119.76 441.27 120.48C444.04 121.2 447.62 121.31 449.94 119.48C450.533 119.063 451.028 118.521 451.391 117.893C451.753 117.266 451.975 116.567 452.041 115.845C452.107 115.123 452.014 114.395 451.771 113.712C451.527 113.029 451.138 112.407 450.63 111.89ZM343.73 168.78C341.55 169.89 339.49 170.9 337.59 171.78C340.808 167.113 343.018 161.828 344.08 156.26C344.65 156.4 345.23 156.52 345.81 156.63C345.98 159.78 348.49 165.38 348.81 166.1C347.07 167.06 345.36 168 343.73 168.78Z" fill="#3652AD"/>
<path d="M421.1 115.31C423.86 112.78 427.71 106.31 425.96 102.47C425.648 101.85 425.21 101.302 424.675 100.861C424.14 100.42 423.518 100.095 422.851 99.9068C422.183 99.7187 421.483 99.6716 420.796 99.7685C420.109 99.8655 419.45 100.104 418.86 100.47C416.31 101.97 415.12 105.41 414.8 108.19C414.42 111.45 416.72 118.44 416.72 118.44C416.72 118.44 420.87 115.53 421.1 115.31Z" fill="#3652AD"/>
<path d="M299.999 84.1899C299.999 84.1899 278.649 105.85 278.539 132.69C278.429 159.53 299.539 181.36 299.539 181.36C299.539 181.36 320.909 159.7 320.999 132.87C321.089 106.04 299.999 84.1899 299.999 84.1899Z" fill="#3652AD"/>
<path d="M253.07 145.57C253.07 145.57 252.94 163.21 263.73 174.42C274.52 185.63 292.14 186.17 292.14 186.17C292.14 186.17 292.28 168.53 281.49 157.32C270.7 146.11 253.07 145.57 253.07 145.57Z" fill="#3652AD"/>
<g opacity="0.5">
<path d="M367.66 77.2799C367.72 77.2799 369.51 72.5599 369.59 72.2799C370.5 68.6499 370.11 61.0999 366.59 58.8899C365.989 58.5496 365.324 58.3376 364.637 58.2672C363.949 58.1968 363.255 58.2697 362.597 58.4811C361.94 58.6925 361.333 59.0379 360.815 59.4955C360.298 59.9531 359.881 60.513 359.59 61.1399C358.28 63.7999 359.2 67.3299 360.46 69.8299C361.88 72.7099 367.66 77.2699 367.66 77.2799Z" fill="white"/>
<path d="M450.63 111.89C447.7 108.89 440.25 110.13 436.9 111.8C436.61 111.94 432.34 114.71 432.4 114.8L432.46 114.86C431.29 115.05 430.02 115.26 428.65 115.52C426.12 116.03 423.26 116.62 420.2 117.52C416.885 118.398 413.625 119.477 410.44 120.75C406.862 122.148 403.415 123.862 400.14 125.87L400.03 125.95C400.83 125.02 402.97 122.33 403.12 122.11C405.12 118.94 407.12 111.65 404.41 108.44C403.942 107.928 403.372 107.518 402.736 107.239C402.101 106.959 401.414 106.814 400.72 106.814C400.026 106.814 399.339 106.959 398.704 107.239C398.069 107.518 397.499 107.928 397.03 108.44C394.96 110.56 394.73 114.19 395.15 116.96C395.63 120.07 399.36 125.8 399.66 126.26C396.379 128.378 393.245 130.717 390.28 133.26C388.54 134.74 386.84 136.26 385.15 137.84C385.81 137.01 386.4 136.27 386.47 136.15C388.47 132.98 390.47 125.69 387.77 122.48C387.302 121.968 386.732 121.558 386.096 121.279C385.461 120.999 384.774 120.854 384.08 120.854C383.386 120.854 382.699 120.999 382.064 121.279C381.429 121.558 380.859 121.968 380.39 122.48C378.32 124.6 378.09 128.24 378.51 131C378.93 133.76 382.02 138.75 382.85 140L380.93 141.81C377.86 144.73 374.81 147.66 371.73 150.44C370.65 151.44 369.54 152.35 368.44 153.28C369.03 152.54 369.52 151.92 369.59 151.82C371.59 148.65 373.59 141.36 370.88 138.14C370.415 137.624 369.848 137.211 369.215 136.927C368.581 136.643 367.895 136.494 367.201 136.489C366.507 136.484 365.819 136.624 365.182 136.9C364.545 137.175 363.972 137.581 363.5 138.09C361.44 140.21 361.2 143.85 361.62 146.61C362.04 149.37 364.84 153.88 365.82 155.43C364.67 156.35 363.51 157.27 362.35 158.11C361.54 158.66 360.8 159.25 359.96 159.76L357.52 161.32C355.93 162.25 354.3 163.22 352.73 164.1C351.64 164.71 350.59 165.27 349.54 165.85C350.63 164.85 352.72 162.95 352.88 162.77C354.949 160.203 356.326 157.15 356.88 153.9C357.125 153.627 357.339 153.329 357.52 153.01C357.886 152.42 358.125 151.761 358.222 151.074C358.319 150.387 358.271 149.687 358.083 149.02C357.895 148.352 357.57 147.731 357.129 147.195C356.688 146.66 356.14 146.222 355.52 145.91C352.63 144.58 348.19 146.47 345.11 148.66C345.24 146.53 345.18 145.22 345.18 145.22L344.37 145.3L344.96 143.89C345.36 143.01 345.66 142.03 346.01 141.09C346.79 138.89 347.47 136.62 348.11 134.33C349.56 135.03 354.73 137.48 357.54 137.58C360.35 137.68 363.92 137.04 365.79 134.74C366.243 134.213 366.581 133.598 366.783 132.933C366.984 132.268 367.045 131.568 366.961 130.879C366.878 130.189 366.651 129.524 366.296 128.927C365.941 128.33 365.466 127.813 364.9 127.41C361.4 125.11 354.38 127.92 351.46 130.26C351.28 130.41 349.37 132.33 348.35 133.4C348.72 132.02 349.1 130.64 349.43 129.22C350.38 125.15 351.22 120.99 352.08 116.85C352.34 115.58 352.62 114.32 352.89 113.05C353.4 113.31 359.49 116.35 362.63 116.46C365.43 116.56 369.01 115.92 370.88 113.62C371.331 113.093 371.668 112.478 371.869 111.815C372.069 111.151 372.13 110.453 372.046 109.764C371.962 109.076 371.736 108.412 371.382 107.816C371.028 107.22 370.554 106.703 369.99 106.3C366.49 103.99 359.47 106.8 356.55 109.15C356.33 109.32 353.55 112.08 352.94 112.82C353.53 110.04 354.16 107.27 354.88 104.56C355.835 100.905 357.031 97.3171 358.46 93.82C358.7 93.94 365.04 97.14 368.26 97.25C371.05 97.36 374.64 96.71 376.51 94.41C376.961 93.8826 377.297 93.2673 377.497 92.6031C377.697 91.9389 377.756 91.2403 377.671 90.5519C377.587 89.8634 377.36 89.2001 377.005 88.6041C376.65 88.0081 376.175 87.4925 375.61 87.09C372.11 84.78 365.1 87.59 362.18 89.94C361.95 90.12 359.01 93.09 358.51 93.67C358.6 93.47 358.66 93.25 358.75 93.05C360.269 89.5591 362.1 86.2122 364.22 83.05C365.37 81.3 366.56 79.68 367.76 78.14C368.88 78.86 374.03 82.08 376.92 82.51C379.81 82.94 383.32 82.66 385.43 80.59C385.937 80.1153 386.339 79.5403 386.611 78.9016C386.884 78.2628 387.02 77.5744 387.011 76.8802C387.003 76.1859 386.85 75.501 386.562 74.8691C386.274 74.2372 385.858 73.6722 385.34 73.21C382.12 70.53 374.84 72.56 371.68 74.57C371.51 74.67 369.88 75.98 368.68 76.94C369.23 76.26 369.78 75.54 370.32 74.89C372.32 72.45 374.32 70.34 376.14 68.49C377.14 67.49 378.14 66.49 379.01 65.66C380.48 65.79 386.39 66.24 389.1 65.31C391.81 64.38 394.86 62.5 395.77 59.68C396.002 59.0258 396.094 58.3307 396.042 57.6387C395.99 56.9468 395.795 56.2732 395.469 55.6609C395.142 55.0486 394.692 54.5109 394.147 54.0821C393.601 53.6532 392.972 53.3426 392.3 53.17C388.2 52.28 382.67 57.44 380.79 60.67C380.63 60.95 378.6 65.62 378.67 65.67H378.76C377.88 66.47 376.95 67.35 375.95 68.32C374.11 70.14 372.06 72.21 369.95 74.62C367.675 77.1874 365.551 79.8853 363.59 82.7C361.381 85.8562 359.456 89.2027 357.84 92.7L357.78 92.83C357.94 91.61 358.25 88.19 358.24 87.92C358.16 84.18 355.8 77 351.78 75.8C351.11 75.6252 350.41 75.5918 349.726 75.7018C349.042 75.8118 348.388 76.0628 347.806 76.4389C347.224 76.815 346.726 77.308 346.345 77.8866C345.963 78.4652 345.706 79.1168 345.59 79.8C345.04 82.7 346.85 85.86 348.73 87.94C350.84 90.28 357.12 92.94 357.62 93.21C356.054 96.7822 354.734 100.457 353.67 104.21C353.03 106.4 352.46 108.62 351.91 110.86C352.01 109.8 352.09 108.86 352.08 108.72C352 104.98 349.64 97.8 345.62 96.6C344.95 96.4268 344.252 96.3946 343.569 96.5054C342.886 96.6161 342.233 96.8674 341.652 97.2434C341.071 97.6194 340.575 98.1118 340.194 98.6896C339.813 99.2674 339.557 99.9179 339.44 100.6C338.88 103.5 340.7 106.66 342.57 108.74C344.44 110.82 349.78 113.26 351.19 113.89C350.99 114.75 350.78 115.6 350.58 116.46C349.63 120.59 348.71 124.72 347.67 128.73C347.31 130.15 346.9 131.53 346.5 132.91C346.58 131.98 346.64 131.18 346.64 131.06C346.56 127.32 344.2 120.14 340.18 118.94C339.51 118.767 338.812 118.735 338.129 118.845C337.446 118.956 336.793 119.207 336.212 119.583C335.631 119.959 335.135 120.452 334.754 121.03C334.373 121.607 334.117 122.258 334 122.94C333.44 125.85 335.25 129.01 337.13 131.09C339.01 133.17 343.82 135.37 345.49 136.09C345.04 137.5 344.58 138.9 344.07 140.24C343.71 141.15 343.42 142.05 343 142.94L341.85 145.52C340.96 145.67 339.93 145.87 338.78 146.13C338.48 142.36 337.07 137.76 334.2 136.4C333.561 136.125 332.872 135.987 332.177 135.994C331.482 136.001 330.795 136.153 330.162 136.44C329.529 136.727 328.962 137.143 328.499 137.661C328.035 138.179 327.685 138.789 327.47 139.45C326.47 142.24 327.8 145.64 329.34 147.97C329.565 148.324 329.82 148.658 330.1 148.97C325.186 150.974 320.767 154.025 317.15 157.91C306.78 169.51 307.56 187.13 307.56 187.13C307.56 187.13 322.27 186.13 332.72 177.13C335.93 175.61 340.08 173.59 344.83 171.04C346.61 170.1 348.49 169.04 350.41 167.95C350.92 168.58 355.05 173.7 357.8 175.09C360.3 176.36 363.8 177.27 366.48 175.97C367.108 175.681 367.669 175.264 368.128 174.747C368.586 174.23 368.933 173.623 369.145 172.965C369.357 172.308 369.431 171.613 369.361 170.925C369.292 170.238 369.08 169.572 368.74 168.97C366.53 165.41 358.98 165.03 355.35 165.97C355.14 166.03 352.88 166.87 351.46 167.42C352.24 166.97 353.01 166.54 353.81 166.06C355.4 165.13 356.96 164.16 358.64 163.12L361.05 161.51C361.86 160.99 362.66 160.34 363.47 159.75C365.33 158.35 367.15 156.83 368.95 155.27C369.77 156.66 372.74 161.55 375.02 163.18C377.3 164.81 380.64 166.25 383.47 165.37C384.138 165.179 384.759 164.851 385.293 164.407C385.827 163.963 386.263 163.412 386.573 162.79C386.882 162.168 387.059 161.489 387.091 160.795C387.123 160.101 387.011 159.408 386.76 158.76C385.12 154.91 377.71 153.38 373.99 153.76C373.75 153.76 371.11 154.33 369.66 154.66C370.73 153.71 371.81 152.76 372.87 151.77C375.87 148.89 378.87 145.89 381.87 142.91C382.79 141.99 383.72 141.09 384.64 140.19C384.92 140.68 388.33 146.58 390.89 148.41C393.16 150.04 396.51 151.47 399.33 150.59C399.998 150.4 400.619 150.073 401.153 149.63C401.687 149.187 402.124 148.638 402.434 148.017C402.745 147.396 402.922 146.717 402.956 146.024C402.99 145.331 402.879 144.638 402.63 143.99C400.98 140.13 393.63 138.61 389.85 138.99C389.57 138.99 385.77 139.81 384.85 140.06C386.85 138.06 388.93 136.06 391.02 134.25C393.838 131.725 396.818 129.387 399.94 127.25C400.07 127.48 403.6 133.65 406.22 135.52C408.49 137.15 411.84 138.59 414.66 137.7C415.328 137.51 415.949 137.183 416.483 136.74C417.017 136.297 417.454 135.748 417.764 135.127C418.074 134.506 418.252 133.827 418.286 133.134C418.32 132.441 418.209 131.748 417.96 131.1C416.31 127.24 408.91 125.72 405.18 126.1C404.89 126.1 400.8 126.99 400.06 127.2C400.25 127.07 400.42 126.93 400.6 126.81C403.789 124.753 407.156 122.986 410.66 121.53C412.58 120.7 414.46 120.01 416.31 119.39C416.85 120.6 419.37 126.13 421.55 128.08C423.73 130.03 426.8 131.74 429.7 131.18C430.386 131.064 431.039 130.807 431.62 130.424C432.2 130.041 432.694 129.542 433.07 128.957C433.447 128.373 433.697 127.717 433.806 127.03C433.914 126.344 433.878 125.642 433.7 124.97C432.48 120.97 425.29 118.63 421.55 118.57C421.34 118.57 419.27 118.75 417.76 118.92C418.6 118.65 419.46 118.35 420.27 118.11C423.27 117.19 426.14 116.54 428.66 115.98C430.09 115.67 431.39 115.42 432.66 115.21C433.81 116.12 438.5 119.76 441.27 120.48C444.04 121.2 447.62 121.31 449.94 119.48C450.533 119.063 451.028 118.521 451.391 117.893C451.753 117.266 451.975 116.567 452.041 115.845C452.107 115.123 452.014 114.395 451.771 113.712C451.527 113.029 451.138 112.407 450.63 111.89ZM343.73 168.78C341.55 169.89 339.49 170.9 337.59 171.78C340.808 167.113 343.018 161.828 344.08 156.26C344.65 156.4 345.23 156.52 345.81 156.63C345.98 159.78 348.49 165.38 348.81 166.1C347.07 167.06 345.36 168 343.73 168.78Z" fill="white"/>
<path d="M421.1 115.31C423.86 112.78 427.71 106.31 425.96 102.47C425.648 101.85 425.21 101.302 424.675 100.861C424.14 100.42 423.518 100.095 422.851 99.9068C422.183 99.7187 421.483 99.6716 420.796 99.7685C420.109 99.8655 419.45 100.104 418.86 100.47C416.31 101.97 415.12 105.41 414.8 108.19C414.42 111.45 416.72 118.44 416.72 118.44C416.72 118.44 420.87 115.53 421.1 115.31Z" fill="white"/>
<path d="M300 84.1899C300 84.1899 278.65 105.85 278.54 132.69C278.43 159.53 299.54 181.36 299.54 181.36C299.54 181.36 320.91 159.7 321 132.87C321.09 106.04 300 84.1899 300 84.1899Z" fill="white"/>
<path d="M253.07 145.57C253.07 145.57 252.94 163.21 263.73 174.42C274.52 185.63 292.14 186.17 292.14 186.17C292.14 186.17 292.28 168.53 281.49 157.32C270.7 146.11 253.07 145.57 253.07 145.57Z" fill="white"/>
</g>
<path d="M313.42 157.01L312.74 156.13L300.18 165.99L300.28 144.3L317.73 128.86L316.99 128.03L300.28 142.81L300.39 118.99L312.14 108.81L311.42 107.97L300.39 117.51L300.54 84.1899H299.43L299.21 133.28L285.39 113.07L284.47 113.69L299.12 135.1L299.21 135.04L299.12 155.44L282.54 140.53L281.8 141.36L299.11 156.93V156.92L299.01 181.36L300.12 181.37L300.18 167.4L313.42 157.01Z" fill="white"/>
<path d="M345.579 145.47L344.759 144.73L326.279 165.39L327.959 152.04L326.859 151.91L324.979 166.83H324.989L317.559 175.14L316.159 162.81L315.059 162.93L316.569 176.25L307.189 186.73L308.019 187.47L313.349 181.52L322.979 182.1L323.039 180.99L314.289 180.46L322.279 171.53L335.689 171.54V170.43L323.269 170.41L332.059 160.59L340.969 160.7L340.989 159.59L333.049 159.49L345.579 145.47Z" fill="white"/>
<path d="M288.3 170.47L287.2 170.32L286.02 179.01L277.71 170.37L278.73 157L277.62 156.92L276.68 169.3L267.53 159.8L268.31 150.92L267.2 150.83L266.51 158.74L253.47 145.19L252.67 145.96L271.89 165.93L258.71 163.25L258.49 164.34L273.23 167.33V167.31L280.96 175.35L268.56 175.82L268.6 176.93L281.99 176.42L291.74 186.55L292.54 185.78L287.01 180.03L288.3 170.47Z" fill="white"/>
<path d="M296.41 435.67L424.1 387.76L425.02 377.55L298.27 425.45L296.41 435.67Z" fill="#3652AD" stroke="#2E353A" stroke-width="1.13593" stroke-linecap="round" stroke-linejoin="round"/>
<path d="M274.91 266.31C272.666 266.293 270.497 265.502 268.77 264.07C266.599 262.28 265.173 259.745 264.77 256.96C264.719 256.463 264.862 255.965 265.168 255.57C265.474 255.174 265.92 254.911 266.414 254.836C266.909 254.76 267.413 254.877 267.823 255.163C268.234 255.448 268.519 255.88 268.62 256.37C268.881 258.197 269.811 259.861 271.23 261.04C271.847 261.572 272.572 261.964 273.356 262.189C274.139 262.413 274.962 262.465 275.767 262.341C276.573 262.216 277.341 261.918 278.02 261.467C278.699 261.017 279.272 260.424 279.7 259.73C279.994 259.322 280.435 259.043 280.931 258.953C281.426 258.862 281.937 258.967 282.357 259.245C282.777 259.523 283.073 259.952 283.184 260.443C283.294 260.934 283.21 261.449 282.95 261.88C282.22 263.025 281.255 264.001 280.119 264.744C278.982 265.487 277.701 265.98 276.36 266.19C275.881 266.27 275.396 266.31 274.91 266.31Z" fill="#2E353A"/>
<path d="M256.48 272C251.55 272 247.14 268.08 246.31 262.66C246.27 262.408 246.28 262.15 246.34 261.902C246.4 261.654 246.509 261.42 246.659 261.214C246.81 261.007 246.999 260.833 247.217 260.7C247.435 260.567 247.678 260.479 247.93 260.44C248.44 260.373 248.956 260.505 249.371 260.808C249.787 261.112 250.069 261.564 250.16 262.07C250.74 265.88 253.95 268.56 257.3 268.07C258.104 267.939 258.871 267.638 259.55 267.189C260.23 266.739 260.806 266.149 261.24 265.46C261.534 265.052 261.976 264.773 262.471 264.683C262.966 264.592 263.477 264.697 263.897 264.975C264.317 265.252 264.613 265.682 264.724 266.173C264.834 266.664 264.75 267.179 264.49 267.61C263.76 268.755 262.795 269.731 261.659 270.474C260.523 271.217 259.241 271.71 257.9 271.92C257.43 271.986 256.955 272.012 256.48 272Z" fill="#2E353A"/>
<path d="M239.62 278.47C237.377 278.455 235.209 277.667 233.48 276.24C231.311 274.448 229.886 271.914 229.48 269.13C229.429 268.633 229.572 268.135 229.878 267.739C230.184 267.344 230.63 267.081 231.124 267.006C231.619 266.93 232.123 267.047 232.533 267.332C232.944 267.618 233.229 268.05 233.33 268.54C233.591 270.366 234.521 272.031 235.94 273.21C236.563 273.732 237.29 274.118 238.072 274.342C238.854 274.566 239.674 274.623 240.48 274.51C241.282 274.379 242.048 274.078 242.726 273.628C243.403 273.178 243.977 272.589 244.41 271.9C244.737 271.583 245.162 271.388 245.615 271.345C246.068 271.303 246.522 271.416 246.902 271.667C247.282 271.918 247.566 272.29 247.705 272.724C247.845 273.157 247.832 273.625 247.67 274.05C246.937 275.194 245.97 276.17 244.832 276.913C243.694 277.656 242.412 278.149 241.07 278.36C240.59 278.437 240.105 278.474 239.62 278.47Z" fill="#2E353A"/>
<path d="M221.19 283.75C216.26 283.75 211.85 279.82 211.02 274.41C210.969 274.152 210.97 273.886 211.024 273.629C211.078 273.371 211.183 273.127 211.334 272.912C211.484 272.696 211.677 272.513 211.9 272.374C212.123 272.235 212.372 272.142 212.632 272.101C212.892 272.061 213.158 272.073 213.412 272.138C213.667 272.203 213.907 272.319 214.116 272.478C214.325 272.638 214.499 272.838 214.629 273.067C214.759 273.296 214.841 273.549 214.87 273.81C215.46 277.62 218.66 280.3 222.01 279.81C222.813 279.679 223.579 279.38 224.258 278.931C224.937 278.483 225.514 277.897 225.95 277.21C226.082 276.978 226.26 276.775 226.473 276.614C226.686 276.453 226.93 276.338 227.19 276.276C227.45 276.213 227.719 276.204 227.982 276.25C228.245 276.296 228.496 276.396 228.719 276.543C228.942 276.689 229.133 276.881 229.279 277.104C229.425 277.328 229.524 277.579 229.569 277.842C229.614 278.105 229.604 278.375 229.541 278.634C229.478 278.894 229.362 279.137 229.2 279.35C228.469 280.495 227.504 281.471 226.368 282.216C225.232 282.96 223.951 283.456 222.61 283.67C222.139 283.731 221.665 283.758 221.19 283.75Z" fill="#2E353A"/>
<path d="M202.32 291.25C197.4 291.25 192.99 287.33 192.15 281.91C192.181 281.456 192.365 281.026 192.673 280.691C192.981 280.356 193.394 280.135 193.844 280.067C194.294 279.998 194.753 280.085 195.147 280.312C195.541 280.54 195.846 280.896 196.01 281.32C196.59 285.13 199.8 287.8 203.15 287.32C203.954 287.187 204.72 286.886 205.399 286.436C206.078 285.986 206.655 285.398 207.09 284.71C207.385 284.302 207.826 284.023 208.321 283.933C208.817 283.842 209.328 283.947 209.748 284.225C210.168 284.502 210.464 284.932 210.574 285.423C210.685 285.914 210.601 286.429 210.34 286.86C209.609 288.003 208.644 288.979 207.508 289.722C206.372 290.465 205.091 290.958 203.75 291.17C203.276 291.231 202.798 291.258 202.32 291.25Z" fill="#2E353A"/>
<path d="M184.05 297.94C181.808 297.926 179.639 297.139 177.91 295.71C175.742 293.918 174.316 291.384 173.91 288.6C173.86 288.103 174.002 287.605 174.308 287.209C174.615 286.814 175.061 286.551 175.555 286.476C176.049 286.4 176.554 286.517 176.964 286.802C177.375 287.088 177.66 287.52 177.76 288.01C178.021 289.836 178.951 291.501 180.37 292.68C180.987 293.212 181.713 293.604 182.496 293.829C183.28 294.053 184.102 294.105 184.908 293.98C185.713 293.856 186.482 293.558 187.161 293.107C187.84 292.657 188.413 292.064 188.84 291.37C189.167 291.053 189.593 290.858 190.046 290.815C190.499 290.773 190.953 290.886 191.333 291.137C191.713 291.388 191.996 291.76 192.136 292.194C192.275 292.627 192.263 293.095 192.1 293.52C191.367 294.664 190.4 295.64 189.263 296.383C188.125 297.126 186.843 297.619 185.5 297.83C185.021 297.907 184.536 297.944 184.05 297.94Z" fill="#2E353A"/>
<path d="M299.91 429.44L405.58 390.51" stroke="#2E353A" stroke-width="0.567964" stroke-linecap="round" stroke-linejoin="round"/>
<path d="M297.13 432.69L364.79 407.66" stroke="#2E353A" stroke-width="0.567964" stroke-linecap="round" stroke-linejoin="round"/>
<path d="M169.18 293.45V305.52L296.41 435.67L298.27 425.45L169.18 293.45Z" fill="#3652AD" stroke="#2E353A" stroke-width="1.13593" stroke-linecap="round" stroke-linejoin="round"/>
<path d="M171.07 302.92L246.62 378.46" stroke="#2E353A" stroke-width="0.567964" stroke-linecap="round" stroke-linejoin="round"/>
<path d="M206.76 335.36L285.54 416" stroke="#2E353A" stroke-width="0.567964" stroke-linecap="round" stroke-linejoin="round"/>
<path d="M169.18 293.45L298.27 425.45L425.02 377.55L293.65 251.65L169.18 293.45Z" fill="white" stroke="#2E353A" stroke-width="1.13593" stroke-linecap="round" stroke-linejoin="round"/>
<path d="M167.6 291.37L48.04 179.78L170.51 141.59L292.71 249.66L167.6 291.37Z" fill="#3652AD" stroke="#2E353A" stroke-width="1.13593" stroke-linecap="round" stroke-linejoin="round"/>
<path d="M66.3398 180.52L101.34 169.62" stroke="#2E353A" stroke-width="1.21052" stroke-linecap="round" stroke-linejoin="round"/>
<path d="M71.5098 184.54L106.51 173.64" stroke="#2E353A" stroke-width="1.21052" stroke-linecap="round" stroke-linejoin="round"/>
<path d="M190.46 294.39C190.08 294.393 189.707 294.281 189.39 294.07C188.968 293.778 188.675 293.335 188.571 292.832C188.466 292.33 188.559 291.806 188.83 291.37C189.829 289.819 190.214 287.95 189.91 286.13C189.741 284.751 189.164 283.453 188.254 282.402C187.344 281.351 186.142 280.595 184.8 280.23C184.316 280.098 183.902 279.783 183.643 279.353C183.385 278.922 183.303 278.409 183.413 277.919C183.524 277.429 183.82 277.001 184.238 276.724C184.657 276.447 185.166 276.341 185.66 276.43C187.765 276.97 189.661 278.125 191.106 279.747C192.55 281.37 193.478 283.387 193.77 285.54C194.227 288.323 193.628 291.176 192.09 293.54C191.906 293.802 191.662 294.016 191.379 294.164C191.095 294.311 190.78 294.389 190.46 294.39Z" fill="#2E353A"/>
<path d="M208.71 287.7C208.329 287.702 207.957 287.591 207.64 287.38C207.426 287.24 207.241 287.058 207.098 286.846C206.954 286.634 206.854 286.396 206.802 286.145C206.751 285.894 206.75 285.635 206.8 285.384C206.849 285.132 206.948 284.893 207.09 284.68C208.085 283.127 208.469 281.26 208.17 279.44C208 278.06 207.424 276.762 206.514 275.712C205.604 274.661 204.401 273.905 203.06 273.54C202.798 273.497 202.548 273.4 202.325 273.257C202.102 273.114 201.91 272.926 201.762 272.707C201.614 272.487 201.512 272.239 201.463 271.978C201.413 271.717 201.418 271.449 201.476 271.191C201.534 270.932 201.644 270.687 201.799 270.473C201.955 270.258 202.153 270.077 202.381 269.941C202.608 269.805 202.862 269.717 203.125 269.683C203.388 269.648 203.655 269.668 203.91 269.74C206.015 270.279 207.911 271.434 209.355 273.057C210.8 274.68 211.728 276.697 212.02 278.85C212.477 281.633 211.878 284.486 210.34 286.85C210.156 287.112 209.912 287.326 209.629 287.473C209.345 287.621 209.03 287.699 208.71 287.7Z" fill="#2E353A"/>
<path d="M281.32 262.76C280.978 262.743 280.646 262.638 280.355 262.455C280.065 262.273 279.827 262.019 279.663 261.718C279.5 261.416 279.416 261.078 279.421 260.735C279.426 260.393 279.518 260.057 279.69 259.76C280.69 258.213 281.076 256.347 280.77 254.53C280.602 253.149 280.026 251.849 279.116 250.796C278.206 249.743 277.003 248.986 275.66 248.62C275.41 248.566 275.174 248.462 274.965 248.316C274.755 248.17 274.577 247.983 274.44 247.767C274.304 247.551 274.211 247.311 274.168 247.059C274.125 246.807 274.133 246.549 274.19 246.3C274.314 245.801 274.625 245.369 275.059 245.094C275.493 244.818 276.016 244.72 276.52 244.82C278.625 245.36 280.521 246.515 281.966 248.137C283.41 249.76 284.338 251.777 284.63 253.93C285.088 256.714 284.485 259.569 282.94 261.93C282.759 262.191 282.517 262.403 282.234 262.548C281.952 262.693 281.638 262.766 281.32 262.76Z" fill="#2E353A"/>
<path d="M262.86 268.43C262.48 268.432 262.107 268.321 261.79 268.11C261.576 267.97 261.392 267.788 261.248 267.576C261.104 267.364 261.004 267.126 260.953 266.875C260.902 266.624 260.901 266.365 260.95 266.114C261 265.862 261.098 265.623 261.24 265.41C262.236 263.857 262.621 261.99 262.32 260.17C262.151 258.79 261.574 257.492 260.664 256.442C259.754 255.391 258.552 254.635 257.21 254.27C256.949 254.227 256.699 254.13 256.475 253.987C256.252 253.844 256.061 253.656 255.912 253.436C255.764 253.217 255.662 252.969 255.613 252.708C255.564 252.447 255.568 252.179 255.626 251.921C255.684 251.662 255.794 251.417 255.95 251.203C256.105 250.988 256.303 250.807 256.531 250.671C256.759 250.535 257.012 250.447 257.275 250.413C257.538 250.378 257.805 250.398 258.06 250.47C260.166 251.007 262.064 252.161 263.509 253.784C264.954 255.408 265.881 257.426 266.17 259.58C266.627 262.363 266.028 265.216 264.49 267.58C264.307 267.842 264.063 268.055 263.779 268.203C263.495 268.351 263.18 268.429 262.86 268.43Z" fill="#2E353A"/>
<path d="M246 274.93C245.619 274.929 245.246 274.814 244.93 274.6C244.508 274.308 244.215 273.865 244.11 273.362C244.006 272.859 244.099 272.336 244.37 271.9C245.374 270.351 245.763 268.482 245.46 266.66C245.29 265.28 244.714 263.982 243.804 262.932C242.894 261.881 241.691 261.125 240.35 260.76C240.088 260.717 239.838 260.62 239.615 260.477C239.392 260.334 239.2 260.146 239.052 259.926C238.904 259.707 238.802 259.459 238.753 259.198C238.703 258.937 238.708 258.669 238.766 258.411C238.824 258.152 238.934 257.907 239.089 257.693C239.245 257.478 239.443 257.297 239.671 257.161C239.898 257.025 240.152 256.937 240.415 256.903C240.678 256.868 240.945 256.888 241.2 256.96C243.305 257.499 245.201 258.654 246.646 260.277C248.09 261.9 249.018 263.917 249.31 266.07C249.767 268.853 249.168 271.706 247.63 274.07C247.447 274.334 247.204 274.549 246.92 274.699C246.636 274.849 246.321 274.928 246 274.93Z" fill="#2E353A"/>
<path d="M227.57 280.2C227.19 280.197 226.819 280.086 226.5 279.88C226.286 279.74 226.101 279.558 225.957 279.346C225.814 279.134 225.713 278.896 225.662 278.645C225.611 278.394 225.61 278.135 225.659 277.884C225.709 277.632 225.808 277.393 225.95 277.18C226.944 275.627 227.329 273.76 227.03 271.94C226.86 270.56 226.283 269.262 225.373 268.212C224.463 267.161 223.261 266.405 221.92 266.04C221.62 266.04 221.324 265.973 221.054 265.843C220.784 265.714 220.546 265.525 220.359 265.291C220.171 265.057 220.039 264.784 219.971 264.492C219.903 264.201 219.902 263.897 219.967 263.605C220.032 263.312 220.162 263.038 220.348 262.802C220.533 262.567 220.769 262.376 221.038 262.244C221.307 262.112 221.603 262.043 221.902 262.04C222.202 262.038 222.499 262.103 222.77 262.23C224.876 262.766 226.775 263.92 228.22 265.543C229.665 267.167 230.592 269.186 230.88 271.34C231.338 274.123 230.738 276.976 229.2 279.34C229.017 279.604 228.773 279.819 228.49 279.969C228.206 280.119 227.891 280.198 227.57 280.2Z" fill="#2E353A"/>
<path d="M400.62 374.5L405.54 372.69" stroke="#2E353A" stroke-width="0.567964" stroke-linecap="round" stroke-linejoin="round"/>
<path d="M303.49 410.38L396.15 376.16" stroke="#2E353A" stroke-width="0.567964" stroke-linecap="round" stroke-linejoin="round"/>
<path d="M306.09 394.91L394.52 362.25" stroke="#2E353A" stroke-width="0.567964" stroke-linecap="round" stroke-linejoin="round"/>
<path d="M292.47 399.94L300.21 397.08" stroke="#2E353A" stroke-width="0.567964" stroke-linecap="round" stroke-linejoin="round"/>
<path d="M281.45 389.5L383.51 351.81" stroke="#2E353A" stroke-width="0.567964" stroke-linecap="round" stroke-linejoin="round"/>
<path d="M270.44 379.07L372.49 341.38" stroke="#2E353A" stroke-width="0.567964" stroke-linecap="round" stroke-linejoin="round"/>
<path d="M357.19 332.52L361.47 330.94" stroke="#2E353A" stroke-width="0.567964" stroke-linecap="round" stroke-linejoin="round"/>
<path d="M259.42 368.63L351.07 334.78" stroke="#2E353A" stroke-width="0.567964" stroke-linecap="round" stroke-linejoin="round"/>
<path d="M248.4 358.19L350.46 320.5" stroke="#2E353A" stroke-width="0.567964" stroke-linecap="round" stroke-linejoin="round"/>
<path d="M237.38 347.76L339.44 310.07" stroke="#2E353A" stroke-width="0.567964" stroke-linecap="round" stroke-linejoin="round"/>
<path d="M226.37 337.32L328.42 299.63" stroke="#2E353A" stroke-width="0.567964" stroke-linecap="round" stroke-linejoin="round"/>
<path d="M215.35 326.88L317.4 289.19" stroke="#2E353A" stroke-width="0.567964" stroke-linecap="round" stroke-linejoin="round"/>
<path d="M302.77 280.09L306.39 278.75" stroke="#2E353A" stroke-width="0.567964" stroke-linecap="round" stroke-linejoin="round"/>
<path d="M204.33 316.44L299.63 281.25" stroke="#2E353A" stroke-width="0.567964" stroke-linecap="round" stroke-linejoin="round"/>
<path d="M223.78 294.75L295.37 268.32" stroke="#2E353A" stroke-width="0.567964" stroke-linecap="round" stroke-linejoin="round"/>
<path d="M193.32 306.01L213.03 298.73" stroke="#2E353A" stroke-width="0.567964" stroke-linecap="round" stroke-linejoin="round"/>
<g style="mix-blend-mode:multiply">
<path d="M228.72 333C239.05 334.35 238.14 316.67 235.52 310.74C233.608 312.931 232.184 315.502 231.341 318.285C230.498 321.067 230.256 323.997 230.63 326.88C230.738 328.226 231.208 329.518 231.99 330.62C232.386 331.165 232.934 331.582 233.565 331.816C234.197 332.051 234.884 332.094 235.54 331.94C236.48 331.542 237.276 330.865 237.82 330C239.72 327.48 240.98 324.36 242.98 322.05C245.75 323.92 255.59 327.12 254.17 320.24C253.39 316.44 255.28 316.87 257.31 318.73C258.15 319.49 259.47 319.08 260.51 318.62L270.51 314.22C271.782 313.571 273.161 313.155 274.58 312.99C279.38 312.75 282.52 317.21 287.23 314.06C289.23 312.74 289.69 309.16 292.23 307.8C294.04 306.8 296.17 306.74 298.23 306.46C305.31 305.52 308.93 301.78 315.47 298.4" stroke="#3652AD" stroke-width="1.13593" stroke-linecap="round" stroke-linejoin="round"/>
</g>
<g style="mix-blend-mode:multiply">
<path d="M236.74 344.05C240.61 344.71 243.92 341.18 247.34 340.05C251.71 338.59 253.61 336.81 257.81 335C263.36 332.62 269.88 331.52 268.72 323.13C267.93 326.13 267.84 329.43 267.23 332.57C271.73 334.8 272.94 330.97 273.4 327.57C274.911 327.532 276.403 327.231 277.81 326.68C277.81 327.31 278.01 328.02 278 328.62C280.16 329.49 281 328.9 281.45 326.99C283.84 326.54 284.69 324.3 286.71 323.75C287.22 329.36 288.65 334.27 288.32 340.01C284.49 341.01 283.89 334.4 284.86 331.66C285.86 328.76 288.74 327.21 289.8 324.18C290.02 324.55 289.85 324.98 289.97 325.38C294.79 322.5 300.97 323.28 305.75 319.91C307.25 318.85 308.32 316.73 309.91 315.99C313.37 314.39 314.4 316.27 316.98 312.5" stroke="#3652AD" stroke-width="1.13593" stroke-linecap="round" stroke-linejoin="round"/>
</g>
<g style="mix-blend-mode:multiply">
<path d="M271.58 377C278.53 375 281.58 357.73 279.58 351.39C277.24 343.72 274.02 352.13 273.27 356.25C272.67 359.55 271.71 368.25 274.79 370.76C281.62 376.3 285.79 364.91 286.63 359.76C286.93 362.98 284.99 366.95 285.78 370.42C291.31 371.07 294.05 366.47 293.7 361.72C294.387 362.377 294.852 363.232 295.031 364.166C295.21 365.099 295.095 366.065 294.7 366.93C299.98 366.56 299.11 357.65 299.7 354.06C299.4 356.57 299.63 359.51 301.32 361.54C302.73 363.22 305.42 363.96 307.19 362.66C308.96 361.36 308.61 357.94 306.46 357.49V379.14C306.528 379.766 306.402 380.398 306.1 380.95C305.39 381.95 303.65 381.74 302.84 380.78C302.127 379.733 301.791 378.474 301.89 377.21C301.79 370.12 303.98 360.41 309.47 355.57C309.752 356.26 309.845 357.012 309.74 357.75C310.266 357.545 310.74 357.229 311.132 356.824C311.524 356.418 311.824 355.932 312.01 355.4C312.37 356.99 313.31 358.99 314.92 358.71C315.454 358.57 315.943 358.295 316.34 357.91C318.98 355.73 321.84 354.29 323.61 351.19C323.86 351.97 324.12 352.75 324.38 353.54C324.8 352.03 326.24 351.04 327.65 350.36C329.801 349.349 332.127 348.762 334.5 348.63C336.5 348.53 338.68 348.74 340.5 347.88C341.306 347.449 342.079 346.958 342.81 346.41C344.882 345.045 347.282 344.257 349.76 344.13" stroke="#3652AD" stroke-width="1.13593" stroke-linecap="round" stroke-linejoin="round"/>
</g>
<path d="M189.19 187.09C189.19 187.09 205.14 166.99 210.54 159.8C215.94 152.61 219.85 147.08 219.85 147.08C219.85 147.08 222.73 149.35 221.85 151.93C220.97 154.51 202 180.42 197.78 187C193.56 193.58 194.15 201.91 194.46 204.78C194.77 207.65 186.4 198.27 189.19 187.09Z" fill="white" stroke="#2E353A" stroke-width="1.27267" stroke-linecap="round" stroke-linejoin="round"/>
<path d="M219.85 147.08C219.85 147.08 229.78 133.27 237.15 121.77C244.52 110.27 255.28 93.0001 257.84 90.7001C260.4 88.4001 261.02 94.4001 260.19 98.4201C259.36 102.44 250.55 113.66 244.6 122.86C238.65 132.06 234.97 138.68 229.85 144.72C224.73 150.76 225.03 151.05 221.85 151.93C218.67 152.81 219.29 149.66 219.85 147.08Z" fill="#2E353A" stroke="#2E353A" stroke-width="1.27267" stroke-linecap="round" stroke-linejoin="round"/>
<path d="M185.76 189.11C186.86 181.66 189.35 167.9 195.04 163.57C200.73 159.24 217.95 162.57 219.38 162.83C220.81 163.09 243.47 168.11 250.38 172.36C257.29 176.61 261.93 188.89 263.7 196C265.47 203.11 269.27 215.15 269.84 216C269.84 216 275.59 218.53 278.74 218.23C281.89 217.93 286.08 203.29 294.9 194.64C303.72 185.99 308.3 184.81 318.04 185.64C327.78 186.47 364.78 196.5 368.53 200.19C372.28 203.88 374.62 212.19 373.81 218.19C373 224.19 374.18 230.79 374.18 231.93C374.18 233.07 377.65 236.78 376.81 239.93C375.97 243.08 375.45 249.93 372.88 250.84C370.31 251.75 351.4 251.27 337.36 249.36C323.32 247.45 303.79 238.98 290.86 233.06C277.93 227.14 271.62 224.59 262.17 224.66C252.72 224.73 234.4 225.13 217.48 221.23C200.56 217.33 189.06 210.23 185.88 207.12C182.7 204.01 184.67 196.57 185.76 189.11ZM287.08 224.23C291.71 231.08 310.37 237.83 320.41 240.62C330.45 243.41 354.53 248.41 360.81 244.94C367.09 241.47 370.39 220.82 369.81 213.66C369.23 206.5 366.3 202.52 366.3 202.52C353.93 194.87 315.22 186.82 307.22 190.03C299.22 193.24 291.57 203.59 288.76 211.91C285.95 220.23 287.08 224.23 287.08 224.23ZM206.25 212.46C218.61 219.82 238.1 221.98 245.83 222.22C253.56 222.46 260.98 218.4 261.21 209.52C261.44 200.64 256.76 185.78 255.01 181.52C253.26 177.26 247.52 174.7 247.52 174.7C239.77 171.03 207.64 162.94 202.2 163.84C196.76 164.74 192 173 190.89 185.07C189.78 197.14 193.89 205.1 206.25 212.46Z" fill="#2E353A" stroke="#2E353A" stroke-width="1.27267" stroke-linecap="round" stroke-linejoin="round"/>
<path d="M373.32 231.68C373.32 231.68 376.5 236.53 378.77 233.08C381.04 229.63 410.32 196.79 410.32 196.79C410.32 196.79 411.46 196.49 411.19 198.79C410.92 201.09 380.27 242.24 379.13 244.25C377.99 246.26 373.13 246.87 371.99 246.02C370.85 245.17 373.32 231.68 373.32 231.68Z" fill="white" stroke="#2E353A" stroke-width="1.27267" stroke-linecap="round" stroke-linejoin="round"/>
<path d="M408.32 197.94C409.993 194.961 411.502 191.893 412.84 188.75C415.94 181.86 417.84 168.39 418.34 154.35C418.84 140.31 419.34 132.01 421.93 134.57C424.52 137.13 422.3 150.9 421.82 161.77C421.34 172.64 417.96 183.56 417.14 189.3C416.52 193.63 413.2 200.49 410.91 200.5C408.62 200.51 408.91 199.94 408.32 197.94Z" fill="#2E353A" stroke="#2E353A" stroke-width="1.27267" stroke-linecap="round" stroke-linejoin="round"/>
<path d="M219.38 377.44L231.97 391.69L213.25 387.47L80.0498 305.98L86.1898 295.95L219.38 377.44Z" fill="white" stroke="#2E353A" stroke-width="1.4364" stroke-linecap="round" stroke-linejoin="round"/>
<g style="mix-blend-mode:multiply" opacity="0.5">
<path d="M219.38 377.44L231.97 391.69L213.25 387.47L80.0498 305.98L86.1898 295.95L219.38 377.44Z" fill="#3652AD"/>
<path d="M219.38 377.44L231.97 391.69L213.25 387.47L80.0498 305.98L86.1898 295.95L219.38 377.44Z" stroke="#2E353A" stroke-width="1.4364" stroke-linecap="round" stroke-linejoin="round"/>
</g>
<path d="M84.7956 298.233L81.4502 303.701L214.647 385.196L217.992 379.728L84.7956 298.233Z" stroke="#2E353A" stroke-width="0.718198" stroke-linecap="round" stroke-linejoin="round"/>
<path d="M219.409 377.47L213.279 387.48L231.969 391.69L219.409 377.47Z" fill="white" stroke="#2E353A" stroke-width="1.4364" stroke-linecap="round" stroke-linejoin="round"/>
<path d="M222.62 389.58L231.97 391.69L225.69 384.58L222.62 389.58Z" fill="#3652AD" stroke="#2E353A" stroke-width="1.4364" stroke-linecap="round" stroke-linejoin="round"/>
<path d="M68.2098 291.84C67.8059 292.498 67.5356 293.229 67.4145 293.991C67.2934 294.753 67.3238 295.532 67.504 296.282C67.6842 297.033 68.0106 297.74 68.4646 298.365C68.9186 298.989 69.4913 299.517 70.1498 299.92L80.0498 305.98L86.1898 295.98L76.2898 289.92C74.9632 289.105 73.3676 288.85 71.8529 289.21C70.3381 289.57 69.028 290.515 68.2098 291.84Z" fill="white" stroke="#2E353A" stroke-width="1.4364" stroke-linecap="round" stroke-linejoin="round"/>
<path d="M68.2098 291.84C67.8059 292.498 67.5356 293.229 67.4145 293.991C67.2934 294.753 67.3238 295.532 67.504 296.282C67.6842 297.033 68.0106 297.74 68.4646 298.365C68.9186 298.989 69.4913 299.517 70.1498 299.92L74.8898 302.82L81.0298 292.82L76.2898 289.92C74.9632 289.105 73.3676 288.85 71.8529 289.21C70.3381 289.57 69.028 290.515 68.2098 291.84Z" fill="#2E353A" stroke="#2E353A" stroke-width="1.4364" stroke-linecap="round" stroke-linejoin="round"/>
<path d="M337 244.09L333.49 241.62C332.947 241.239 332.326 240.986 331.671 240.878C331.017 240.771 330.346 240.813 329.71 241C326 242.08 319 244.83 317 247C314.4 249.68 313.58 254.53 314.83 256.81C316.08 259.09 321.21 262 321.21 262L342.7 248.92L337 244.09Z" fill="white" stroke="#2E353A" stroke-width="0.9473" stroke-miterlimit="10"/>
<g style="mix-blend-mode:multiply" opacity="0.5">
<path d="M337 244.09L333.49 241.62C332.947 241.239 332.326 240.986 331.671 240.878C331.017 240.771 330.346 240.813 329.71 241C326 242.08 319 244.83 317 247C314.4 249.68 313.58 254.53 314.83 256.81C316.08 259.09 321.21 262 321.21 262L342.7 248.92L337 244.09Z" fill="#3652AD"/>
<path d="M337 244.09L333.49 241.62C332.947 241.239 332.326 240.986 331.671 240.878C331.017 240.771 330.346 240.813 329.71 241C326 242.08 319 244.83 317 247C314.4 249.68 313.58 254.53 314.83 256.81C316.08 259.09 321.21 262 321.21 262L342.7 248.92L337 244.09Z" stroke="#2E353A" stroke-width="0.9473" stroke-miterlimit="10"/>
</g>
<path d="M339.189 243.08L322.189 250.85C322.189 250.85 316.439 254.1 318.259 264.05L417.809 337.35C417.809 337.35 421.269 339.87 427.519 337.74C433.769 335.61 440.169 328.24 441.519 322.01C442.869 315.78 438.519 313.82 437.709 313.13C436.899 312.44 342.549 243.82 342.549 243.82C341.552 243.184 340.362 242.921 339.189 243.08Z" fill="white" stroke="#2E353A" stroke-width="0.9473" stroke-miterlimit="10"/>
<g style="mix-blend-mode:multiply" opacity="0.5">
<path d="M339.189 243.08L322.189 250.85C322.189 250.85 316.439 254.1 318.259 264.05L417.809 337.35C417.809 337.35 421.269 339.87 427.519 337.74C433.769 335.61 440.169 328.24 441.519 322.01C442.869 315.78 438.519 313.82 437.709 313.13C436.899 312.44 342.549 243.82 342.549 243.82C341.552 243.184 340.362 242.921 339.189 243.08Z" fill="#3652AD"/>
<path d="M339.189 243.08L322.189 250.85C322.189 250.85 316.439 254.1 318.259 264.05L417.809 337.35C417.809 337.35 421.269 339.87 427.519 337.74C433.769 335.61 440.169 328.24 441.519 322.01C442.869 315.78 438.519 313.82 437.709 313.13C436.899 312.44 342.549 243.82 342.549 243.82C341.552 243.184 340.362 242.921 339.189 243.08Z" stroke="#2E353A" stroke-width="0.9473" stroke-miterlimit="10"/>
</g>
<path d="M434.82 332.57C428.55 338.42 420.96 340.48 417.82 337.16C414.68 333.84 417.27 326.39 423.54 320.53C429.81 314.67 437.4 312.62 440.54 315.94C443.68 319.26 441.08 326.71 434.82 332.57Z" fill="white" stroke="#2E353A" stroke-width="0.9473" stroke-miterlimit="10"/>
<g style="mix-blend-mode:multiply">
<path d="M434.82 332.57C428.55 338.42 420.96 340.48 417.82 337.16C414.68 333.84 417.27 326.39 423.54 320.53C429.81 314.67 437.4 312.62 440.54 315.94C443.68 319.26 441.08 326.71 434.82 332.57Z" fill="#3652AD"/>
<path d="M434.82 332.57C428.55 338.42 420.96 340.48 417.82 337.16C414.68 333.84 417.27 326.39 423.54 320.53C429.81 314.67 437.4 312.62 440.54 315.94C443.68 319.26 441.08 326.71 434.82 332.57Z" stroke="#2E353A" stroke-width="0.9473" stroke-miterlimit="10"/>
</g>
<path d="M342.539 243.82C341.545 243.186 340.358 242.924 339.189 243.08L322.189 250.85C322.189 250.85 316.439 254.1 318.259 264.05L387.099 314.74C386.609 312.4 386.699 308.98 389.329 304.92C391.769 301.13 402.729 295.02 408.649 291.92C380.629 271.53 342.539 243.82 342.539 243.82Z" fill="#2E353A" stroke="#2E353A" stroke-width="1.27267" stroke-linecap="round" stroke-linejoin="round"/>
<path d="M421.529 320.35L385.169 294C384.625 293.606 384.189 293.082 383.901 292.475C383.613 291.868 383.482 291.199 383.521 290.528C383.56 289.858 383.767 289.208 384.123 288.638C384.48 288.069 384.974 287.598 385.559 287.27L391.189 284.2C391.85 283.842 392.598 283.678 393.348 283.726C394.098 283.773 394.819 284.031 395.429 284.47L433.869 312.31" fill="white"/>
<path d="M421.529 320.35L385.169 294C384.625 293.606 384.189 293.082 383.901 292.475C383.613 291.868 383.482 291.199 383.521 290.528C383.56 289.858 383.767 289.208 384.123 288.638C384.48 288.069 384.974 287.598 385.559 287.27L391.189 284.2C391.85 283.842 392.598 283.678 393.348 283.726C394.098 283.773 394.819 284.031 395.429 284.47L433.869 312.31" stroke="#2E353A" stroke-width="0.9473" stroke-miterlimit="10"/>
<g style="mix-blend-mode:multiply" opacity="0.5">
<path d="M421.529 320.35L385.169 294C384.625 293.606 384.189 293.082 383.901 292.475C383.613 291.868 383.482 291.199 383.521 290.528C383.56 289.858 383.767 289.208 384.123 288.638C384.48 288.069 384.974 287.598 385.559 287.27L391.189 284.2C391.85 283.842 392.598 283.678 393.348 283.726C394.098 283.773 394.819 284.031 395.429 284.47L433.869 312.31" fill="#3652AD"/>
<path d="M421.529 320.35L385.169 294C384.625 293.606 384.189 293.082 383.901 292.475C383.613 291.868 383.482 291.199 383.521 290.528C383.56 289.858 383.767 289.208 384.123 288.638C384.48 288.069 384.974 287.598 385.559 287.27L391.189 284.2C391.85 283.842 392.598 283.678 393.348 283.726C394.098 283.773 394.819 284.031 395.429 284.47L433.869 312.31" stroke="#2E353A" stroke-width="0.9473" stroke-miterlimit="10"/>
</g>
</svg>
