<svg width="394" height="383" viewBox="0 0 394 383" fill="none" xmlns="http://www.w3.org/2000/svg">
<g clip-path="url(#clip0_668_4255)">
<path d="M370.057 196.681C365.98 231.151 350.19 271.202 318.651 289.602C271.01 317.416 274.997 360.184 181.996 378.789C168.433 381.568 154.607 382.869 140.763 382.671C133.989 382.551 127.229 382.003 120.525 381.03C61.4099 372.453 21.6347 331.516 7.04745 282.101C-12.1606 217.108 26.1896 174.587 51.5999 148.923C77.0103 123.26 95.6747 43.4124 186.913 24.4128C200.841 21.4611 215.063 20.1173 229.299 20.4078C261.777 21.2285 297.195 31.8239 321.707 54.0078C323.552 55.6492 325.345 57.3727 327.086 59.1783C361.153 94.0258 375.633 149.736 370.057 196.681Z" fill="#3652AD"/>
<path opacity="0.7" d="M370.057 196.681C365.98 231.151 350.19 271.202 318.651 289.602C271.01 317.416 274.997 360.184 181.996 378.789C168.433 381.568 154.607 382.869 140.763 382.671C133.989 382.551 127.229 382.003 120.525 381.03C61.4099 372.453 21.6347 331.516 7.04745 282.101C-12.1606 217.108 26.1896 174.587 51.5999 148.923C77.0103 123.26 95.6747 43.4124 186.913 24.4128C200.841 21.4611 215.063 20.1173 229.299 20.4078C261.777 21.2285 297.195 31.8239 321.707 54.0078C323.552 55.6492 325.345 57.3727 327.086 59.1783C361.153 94.0258 375.633 149.736 370.057 196.681Z" fill="white"/>
<path d="M392.691 346.962H1.94043" stroke="#263238" stroke-linecap="round" stroke-linejoin="round"/>
<g opacity="0.3">
<path d="M13.588 253.212C16.7509 254.582 24.4934 254.41 24.4934 254.41C24.4934 254.41 22.8461 249.362 22.6896 249.059C20.9928 245.521 15.6224 239.678 11.257 240.269C10.5378 240.386 9.85139 240.652 9.24188 241.05C8.63238 241.448 8.11337 241.969 7.71833 242.579C7.32329 243.19 7.06101 243.875 6.94838 244.593C6.83576 245.31 6.87531 246.043 7.06448 246.744C7.79755 249.797 10.8946 252.038 13.588 253.212Z" fill="black"/>
<path d="M16.2652 275.535C19.5599 276.011 26.4458 274.017 26.9729 273.894C28.1166 277.818 29.5227 281.662 31.1819 285.4C32.1374 287.591 33.1587 289.774 34.213 291.966C33.587 291.047 33.0104 290.234 32.9198 290.127C30.35 287.156 23.6206 282.938 19.5681 284.653C18.9023 284.957 18.3082 285.397 17.8243 285.945C17.3403 286.493 16.9774 287.136 16.7592 287.833C16.5409 288.529 16.4721 289.264 16.5573 289.988C16.6425 290.713 16.8797 291.412 17.2536 292.04C18.7527 294.756 22.3439 296.094 25.2514 296.521C28.159 296.947 34.1224 295.363 35.6791 294.928C36.0992 295.749 36.5028 296.57 36.9147 297.391C38.9162 301.355 40.9259 305.302 42.7792 309.242C43.4381 310.621 44.0312 312.016 44.6325 313.403C44.0724 312.582 43.5946 311.901 43.504 311.761C40.9342 308.799 34.2048 304.58 30.1523 306.295C29.4856 306.598 28.8906 307.038 28.4059 307.586C27.9212 308.133 27.5579 308.777 27.3395 309.474C27.1211 310.171 27.0526 310.906 27.1384 311.631C27.2243 312.356 27.4626 313.055 27.8378 313.682C29.3369 316.407 32.9281 317.744 35.8356 318.171C38.7432 318.598 44.13 317.162 45.9833 316.653C46.5599 318.089 47.1282 319.534 47.6306 320.953C47.9436 321.93 48.3143 322.849 48.5696 323.85C48.825 324.852 49.1133 325.804 49.3933 326.772C49.8463 328.643 50.3241 330.58 50.7194 332.419C50.9995 333.699 51.2466 334.922 51.5431 336.161C50.9089 334.766 49.6075 332.058 49.4757 331.869C47.3835 328.545 41.3707 323.358 37.1206 324.441C36.4156 324.64 35.7607 324.985 35.1985 325.453C34.6363 325.922 34.1794 326.502 33.8577 327.158C33.536 327.814 33.3566 328.53 33.3312 329.26C33.3059 329.99 33.4351 330.716 33.7106 331.393C34.7813 334.306 38.1255 336.178 40.9342 337.031C44.0312 337.975 50.8842 337.113 51.7408 337.031C52.1444 339.075 52.5644 341.061 52.8527 342.94C53.0998 344.335 53.3305 345.673 53.5364 346.962H56.2792C56.0156 345.526 55.7356 344.032 55.4555 342.464C55.0437 340.388 54.566 338.18 54.0553 335.899C56.1181 335.074 58.1313 334.132 60.0846 333.075C62.3414 335.537 68.1236 338.352 68.8649 338.714C68.0413 340.642 67.3 342.514 66.5257 344.262C66.1221 345.189 65.702 346.067 65.3396 346.937H68.2389L68.9391 345.296C69.7627 343.342 70.5864 341.241 71.4101 339.075C72.2338 339.247 79.0208 340.618 82.1837 339.895C85.0501 339.247 88.526 337.63 89.8109 334.807C90.1355 334.153 90.3181 333.438 90.3469 332.709C90.3756 331.98 90.2499 331.253 89.978 330.575C89.706 329.898 89.2938 329.285 88.7684 328.777C88.2429 328.269 87.6158 327.876 86.9281 327.626C82.7521 326.222 76.3686 330.95 74.0376 334.109C73.8976 334.29 72.6291 336.481 71.8466 337.868C72.1843 336.982 72.5138 336.128 72.8433 335.209C73.5105 333.395 74.1282 331.573 74.7871 329.604C75.0754 328.652 75.372 327.675 75.6602 326.698C75.9485 325.722 76.1792 324.679 76.4839 323.662C77.0522 321.282 77.5053 318.844 77.9171 316.382C79.5068 316.956 85.1984 318.926 88.1471 318.721C91.0959 318.516 94.7365 317.441 96.4498 314.847C96.8702 314.25 97.1597 313.571 97.2993 312.855C97.4389 312.138 97.4255 311.401 97.26 310.69C97.0945 309.979 96.7805 309.311 96.3387 308.729C95.8968 308.148 95.3368 307.665 94.6953 307.313C90.7829 305.294 83.757 309.012 80.9647 311.778C80.7917 311.95 79.0208 314.158 78.0654 315.389C78.296 313.903 78.5349 312.426 78.7243 310.916C79.2679 306.566 79.6798 302.134 80.1163 297.727C80.2481 296.373 80.3964 295.027 80.5364 293.681C81.0965 293.894 87.8094 296.381 91.1041 296.143C94.0364 295.938 97.6935 294.863 99.415 292.269C99.8354 291.672 100.125 290.993 100.265 290.277C100.404 289.561 100.391 288.823 100.225 288.112C100.06 287.401 99.7458 286.733 99.3039 286.151C98.862 285.57 98.3021 285.087 97.6606 284.735C93.7481 282.716 86.7222 286.426 83.9382 289.192C83.724 289.405 81.1706 292.589 80.5611 293.427C80.8741 290.464 81.22 287.509 81.6731 284.612C82.2075 280.696 82.9999 276.819 84.0452 273.007C84.3088 273.106 91.3018 275.732 94.6789 275.469C97.6111 275.264 101.268 274.189 102.99 271.596C103.41 270.998 103.7 270.319 103.839 269.603C103.979 268.887 103.965 268.149 103.8 267.438C103.634 266.728 103.321 266.06 102.879 265.478C102.437 264.896 101.877 264.413 101.235 264.061C97.3146 262.042 90.2969 265.76 87.5047 268.526C87.2905 268.74 84.5394 272.162 84.0864 272.818C84.1523 272.605 84.1935 272.367 84.2676 272.145C85.4707 268.358 87.0117 264.686 88.872 261.173C89.8768 259.219 90.9476 257.405 92.0266 255.666C93.2786 256.289 99.0278 259.071 102.092 259.195C105.024 259.31 108.805 258.645 110.773 256.248C111.258 255.701 111.621 255.058 111.839 254.362C112.058 253.665 112.127 252.931 112.041 252.206C111.956 251.481 111.718 250.782 111.343 250.155C110.969 249.528 110.466 248.987 109.867 248.566C106.194 246.104 98.8055 249.059 95.7249 251.504C95.5602 251.636 94.0117 253.146 92.8915 254.311C93.3939 253.491 93.8964 252.719 94.3823 251.989C96.2274 249.215 98.0889 246.802 99.7527 244.668C100.708 243.462 101.598 242.395 102.438 241.385C103.986 241.385 110.222 241.172 112.948 239.891C115.674 238.611 118.656 236.329 119.298 233.326C119.474 232.618 119.498 231.882 119.369 231.164C119.24 230.447 118.961 229.764 118.55 229.161C118.139 228.558 117.605 228.048 116.984 227.664C116.362 227.28 115.666 227.031 114.941 226.932C110.559 226.456 105.345 232.439 103.747 236.026C103.607 236.338 102.001 241.426 102.1 241.426H102.191C101.367 242.362 100.486 243.379 99.5468 244.504C97.8335 246.605 95.9144 248.993 94.0034 251.726C91.9057 254.654 89.9805 257.702 88.2377 260.852C86.2687 264.372 84.6149 268.057 83.2957 271.866C83.2957 271.866 83.2957 271.957 83.2545 272.006C83.2545 270.717 83.2545 267.082 83.1886 266.844C82.7191 262.994 79.4409 255.772 75.0837 254.951C74.3575 254.839 73.6156 254.88 72.9066 255.073C72.1977 255.266 71.5377 255.606 70.9699 256.071C70.4021 256.536 69.9394 257.115 69.6121 257.771C69.2849 258.427 69.1004 259.144 69.0709 259.876C68.8155 262.962 71.0641 266.056 73.2551 268.009C75.7261 270.209 82.5956 272.342 83.1392 272.507C81.9055 276.415 80.9369 280.402 80.2399 284.44C79.8198 286.787 79.4656 289.167 79.1444 291.555C79.1444 290.447 79.1444 289.446 79.0867 289.307C78.5843 285.416 75.3143 278.202 70.9735 277.406C70.2507 277.294 69.5121 277.334 68.8059 277.525C68.0997 277.715 67.4416 278.052 66.8745 278.512C66.3074 278.973 65.8439 279.547 65.5142 280.198C65.1844 280.849 64.9959 281.561 64.9607 282.289C64.7054 285.384 66.954 288.478 69.145 290.423C71.336 292.368 77.184 294.338 78.7325 294.83C78.6172 295.749 78.4937 296.668 78.3866 297.588C77.8595 301.995 77.3488 306.394 76.7393 310.719C76.5251 312.237 76.245 313.715 75.9815 315.208C75.9815 314.215 75.9815 313.386 75.9238 313.255C75.4214 309.365 72.1432 302.151 67.8106 301.355C67.0876 301.241 66.3485 301.28 65.6418 301.47C64.935 301.66 64.2764 301.997 63.709 302.457C63.1416 302.918 62.6781 303.493 62.3487 304.145C62.0194 304.796 61.8317 305.509 61.7978 306.238C61.5425 309.332 63.7911 312.426 65.9821 314.371C68.173 316.316 73.461 318.097 75.2896 318.688C74.9684 320.207 74.6471 321.717 74.2682 323.169C73.9882 324.162 73.7823 325.131 73.4446 326.099L72.5138 328.988C71.8466 330.802 71.1795 332.681 70.4876 334.429C70.0181 335.652 69.5403 336.81 69.0709 337.975C69.3097 336.473 69.7133 333.51 69.7216 333.264C69.6784 329.803 68.7424 326.412 67.0034 323.416C67.0198 323.031 66.995 322.646 66.9293 322.266C66.838 321.543 66.5949 320.847 66.2156 320.223C65.8364 319.599 65.3296 319.062 64.7283 318.646C64.1269 318.23 63.4444 317.945 62.7252 317.81C62.0061 317.674 61.2663 317.691 60.5541 317.859C56.2957 318.992 53.594 326.444 53.3964 330.359C53.3964 330.589 53.5364 333.108 53.6517 334.7C53.4375 333.773 53.2399 332.878 53.0092 331.926C52.5644 330.047 52.062 328.192 51.5349 326.181C51.2383 325.221 50.95 324.253 50.6453 323.276C50.3405 322.299 49.9616 321.306 49.6157 320.305C48.792 318.015 47.8119 315.725 46.7905 313.444C48.4378 313.05 54.2695 311.573 56.6169 309.775C58.9644 307.978 61.4189 305.081 61.3942 301.978C61.4153 301.249 61.2816 300.523 61.0018 299.849C60.7221 299.174 60.3027 298.566 59.7709 298.064C59.2391 297.562 58.607 297.177 57.9159 296.936C57.2248 296.694 56.4903 296.6 55.7603 296.66C51.3784 297.128 47.5812 304.088 46.7823 307.929C46.7328 308.167 46.4775 310.99 46.3622 312.541C45.7362 311.17 45.1184 309.808 44.4348 308.437C42.4827 304.506 40.3741 300.591 38.2902 296.668C37.6587 295.47 37.03 294.269 36.404 293.065C36.997 292.934 43.9653 291.326 46.5928 289.315C48.9238 287.534 51.3948 284.612 51.3701 281.518C51.3909 280.789 51.2574 280.064 50.9783 279.389C50.6991 278.715 50.2805 278.107 49.7499 277.604C49.2192 277.102 48.5882 276.716 47.8981 276.473C47.208 276.23 46.4742 276.134 45.7444 276.192C41.3543 276.668 37.5571 283.627 36.7582 287.468C36.7005 287.755 36.3298 291.81 36.2887 292.852C34.9131 290.201 33.5623 287.55 32.335 284.883C30.6612 281.295 29.225 277.602 28.0355 273.828C28.3073 273.77 35.5885 272.121 38.282 270.061C40.6129 268.28 43.084 265.366 43.0593 262.264C43.0803 261.535 42.9466 260.809 42.6669 260.134C42.3871 259.46 41.9677 258.851 41.4359 258.35C40.9042 257.848 40.2721 257.463 39.581 257.221C38.8899 256.979 38.1553 256.885 37.4253 256.946C33.0434 257.414 29.2463 264.373 28.4473 268.214C28.3896 268.518 27.9943 272.884 27.9778 273.672C27.9119 273.459 27.8131 273.237 27.7472 273.015C26.6603 269.193 25.916 265.282 25.5233 261.328C25.2762 259.145 25.1608 257.053 25.1032 255.009C26.487 254.837 32.821 253.999 35.4485 252.415C38.076 250.832 40.7447 248.263 41.066 245.185C41.1657 244.462 41.1116 243.726 40.9072 243.025C40.7028 242.324 40.3527 241.674 39.8796 241.117C39.4065 240.559 38.821 240.107 38.1612 239.79C37.5014 239.473 36.782 239.298 36.0498 239.276C31.6431 239.276 27.0965 245.768 25.8857 249.494C25.8198 249.699 25.375 251.833 25.062 253.4C25.062 252.473 25.0126 251.521 25.0126 250.635C25.0126 247.352 25.235 244.274 25.4409 241.607C25.5727 240.08 25.7209 238.701 25.8774 237.405C27.1459 236.535 32.2444 232.948 33.8176 230.388C35.3909 227.827 36.5934 224.273 35.465 221.36C35.2187 220.673 34.8302 220.045 34.3246 219.517C33.8191 218.99 33.2078 218.574 32.5305 218.297C31.8533 218.02 31.1251 217.887 30.3932 217.909C29.6614 217.931 28.9423 218.105 28.2826 218.421C24.3701 220.432 23.3405 228.27 23.983 232.16C24.0406 232.489 25.5233 237.618 25.6303 237.577L25.7045 237.52C25.5315 238.759 25.3668 240.088 25.2103 241.549C24.9384 244.241 24.6584 247.294 24.5843 250.618C24.4566 254.209 24.5419 257.805 24.8396 261.386C25.1516 265.399 25.8214 269.376 26.8411 273.27C26.8448 273.316 26.8448 273.363 26.8411 273.409C26.1492 272.326 24.1065 269.355 23.9253 269.142C21.3555 266.179 14.6261 261.952 10.5736 263.667C9.90781 263.972 9.31367 264.412 8.82974 264.959C8.34582 265.507 7.98293 266.15 7.76466 266.847C7.54639 267.543 7.4776 268.278 7.56278 269.003C7.64796 269.728 7.88519 270.426 8.25907 271.054C9.76639 273.77 13.3576 275.116 16.2652 275.535Z" fill="black"/>
<path d="M91.845 254.902C91.9109 254.943 93.2534 249.781 93.3029 249.444C93.8383 245.562 92.6027 237.741 88.6326 235.829C87.9644 235.529 87.2404 235.373 86.5076 235.371C85.7748 235.369 85.0498 235.521 84.3799 235.816C83.71 236.112 83.1101 236.545 82.6195 237.088C82.1289 237.63 81.7585 238.269 81.5326 238.964C80.47 241.869 81.8209 245.448 83.4188 247.91C85.2885 250.79 91.8367 254.902 91.845 254.902Z" fill="black"/>
</g>
<g opacity="0.3">
<path d="M168.661 35.4186C171.824 36.7974 179.559 36.6251 179.567 36.6251C179.575 36.6251 177.919 31.5777 177.755 31.2658C176.058 27.7285 170.688 21.8851 166.322 22.476C165.6 22.5947 164.911 22.8635 164.299 23.2649C163.688 23.6662 163.168 24.1912 162.773 24.8056C162.379 25.4201 162.118 26.1104 162.009 26.8317C161.899 27.553 161.943 28.2892 162.138 28.9924C162.863 32.0045 165.968 34.245 168.661 35.4186Z" fill="black"/>
<path d="M171.33 57.7503C174.624 58.2263 181.518 56.2319 182.037 56.1088C183.197 60.0326 184.614 63.8764 186.279 67.6152C187.227 69.8065 188.248 71.9814 189.31 74.181C188.676 73.2618 188.108 72.4493 188.017 72.3426C185.439 69.3798 178.718 65.1531 174.657 66.8684C173.991 67.1725 173.397 67.6127 172.913 68.1604C172.429 68.7081 172.067 69.3512 171.848 70.0478C171.63 70.7444 171.561 71.4789 171.646 72.2037C171.732 72.9285 171.969 73.6273 172.343 74.2548C173.842 76.9714 177.433 78.3174 180.341 78.7359C183.248 79.1545 189.212 77.5869 190.777 77.1437C191.188 77.9645 191.6 78.7852 192.012 79.6059C194.014 83.5699 196.023 87.5176 197.877 91.457C198.527 92.844 199.12 94.231 199.722 95.618C199.162 94.7973 198.684 94.1243 198.601 94.0258C196.023 91.0548 189.302 86.8364 185.241 88.5517C184.576 88.8557 183.982 89.2959 183.498 89.8437C183.014 90.3914 182.651 91.0345 182.433 91.731C182.214 92.4276 182.145 93.1622 182.231 93.887C182.316 94.6118 182.553 95.3106 182.927 95.9381C184.434 98.6547 188.017 100.001 190.925 100.419C193.832 100.838 199.219 99.4179 201.081 98.9009C201.649 100.345 202.226 101.782 202.728 103.201C203.041 104.178 203.403 105.097 203.659 106.099C203.914 107.1 204.211 108.06 204.482 109.02C204.936 110.9 205.413 112.828 205.8 114.675C206.089 115.955 206.336 117.178 206.624 118.409C205.982 117.022 204.688 114.306 204.548 114.117C202.456 110.834 196.452 105.606 192.193 106.73C191.49 106.932 190.837 107.278 190.276 107.746C189.715 108.215 189.26 108.796 188.939 109.452C188.619 110.107 188.44 110.822 188.414 111.551C188.389 112.28 188.517 113.006 188.792 113.682C189.854 116.595 193.198 118.467 196.007 119.32C199.104 120.264 205.957 119.402 206.813 119.32C207.225 121.364 207.637 123.35 207.934 125.229C208.181 126.625 208.403 127.962 208.609 129.251H211.352C211.099 127.823 210.825 126.324 210.528 124.753C210.125 122.685 209.647 120.477 209.136 118.188C211.197 117.365 213.208 116.422 215.157 115.364C217.414 117.827 223.196 120.65 223.946 121.011C223.122 122.94 222.373 124.803 221.607 126.551C221.203 127.478 220.783 128.356 220.421 129.226H223.32C223.551 128.676 223.781 128.135 224.012 127.585C224.835 125.632 225.659 123.522 226.483 121.356C227.306 121.528 234.094 122.899 237.256 122.176C240.123 121.528 243.599 119.911 244.884 117.088C245.208 116.434 245.391 115.719 245.42 114.99C245.448 114.261 245.323 113.534 245.051 112.856C244.779 112.179 244.367 111.566 243.841 111.058C243.316 110.55 242.689 110.157 242.001 109.907C237.825 108.503 231.45 113.231 229.11 116.39C228.97 116.579 227.702 118.762 226.928 120.157C227.257 119.271 227.595 118.409 227.924 117.49C228.591 115.676 229.201 113.854 229.868 111.893L230.741 108.979C231.054 108.019 231.26 106.96 231.524 105.943C232.092 103.563 232.553 101.125 232.965 98.6629C234.555 99.2374 240.238 101.215 243.187 101.002C246.136 100.789 249.776 99.7298 251.498 97.1281C251.918 96.5307 252.208 95.8518 252.347 95.1355C252.487 94.4193 252.474 93.6817 252.308 92.9709C252.142 92.2601 251.829 91.5921 251.387 91.0102C250.945 90.4284 250.385 89.9458 249.743 89.594C245.823 87.5832 238.805 91.2929 236.013 94.0587C235.84 94.231 234.061 96.4387 233.105 97.6698C233.344 96.1843 233.583 94.707 233.772 93.1969C234.316 88.8471 234.728 84.4235 235.156 80.008C235.288 78.6539 235.436 77.3161 235.576 75.9619C236.144 76.1753 242.849 78.6621 246.152 78.4241C249.084 78.2189 252.741 77.1437 254.463 74.5503C254.882 73.9525 255.171 73.2736 255.309 72.5575C255.448 71.8415 255.435 71.1044 255.269 70.394C255.104 69.6836 254.79 69.0158 254.349 68.4339C253.908 67.8519 253.349 67.3689 252.709 67.0161C248.788 65.0054 241.77 68.715 238.978 71.4808C238.764 71.686 236.21 74.8704 235.601 75.7075C235.922 72.7447 236.26 69.7901 236.713 66.893C237.31 62.977 238.16 59.1033 239.258 55.2963C239.522 55.3948 246.506 58.0211 249.883 57.7585C252.816 57.5533 256.473 56.4864 258.194 53.8847C258.613 53.2773 258.898 52.5881 259.029 51.8626C259.16 51.1372 259.135 50.3923 258.955 49.6774C258.775 48.9624 258.445 48.2938 257.985 47.716C257.526 47.1381 256.949 46.6643 256.292 46.3259C252.379 44.3152 245.353 48.0248 242.561 50.7906C242.347 51.004 239.604 54.4346 239.151 55.0911C239.217 54.8696 239.258 54.6315 239.324 54.41C240.535 50.6244 242.078 46.9525 243.936 43.437C244.941 41.4837 246.004 39.6699 247.083 37.93C248.335 38.5538 254.084 41.336 257.148 41.4591C260.089 41.574 263.861 40.9092 265.838 38.5127C266.322 37.9649 266.685 37.3216 266.902 36.6247C267.12 35.9279 267.188 35.1932 267.102 34.4684C267.015 33.7437 266.777 33.0451 266.402 32.4184C266.026 31.7916 265.523 31.2507 264.924 30.8308C261.25 28.3687 253.862 31.3233 250.789 33.769C250.616 33.9003 249.068 35.4104 247.956 36.5758C248.45 35.7551 248.953 34.9836 249.447 34.2532C251.292 31.4874 253.153 29.0663 254.817 26.9324C255.773 25.7342 256.654 24.6591 257.502 23.6496C259.051 23.6496 265.286 23.4362 268.012 22.1641C270.739 20.892 273.72 18.5858 274.412 15.5738C274.588 14.8655 274.612 14.1285 274.482 13.4105C274.353 12.6925 274.073 12.0097 273.661 11.4066C273.249 10.8035 272.715 10.2936 272.092 9.91C271.469 9.52643 270.772 9.27784 270.047 9.18039C265.624 8.7372 260.41 14.6956 258.812 18.2739C258.68 18.5858 257.074 23.6742 257.165 23.6742H257.263C256.44 24.6098 255.55 25.6275 254.619 26.7601C252.898 28.8529 250.987 31.2412 249.076 33.9824C246.974 36.9045 245.048 39.9494 243.31 43.1005C241.336 46.6173 239.682 50.3034 238.368 54.1145C238.368 54.1145 238.368 54.2048 238.368 54.254C238.368 52.9655 238.368 49.3708 238.294 49.0917C237.792 45.2015 234.522 37.9875 230.189 37.1832C229.463 37.0691 228.72 37.1096 228.01 37.3019C227.3 37.4943 226.639 37.8342 226.07 38.2993C225.501 38.7645 225.038 39.3442 224.71 40.0006C224.382 40.6569 224.198 41.3749 224.168 42.1074C223.913 45.1933 226.162 48.2874 228.361 50.2407C230.832 52.4402 237.693 54.5741 238.245 54.7382C237.016 58.6481 236.047 62.6345 235.346 66.6714C234.925 69.0187 234.579 71.3987 234.258 73.7952C234.258 72.6791 234.217 71.686 234.201 71.5465C233.69 67.6563 230.42 60.434 226.087 59.6379C225.361 59.5251 224.619 59.5665 223.91 59.7595C223.201 59.9525 222.541 60.2926 221.974 60.7576C221.406 61.2226 220.943 61.8019 220.616 62.4576C220.289 63.1133 220.104 63.8305 220.075 64.5622C219.819 67.6481 222.068 70.7422 224.259 72.6955C226.45 74.6488 232.298 76.6103 233.838 77.0945C233.731 78.0137 233.608 78.9329 233.492 79.8521C232.965 84.2593 232.463 88.6584 231.845 92.9835C231.623 94.5018 231.351 95.9873 231.079 97.4728C231.079 96.4798 231.038 95.6508 231.021 95.5277C230.519 91.6376 227.249 84.4153 222.916 83.6192C222.19 83.5064 221.447 83.5479 220.738 83.7408C220.029 83.9337 219.368 84.2737 218.8 84.7385C218.231 85.2034 217.768 85.7826 217.44 86.4383C217.111 87.094 216.926 87.8114 216.895 88.5435C216.64 91.6293 218.889 94.7234 221.088 96.6767C223.287 98.63 228.558 100.395 230.395 100.985C230.074 102.504 229.753 104.022 229.374 105.475C229.086 106.46 228.888 107.428 228.55 108.405C228.213 109.381 227.924 110.333 227.611 111.285C226.952 113.099 226.277 114.979 225.585 116.727C225.115 117.95 224.646 119.107 224.177 120.272C224.415 118.77 224.819 115.808 224.819 115.561C224.781 112.101 223.848 108.709 222.109 105.713C222.117 105.328 222.093 104.944 222.035 104.564C221.943 103.84 221.7 103.143 221.321 102.519C220.942 101.895 220.435 101.358 219.834 100.941C219.233 100.525 218.551 100.239 217.832 100.103C217.112 99.966 216.372 99.9816 215.66 100.148C211.393 101.281 208.691 108.733 208.494 112.648C208.494 112.878 208.634 115.397 208.757 116.989C208.543 116.062 208.346 115.167 208.115 114.215C207.662 112.344 207.159 110.481 206.632 108.47C206.344 107.51 206.047 106.542 205.751 105.565C205.454 104.588 205.059 103.595 204.721 102.594C203.898 100.304 202.909 98.0145 201.888 95.7411C203.535 95.3472 209.375 93.8617 211.714 92.0725C214.054 90.2834 216.516 87.3698 216.5 84.2675C216.52 83.5383 216.385 82.8131 216.105 82.1392C215.825 81.4653 215.405 80.8577 214.874 80.356C214.342 79.8543 213.711 79.4697 213.02 79.2274C212.33 78.985 211.596 78.8903 210.866 78.9493C206.484 79.4253 202.679 86.3357 201.888 90.2177C201.838 90.4557 201.575 93.279 201.46 94.8301C200.834 93.4677 200.216 92.0972 199.54 90.7266C197.58 86.7953 195.48 82.8805 193.396 78.9657C192.753 77.7675 192.136 76.561 191.51 75.3628C192.094 75.2233 199.071 73.6147 201.69 71.6039C204.021 69.823 206.5 66.9094 206.476 63.8071C206.496 63.0779 206.361 62.3527 206.081 61.6788C205.801 61.0049 205.381 60.3973 204.85 59.8956C204.318 59.3939 203.687 59.0093 202.996 58.767C202.306 58.5246 201.572 58.4299 200.842 58.4889C196.46 58.9567 192.655 65.8753 191.864 69.7573C191.798 70.0446 191.435 74.1071 191.394 75.1412C190.011 72.4903 188.66 69.8394 187.432 67.1721C185.763 63.5799 184.327 59.8845 183.133 56.1088C183.405 56.0432 190.694 54.3935 193.379 52.3418C195.71 50.5526 198.19 47.6391 198.165 44.5368C198.185 43.8076 198.05 43.0824 197.77 42.4084C197.49 41.7345 197.07 41.1269 196.539 40.6252C196.007 40.1235 195.376 39.739 194.685 39.4966C193.995 39.2542 193.261 39.1595 192.531 39.2185C188.149 39.6945 184.344 46.605 183.553 50.4869C183.487 50.7906 183.092 55.1568 183.083 55.9529C183.009 55.7313 182.919 55.5097 182.853 55.2963C181.763 51.4713 181.017 47.5576 180.621 43.6012C180.374 41.4263 180.266 39.3252 180.201 37.2816C181.593 37.1093 187.927 36.2722 190.546 34.6882C193.165 33.1042 195.842 30.5436 196.163 27.4577C196.263 26.7352 196.209 26 196.005 25.2996C195.801 24.5992 195.452 23.9494 194.98 23.3922C194.508 22.835 193.923 22.383 193.264 22.0653C192.605 21.7477 191.887 21.5717 191.155 21.5486C186.741 21.5486 182.194 28.0404 180.983 31.7747C180.917 31.9716 180.472 34.1137 180.159 35.673C180.159 34.7456 180.11 33.7936 180.118 32.9154C180.118 29.6326 180.332 26.5467 180.538 23.8876C180.67 22.3611 180.818 20.9823 180.975 19.6937C182.252 18.8156 187.35 15.2291 188.915 12.6684C190.48 10.1078 191.699 6.5541 190.562 3.64057C190.317 2.95384 189.929 2.32625 189.425 1.79859C188.92 1.27094 188.309 0.855037 187.633 0.577917C186.956 0.300798 186.228 0.168667 185.497 0.190116C184.766 0.211564 184.047 0.38611 183.388 0.702409C179.468 2.72137 178.446 10.551 179.089 14.4412C179.146 14.7777 180.621 19.8989 180.687 19.8579L180.769 19.8086C180.596 21.0397 180.423 22.3775 180.266 23.8301C179.995 26.5221 179.723 29.5751 179.64 32.899C179.521 36.4929 179.606 40.0907 179.896 43.675C180.205 47.6734 180.869 51.6366 181.881 55.5179C181.89 55.5657 181.903 55.6125 181.922 55.6574C181.23 54.5741 179.187 51.6031 179.006 51.3897C176.395 48.3859 169.707 44.1674 165.687 45.8827C165.021 46.1858 164.426 46.6255 163.941 47.1731C163.456 47.7207 163.093 48.3639 162.875 49.0609C162.656 49.7579 162.588 50.4928 162.674 51.218C162.759 51.9431 162.998 52.642 163.373 53.2692C164.864 55.9857 168.422 57.3235 171.33 57.7503Z" fill="black"/>
<path d="M246.911 37.1175C246.985 37.1175 248.319 31.9881 248.369 31.6516C248.912 27.7696 247.669 19.9482 243.698 18.0359C243.031 17.7362 242.307 17.5803 241.575 17.5782C240.843 17.5761 240.119 17.728 239.449 18.0239C238.78 18.3198 238.181 18.753 237.691 19.2953C237.201 19.8376 236.832 20.4768 236.607 21.171C235.536 24.0846 236.887 27.6547 238.485 30.1168C240.363 33.0057 246.911 37.1093 246.911 37.1175Z" fill="black"/>
</g>
<path d="M197.185 35.7469H42.7707C37.4074 35.7469 33.0596 40.0791 33.0596 45.4231V251.152C33.0596 256.496 37.4074 260.828 42.7707 260.828H197.185C202.548 260.828 206.896 256.496 206.896 251.152V45.4231C206.896 40.0791 202.548 35.7469 197.185 35.7469Z" fill="#263238"/>
<path d="M198.585 49.0588H41.3789V250.15H198.585V49.0588Z" fill="white" stroke="#263238" stroke-linecap="round" stroke-linejoin="round"/>
<path d="M88.0566 79.1709H151.908" stroke="#263238" stroke-linecap="round" stroke-linejoin="round"/>
<path d="M58.7005 122.464C64.5369 122.464 69.2683 117.749 69.2683 111.934C69.2683 106.118 64.5369 101.404 58.7005 101.404C52.8641 101.404 48.1328 106.118 48.1328 111.934C48.1328 117.749 52.8641 122.464 58.7005 122.464Z" stroke="#263238" stroke-linecap="round" stroke-linejoin="round"/>
<path d="M74.1035 112.812H181.972" stroke="#263238" stroke-linecap="round" stroke-linejoin="round"/>
<path d="M54.2939 109.307L58.2558 115.446L71.0227 98.7777" stroke="#3652AD" stroke-width="4" stroke-linecap="round" stroke-linejoin="round"/>
<path d="M61.1255 148.073C66.8058 146.737 70.3238 141.066 68.9831 135.406C67.6425 129.746 61.9508 126.241 56.2705 127.577C50.5902 128.913 47.0722 134.584 48.4129 140.244C49.7535 145.904 55.4452 149.409 61.1255 148.073Z" stroke="#263238" stroke-linecap="round" stroke-linejoin="round"/>
<path d="M74.1035 138.697H181.972" stroke="#263238" stroke-linecap="round" stroke-linejoin="round"/>
<path d="M54.2939 135.185L58.2558 141.332L71.0227 124.655" stroke="#3652AD" stroke-width="4" stroke-linecap="round" stroke-linejoin="round"/>
<path d="M61.1216 173.956C66.8019 172.62 70.3199 166.949 68.9792 161.289C67.6386 155.629 61.9469 152.124 56.2666 153.459C50.5863 154.795 47.0683 160.467 48.409 166.126C49.7496 171.786 55.4413 175.292 61.1216 173.956Z" stroke="#263238" stroke-linecap="round" stroke-linejoin="round"/>
<path d="M74.1035 164.583H181.972" stroke="#263238" stroke-linecap="round" stroke-linejoin="round"/>
<path d="M54.2939 161.07L58.2558 167.209L71.0227 150.54" stroke="#3652AD" stroke-width="4" stroke-linecap="round" stroke-linejoin="round"/>
<path d="M66.1695 197.028C70.2964 192.916 70.2964 186.249 66.1695 182.136C62.0425 178.024 55.3514 178.024 51.2245 182.136C47.0975 186.249 47.0975 192.916 51.2245 197.028C55.3514 201.14 62.0425 201.14 66.1695 197.028Z" stroke="#263238" stroke-linecap="round" stroke-linejoin="round"/>
<path d="M74.1035 190.46H181.972" stroke="#263238" stroke-linecap="round" stroke-linejoin="round"/>
<path d="M54.2939 186.955L58.2558 193.094L71.0227 176.426" stroke="#3652AD" stroke-width="4" stroke-linecap="round" stroke-linejoin="round"/>
<path d="M58.7005 225.997C64.5369 225.997 69.2683 221.282 69.2683 215.467C69.2683 209.651 64.5369 204.937 58.7005 204.937C52.8641 204.937 48.1328 209.651 48.1328 215.467C48.1328 221.282 52.8641 225.997 58.7005 225.997Z" stroke="#263238" stroke-linecap="round" stroke-linejoin="round"/>
<path d="M74.1035 216.345H181.972" stroke="#263238" stroke-linecap="round" stroke-linejoin="round"/>
<path d="M54.2939 212.832L58.2558 218.98L71.0227 202.303" stroke="#3652AD" stroke-width="4" stroke-linecap="round" stroke-linejoin="round"/>
<path d="M140.689 31.2001C139.928 31.1872 139.184 30.9708 138.535 30.5736C137.887 30.1763 137.357 29.6127 137.002 28.9417C136.647 28.2707 136.479 27.517 136.516 26.7593C136.553 26.0016 136.794 25.2677 137.213 24.6344C138.627 22.3784 139.407 19.785 139.47 17.1258C139.534 14.4666 138.879 11.8392 137.573 9.5188C136.268 7.19838 134.361 5.27018 132.052 3.93605C129.742 2.60191 127.115 1.91089 124.446 1.93532C121.776 1.95974 119.163 2.69872 116.878 4.07489C114.593 5.45106 112.722 7.41383 111.46 9.75775C110.198 12.1017 109.591 14.7405 109.704 17.3982C109.816 20.0558 110.643 22.6344 112.099 24.8642C112.492 25.5011 112.706 26.2313 112.72 26.9788C112.734 27.7262 112.547 28.4637 112.178 29.1146C111.808 29.7655 111.271 30.306 110.621 30.68C109.972 31.054 109.233 31.2477 108.483 31.2411H82.5869L89.5881 51.2748H159.6L166.602 31.2411L140.689 31.2001ZM124.586 22.6893C123.554 22.6909 122.546 22.3876 121.687 21.8178C120.829 21.2479 120.159 20.4371 119.763 19.488C119.367 18.5388 119.263 17.494 119.463 16.4857C119.663 15.4774 120.159 14.551 120.888 13.8236C121.617 13.0962 122.546 12.6006 123.558 12.3995C124.569 12.1984 125.618 12.3008 126.571 12.6937C127.524 13.0867 128.339 13.7526 128.912 14.6071C129.486 15.4616 129.792 16.4663 129.792 17.4942C129.792 18.8706 129.243 20.1908 128.267 21.1648C127.291 22.1388 125.967 22.6871 124.586 22.6893Z" fill="white" stroke="#263238" stroke-linecap="round" stroke-linejoin="round"/>
<path d="M208.733 346.954H299.699V265.801H208.733V346.954Z" fill="#3652AD" stroke="#263238" stroke-linecap="round" stroke-linejoin="round"/>
<path d="M208.74 346.954H238.03V265.801H208.74V346.954Z" fill="#263238" stroke="#263238" stroke-linecap="round" stroke-linejoin="round"/>
<path d="M219.457 287.936H227.314V265.801H219.457V287.936Z" fill="white" stroke="#263238" stroke-linecap="round" stroke-linejoin="round"/>
<path d="M280.821 282.552H294.37V274.279H280.821V282.552Z" stroke="#263238" stroke-linecap="round" stroke-linejoin="round"/>
<path d="M144.528 346.954H235.494V265.801H144.528V346.954Z" fill="#3652AD" stroke="#263238" stroke-linecap="round" stroke-linejoin="round"/>
<path d="M144.535 346.954H173.825V265.801H144.535V346.954Z" fill="#263238" stroke="#263238" stroke-linecap="round" stroke-linejoin="round"/>
<path d="M155.252 287.936H163.109V265.801H155.252V287.936Z" fill="white" stroke="#263238" stroke-linecap="round" stroke-linejoin="round"/>
<path d="M215.915 282.552H229.465V274.279H215.915V282.552Z" stroke="#263238" stroke-linecap="round" stroke-linejoin="round"/>
<path d="M79.3421 346.954H170.309V265.801H79.3421L79.3421 346.954Z" fill="#3652AD" stroke="#263238" stroke-linecap="round" stroke-linejoin="round"/>
<path d="M79.342 346.954H108.632L108.632 265.801H79.342L79.342 346.954Z" fill="#263238" stroke="#263238" stroke-linecap="round" stroke-linejoin="round"/>
<path d="M90.0582 287.936H97.916V265.801H90.0582V287.936Z" fill="white" stroke="#263238" stroke-linecap="round" stroke-linejoin="round"/>
<path d="M152.105 282.552H165.654V274.279H152.105V282.552Z" stroke="#263238" stroke-linecap="round" stroke-linejoin="round"/>
<path d="M177.573 265.711H268.539V184.559H177.573V265.711Z" fill="#3652AD" stroke="#263238" stroke-linecap="round" stroke-linejoin="round"/>
<path d="M177.581 265.711H206.871V184.559H177.581V265.711Z" fill="#263238" stroke="#263238" stroke-linecap="round" stroke-linejoin="round"/>
<path d="M188.297 206.685H196.155V184.551H188.297V206.685Z" fill="white" stroke="#263238" stroke-linecap="round" stroke-linejoin="round"/>
<path d="M255.912 232.045H265.088V185.445H255.912V232.045Z" stroke="#263238" stroke-linecap="round" stroke-linejoin="round"/>
<path d="M154.387 184.403H245.354V103.251L154.387 103.251V184.403Z" fill="#3652AD" stroke="#263238" stroke-linecap="round" stroke-linejoin="round"/>
<path d="M154.387 184.403H183.677V103.251H154.387V184.403Z" fill="#263238" stroke="#263238" stroke-linecap="round" stroke-linejoin="round"/>
<path d="M165.094 125.385H172.952V103.251H165.094V125.385Z" fill="white" stroke="#263238" stroke-linecap="round" stroke-linejoin="round"/>
<path d="M231.869 150.688H241.045V104.088H231.869V150.688Z" stroke="#263238" stroke-linecap="round" stroke-linejoin="round"/>
<path d="M111.185 265.711H202.151V184.559H111.185L111.185 265.711Z" fill="#3652AD" stroke="#263238" stroke-linecap="round" stroke-linejoin="round"/>
<path d="M111.194 265.711H140.483V184.559H111.194L111.194 265.711Z" fill="#263238" stroke="#263238" stroke-linecap="round" stroke-linejoin="round"/>
<path d="M121.909 206.685H129.767V184.551H121.909V206.685Z" fill="white" stroke="#263238" stroke-linecap="round" stroke-linejoin="round"/>
<path d="M187.729 232.045H196.904V185.445H187.729V232.045Z" stroke="#263238" stroke-linecap="round" stroke-linejoin="round"/>
<path d="M290.836 164.533C290.868 164.422 290.923 164.318 290.998 164.229C291.073 164.14 291.166 164.067 291.272 164.017C291.377 163.967 291.491 163.939 291.608 163.936C291.725 163.933 291.841 163.955 291.948 164L297.203 166.331L291.578 161.037C291.397 160.899 291.28 160.695 291.25 160.47C291.221 160.246 291.282 160.019 291.421 159.839C291.56 159.659 291.764 159.542 291.99 159.513C292.215 159.484 292.443 159.545 292.624 159.683L298.752 163.499L295.202 159.158C295.084 158.999 295.027 158.803 295.043 158.606C295.058 158.409 295.145 158.224 295.286 158.085C295.427 157.947 295.614 157.863 295.812 157.851C296.01 157.838 296.205 157.897 296.363 158.017L303.43 163.967L302.763 161.374C302.706 161.128 302.743 160.869 302.867 160.649C302.992 160.429 303.195 160.263 303.436 160.185C303.677 160.107 303.938 160.121 304.169 160.226C304.4 160.33 304.583 160.517 304.682 160.75C305.135 161.883 306 164.033 306.33 164.714C306.905 165.966 307.265 167.306 307.392 168.678C307.334 169.499 307.326 171.354 307.326 171.354L320.538 181.711L321.559 180.505L325.134 183.878L325.027 185.207L328.28 187.669C328.28 187.669 350.083 176.631 352.925 176.442C355.766 176.253 359.704 181.219 357.999 186.192C356.294 191.166 327.449 199.003 326.501 199.069C325.554 199.135 304.748 174.915 304.748 174.915C303.011 174.271 301.314 173.522 299.666 172.675C298.373 171.903 293.118 169.819 291.429 169.162C291.29 169.104 291.178 168.995 291.116 168.859C291.053 168.722 291.045 168.566 291.092 168.424C291.139 168.284 291.237 168.167 291.367 168.095C291.496 168.024 291.648 168.003 291.792 168.038L296.157 169.064L291.1 165.371C290.981 165.27 290.893 165.138 290.846 164.99C290.8 164.842 290.796 164.684 290.836 164.533Z" fill="#263238" stroke="#263238" stroke-linecap="round" stroke-linejoin="round"/>
<path d="M241.103 284.333L248.351 278.555L257.222 271.489L283.036 250.905L283.233 251.037L283.258 251.053L283.275 251.07L308.759 268.649L317.852 274.919L325.438 280.156L294.691 148.759L292.92 148.809L290.663 148.866L260.204 149.687L241.103 284.333Z" fill="#263238" stroke="#263238" stroke-linecap="round" stroke-linejoin="round"/>
<path d="M283.102 250.93L283.118 250.905L283.267 251.071L283.102 250.93Z" fill="white" stroke="#263238" stroke-linecap="round" stroke-linejoin="round"/>
<path d="M248.351 278.555L257.222 271.489L268.374 149.687L283.274 149.071L263.794 149.687L248.351 278.555Z" fill="white" stroke="#263238" stroke-linecap="round" stroke-linejoin="round"/>
<path d="M290.654 148.833L290.663 148.866L308.759 268.649L317.852 274.919L292.919 148.809L292.911 148.759L290.654 148.833Z" fill="white" stroke="#263238" stroke-linecap="round" stroke-linejoin="round"/>
<path d="M225.494 135.332C225.494 133.527 222.455 131.59 222.636 129.834C222.817 128.077 226.202 126.764 226.573 125.041C226.944 123.317 224.374 120.757 224.926 119.066C225.477 117.375 229.044 116.825 229.777 115.2C230.51 113.575 228.525 110.563 229.423 109.02C230.321 107.477 233.928 107.683 234.974 106.246C236.02 104.81 234.719 101.453 235.913 100.132C237.108 98.8106 240.6 99.7544 241.926 98.5644C243.252 97.3744 242.667 93.8207 244.117 92.7702C245.567 91.7196 248.771 93.3693 250.319 92.4747C251.868 91.5801 252.033 87.9936 253.672 87.2632C255.311 86.5327 258.087 88.8143 259.8 88.2644C261.513 87.7145 262.411 84.2347 264.174 83.8654C265.936 83.4961 268.16 86.3275 269.939 86.1224C271.718 85.9172 273.325 82.7246 275.128 82.7246C276.932 82.7246 278.563 85.9418 280.326 86.1224C282.088 86.3029 284.378 83.4961 286.091 83.8654C287.805 84.2347 288.777 87.7145 290.465 88.2644C292.154 88.8143 294.971 86.5409 296.593 87.2632C298.216 87.9854 298.438 91.6294 299.946 92.4501C301.453 93.2708 304.707 91.695 306.148 92.7455C307.589 93.796 307.013 97.3497 308.339 98.5398C309.665 99.7298 313.149 98.786 314.352 100.107C315.554 101.429 314.236 104.785 315.291 106.222C316.345 107.658 319.944 107.453 320.842 108.996C321.74 110.539 319.755 113.542 320.488 115.176C321.221 116.809 324.788 117.342 325.34 119.049C325.891 120.757 323.322 123.26 323.692 125.016C324.063 126.772 327.44 128.02 327.621 129.809C327.802 131.598 324.771 133.502 324.771 135.308C324.771 137.113 327.811 139.05 327.621 140.807C327.432 142.563 324.063 143.868 323.692 145.6C323.322 147.331 325.891 149.884 325.34 151.566C324.788 153.249 321.221 153.815 320.488 155.432C319.755 157.048 321.74 160.077 320.842 161.612C319.944 163.146 316.337 162.949 315.291 164.386C314.245 165.822 315.546 169.187 314.352 170.508C313.157 171.83 309.665 170.878 308.339 172.076C307.013 173.274 307.598 176.819 306.148 177.87C304.698 178.921 301.494 177.263 299.946 178.157C298.397 179.052 298.232 182.647 296.593 183.377C294.954 184.107 292.17 181.818 290.465 182.376C288.76 182.934 287.854 186.397 286.091 186.767C284.329 187.136 282.105 184.304 280.326 184.51C278.547 184.715 276.94 187.907 275.128 187.907C273.316 187.907 271.702 184.698 269.939 184.51C268.177 184.321 265.887 187.136 264.174 186.767C262.46 186.397 261.488 182.917 259.8 182.368C258.111 181.818 255.294 184.091 253.672 183.369C252.049 182.647 251.86 179.052 250.319 178.157C248.779 177.263 245.559 178.912 244.117 177.862C242.676 176.811 243.252 173.266 241.926 172.117C240.6 170.968 237.108 171.871 235.913 170.549C234.719 169.228 236.029 165.871 234.974 164.427C233.92 162.982 230.321 163.196 229.423 161.653C228.525 160.11 230.51 157.106 229.777 155.473C229.044 153.839 225.477 153.306 224.926 151.607C224.374 149.908 226.944 147.397 226.573 145.641C226.202 143.884 222.825 142.637 222.644 140.848C222.463 139.058 225.494 137.13 225.494 135.332Z" fill="white" stroke="#263238" stroke-linecap="round" stroke-linejoin="round"/>
<path d="M275.145 177.394C298.459 177.394 317.358 158.562 317.358 135.332C317.358 112.102 298.459 93.2708 275.145 93.2708C251.831 93.2708 232.932 112.102 232.932 135.332C232.932 158.562 251.831 177.394 275.145 177.394Z" fill="#3652AD" stroke="#263238" stroke-linecap="round" stroke-linejoin="round"/>
<path d="M311.528 144.072C316.37 124.053 304.008 103.914 283.917 99.089C263.826 94.2645 243.614 106.582 238.772 126.601C233.93 146.619 246.292 166.759 266.383 171.584C286.474 176.408 306.686 164.091 311.528 144.072Z" fill="#263238"/>
<path d="M366.111 273.828C366.111 273.828 365.395 279.877 366.284 282.363C367.174 284.85 372.874 301.937 373.788 317.055C374.702 332.173 375.567 346.059 375.032 346.773C374.496 347.487 371.284 347.126 371.284 347.126H360.576C360.336 346.945 360.168 346.685 360.102 346.392C360.035 346.099 360.075 345.792 360.214 345.526C360.749 344.639 365.93 340.724 366.647 339.477C367.346 338.373 367.887 337.177 368.253 335.923C368.253 335.39 367.001 322.39 362.718 313.854C358.435 305.319 352.9 284.308 352.364 276.668L366.111 273.828Z" fill="white" stroke="#263238" stroke-linecap="round" stroke-linejoin="round"/>
<path d="M360.214 345.534C361.382 344.312 362.634 343.174 363.962 342.128V343.933H375.188C375.279 344.885 375.226 345.845 375.032 346.781C374.496 347.495 371.284 347.134 371.284 347.134H360.576C360.336 346.953 360.168 346.693 360.102 346.4C360.035 346.107 360.075 345.8 360.214 345.534Z" fill="#3652AD" stroke="#263238" stroke-linecap="round" stroke-linejoin="round"/>
<path d="M354.679 274.723C354.679 274.723 352.208 292.516 353.97 297.85C355.733 303.185 355.041 312.795 352.537 322.931C350.033 333.067 348.081 339.477 348.081 340.01C348.081 340.544 348.081 345.345 347.546 346.231C347.01 347.118 331.295 346.945 330.249 346.945C329.202 346.945 328.107 345.878 329.005 344.812C329.903 343.745 334.721 342.579 337.925 341.077C340.965 339.649 341.138 339.296 341.138 339.296C341.138 339.296 342.925 318.483 342.208 309.234C341.492 299.984 337.555 280.771 338.271 274.37L354.679 274.723Z" fill="white" stroke="#263238" stroke-linecap="round" stroke-linejoin="round"/>
<path d="M330.224 346.945C329.153 346.945 328.082 345.878 328.98 344.812C329.697 343.95 332.967 343.031 335.883 341.914L336.476 343.211L348.007 342.349C347.949 343.892 347.818 345.723 347.513 346.231C347.01 347.126 331.295 346.945 330.224 346.945Z" fill="#3652AD" stroke="#263238" stroke-linecap="round" stroke-linejoin="round"/>
<path d="M364.653 214.384C364.653 214.384 370.749 227.589 371.284 235.591C371.819 243.593 368.426 252.309 368.426 252.309L370.567 275.289C370.567 275.289 363.426 279.737 351.466 279.557C339.507 279.376 333.617 277.423 333.617 277.423C333.617 277.423 332.192 249.518 335.94 235.977C339.688 222.435 338.354 215.089 338.354 215.089C338.354 215.089 354.984 215.771 364.653 214.384Z" fill="#263238" stroke="#263238" stroke-linecap="round" stroke-linejoin="round"/>
<path d="M341.953 163.319C341.953 163.319 343.699 169.064 344.366 172.273C345.033 175.482 343.295 181.629 341.014 185.905C338.732 190.181 336.179 194.736 337.39 198.609C338.6 202.483 339.136 203.961 339.136 203.961C339.136 203.961 338.197 213.448 338.312 215.057C338.427 216.665 345.289 218.266 352.133 217.593C358.978 216.92 364.077 215.59 364.612 214.384C365.147 213.177 364.612 206.497 365.551 203.025C366.49 199.553 366.762 183.328 364.612 179.889C362.462 176.45 357.504 170.935 357.504 170.935L353.484 160.372L341.953 163.319Z" fill="#3652AD" stroke="#263238" stroke-linecap="round" stroke-linejoin="round"/>
<path d="M359.563 173.249C357.06 172.697 354.451 172.867 352.043 173.742C349.415 174.743 346.038 177.337 343.641 179.364C344.399 176.647 344.762 174.021 344.391 172.273C343.724 169.064 341.978 163.319 341.978 163.319L353.509 160.372L357.537 170.935C357.537 170.935 358.426 171.887 359.563 173.249Z" fill="white" stroke="#263238" stroke-linecap="round" stroke-linejoin="round"/>
<path d="M336.656 141.439C336.656 141.439 335.009 145.723 334.474 147.553C333.938 149.383 333.057 151.18 331.961 151.353C330.866 151.525 329.853 152.362 330.528 153.766C331.212 154.909 332.071 155.939 333.073 156.819C333.073 156.819 334.054 163.762 334.778 164.632C335.503 165.502 338.897 165.453 340.948 164.927C342.999 164.402 346.985 163.737 346.985 163.737C346.985 163.737 348.278 149.785 347.471 146.863C346.664 143.942 343.147 139.756 342.109 139.255C341.071 138.755 336.656 141.439 336.656 141.439Z" fill="white" stroke="#263238" stroke-linecap="round" stroke-linejoin="round"/>
<path d="M335.857 150.097C335.783 150.827 335.997 151.451 336.335 151.484C336.673 151.517 336.986 150.942 337.06 150.204C337.134 149.465 336.912 148.85 336.574 148.817C336.236 148.784 335.923 149.358 335.857 150.097Z" fill="#263238"/>
<path d="M339.259 148.259C339.259 148.259 337.316 145.936 335.891 146.74" stroke="#263238" stroke-linecap="round" stroke-linejoin="round"/>
<path d="M338.189 156.884C337.172 157.608 335.962 158.013 334.713 158.05" stroke="#263238" stroke-linecap="round" stroke-linejoin="round"/>
<path d="M341.417 140.938C341.417 140.938 345.066 148.119 345.387 148.956C345.708 149.793 345.964 164.55 345.115 167.997C344.726 169.883 343.714 171.584 342.241 172.831C346.935 173.833 351.733 174.274 356.532 174.144C364.636 173.955 368.318 172.01 368.318 172.01C367.467 165.502 366.95 158.955 366.77 152.395C366.58 142.711 362.248 135.735 356.836 134.438C351.425 133.141 344.86 134.274 344.86 134.274C344.86 134.274 341.079 130.031 336.335 133.223C331.591 136.416 333.329 141.004 335.511 142.407C337.145 143.395 338.872 144.219 340.668 144.869L341.417 140.938Z" fill="#263238" stroke="#263238" stroke-linecap="round" stroke-linejoin="round"/>
<path d="M327.86 190.066C327.86 190.066 348.822 177.222 351.639 176.819C354.456 176.417 358.748 181.095 357.405 186.176C356.063 191.256 327.86 201.433 326.929 201.564C325.998 201.695 303.133 179.52 303.133 179.52C301.35 179.004 299.601 178.379 297.895 177.648C296.552 176.975 291.157 175.277 289.436 174.743C289.292 174.698 289.172 174.599 289.1 174.467C289.028 174.336 289.01 174.182 289.048 174.037C289.082 173.893 289.17 173.766 289.294 173.684C289.418 173.601 289.569 173.569 289.716 173.594L294.139 174.308L288.834 170.984C288.701 170.897 288.595 170.773 288.531 170.628C288.466 170.482 288.446 170.321 288.472 170.163C288.495 170.05 288.542 169.943 288.61 169.849C288.678 169.755 288.765 169.677 288.865 169.619C288.965 169.561 289.077 169.524 289.192 169.512C289.307 169.5 289.424 169.512 289.534 169.548L294.946 171.501L288.95 166.626C288.783 166.5 288.67 166.315 288.635 166.11C288.599 165.904 288.644 165.692 288.76 165.518C288.813 165.422 288.884 165.337 288.97 165.268C289.056 165.199 289.155 165.149 289.261 165.119C289.367 165.089 289.478 165.081 289.587 165.094C289.696 165.108 289.802 165.143 289.897 165.198L296.289 168.563L292.426 164.46C292.341 164.37 292.278 164.264 292.241 164.147C292.204 164.031 292.193 163.908 292.21 163.786C292.226 163.665 292.27 163.549 292.337 163.447C292.404 163.345 292.494 163.259 292.598 163.196C292.737 163.113 292.897 163.073 293.058 163.081C293.219 163.088 293.374 163.142 293.505 163.237L300.984 168.67L300.16 166.126C300.115 165.991 300.099 165.849 300.112 165.709C300.126 165.568 300.169 165.432 300.239 165.309C300.309 165.186 300.404 165.079 300.518 164.995C300.632 164.911 300.763 164.851 300.901 164.821C301.122 164.772 301.352 164.799 301.556 164.898C301.759 164.996 301.923 165.16 302.021 165.362C302.557 166.462 303.578 168.53 303.957 169.203C304.623 170.409 305.077 171.719 305.3 173.077C305.3 173.898 305.44 175.753 305.44 175.753L327.86 190.066Z" fill="white" stroke="#263238" stroke-linecap="round" stroke-linejoin="round"/>
<path d="M315.975 191.757L316.238 191.322L320.447 185.527L327.86 190.033C327.86 190.033 348.823 177.189 351.64 176.787C354.457 176.385 358.748 181.063 357.405 186.143C356.063 191.223 327.86 201.4 326.929 201.531C326.468 201.605 323.075 198.248 315.975 191.757Z" fill="#3652AD" stroke="#263238" stroke-linecap="round" stroke-linejoin="round"/>
<path d="M323.025 187.087L317.127 194.202L313.742 191.527L319.631 184.239L323.025 187.087Z" fill="#3652AD" stroke="#263238" stroke-linecap="round" stroke-linejoin="round"/>
<path d="M245.196 137.22V124.253H249.315C249.98 124.224 250.641 124.377 251.226 124.696C251.722 124.99 252.109 125.436 252.329 125.968C252.586 126.61 252.709 127.296 252.692 127.987C252.733 128.742 252.568 129.493 252.214 130.162C251.924 130.669 251.467 131.06 250.921 131.27C250.322 131.5 249.684 131.611 249.043 131.598H247.84V137.22H245.196ZM247.849 129.743H248.779C249.087 129.762 249.393 129.7 249.669 129.563C249.776 129.499 249.869 129.415 249.942 129.315C250.016 129.215 250.069 129.101 250.097 128.98C250.181 128.645 250.219 128.3 250.212 127.954C250.217 127.621 250.187 127.288 250.122 126.961C250.076 126.71 249.934 126.486 249.726 126.337C249.437 126.164 249.1 126.084 248.763 126.108H247.849V129.743Z" fill="#3652AD"/>
<path d="M253.969 137.22V124.253H257.338C258.101 124.237 258.862 124.336 259.594 124.548C260.185 124.72 260.698 125.092 261.044 125.599C261.414 126.229 261.589 126.954 261.547 127.683C261.554 128.157 261.509 128.63 261.415 129.095C261.333 129.484 261.167 129.851 260.929 130.17C260.675 130.494 260.339 130.746 259.957 130.901L261.761 137.22H259.043L257.552 131.344H256.621V137.22H253.969ZM256.621 129.776H257.387C257.737 129.794 258.085 129.724 258.4 129.571C258.646 129.43 258.833 129.206 258.927 128.939C259.034 128.599 259.084 128.244 259.076 127.889C259.107 127.409 258.992 126.931 258.746 126.518C258.596 126.346 258.405 126.213 258.191 126.132C257.977 126.05 257.746 126.022 257.519 126.05H256.621V129.776Z" fill="#3652AD"/>
<path d="M266.867 137.392C266.079 137.434 265.296 137.258 264.602 136.883C264.048 136.547 263.627 136.031 263.408 135.423C263.148 134.691 263.025 133.917 263.045 133.141V128.307C263.024 127.533 263.147 126.763 263.408 126.034C263.625 125.429 264.048 124.918 264.602 124.589C265.316 124.262 266.093 124.093 266.88 124.093C267.666 124.093 268.443 124.262 269.157 124.589C269.712 124.919 270.136 125.429 270.36 126.034C270.617 126.761 270.74 127.528 270.722 128.299V133.133C270.737 133.909 270.615 134.681 270.36 135.414C270.137 136.024 269.713 136.539 269.157 136.875C268.456 137.254 267.664 137.432 266.867 137.392ZM266.867 135.488C267.14 135.513 267.412 135.43 267.625 135.258C267.791 135.086 267.902 134.869 267.946 134.635C267.996 134.364 268.021 134.089 268.02 133.814V127.683C268.021 127.408 267.996 127.133 267.946 126.863C267.901 126.631 267.789 126.417 267.625 126.247C267.412 126.075 267.14 125.993 266.867 126.017C266.605 125.996 266.344 126.079 266.142 126.247C265.978 126.417 265.867 126.631 265.821 126.863C265.768 127.133 265.74 127.408 265.739 127.683V133.814C265.738 134.089 265.763 134.364 265.813 134.635C265.85 134.87 265.96 135.088 266.126 135.258C266.334 135.428 266.6 135.51 266.867 135.488Z" fill="#3652AD"/>
<path d="M272.493 137.22V124.253H275.673C276.552 124.216 277.43 124.361 278.251 124.68C278.842 124.94 279.31 125.415 279.56 126.009C279.839 126.748 279.967 127.535 279.939 128.323V133.043C279.966 133.85 279.837 134.655 279.56 135.414C279.316 136.014 278.854 136.5 278.267 136.777C277.467 137.109 276.604 137.26 275.738 137.22H272.493ZM275.137 135.382H275.705C276.07 135.411 276.436 135.328 276.752 135.144C276.861 135.064 276.953 134.962 277.021 134.844C277.089 134.727 277.132 134.597 277.147 134.462C277.209 134.088 277.236 133.709 277.229 133.33V127.987C277.24 127.623 277.204 127.259 277.122 126.904C277.097 126.782 277.047 126.666 276.976 126.563C276.906 126.46 276.815 126.372 276.71 126.305C276.393 126.151 276.041 126.083 275.689 126.108H275.137V135.382Z" fill="#3652AD"/>
<path d="M285.359 137.392C284.561 137.438 283.767 137.265 283.061 136.892C282.515 136.56 282.106 136.045 281.908 135.439C281.675 134.69 281.564 133.909 281.578 133.125V124.253H284.198V133.486C284.197 133.802 284.222 134.117 284.272 134.43C284.307 134.703 284.418 134.962 284.593 135.176C284.806 135.362 285.08 135.465 285.363 135.465C285.646 135.465 285.92 135.362 286.133 135.176C286.309 134.963 286.417 134.704 286.446 134.43C286.489 134.117 286.511 133.801 286.512 133.486V124.253H289.131V133.125C289.15 133.909 289.039 134.691 288.802 135.439C288.604 136.042 288.198 136.557 287.657 136.892C286.951 137.263 286.156 137.436 285.359 137.392Z" fill="#3652AD"/>
<path d="M294.592 137.392C293.792 137.434 292.998 137.246 292.302 136.851C291.746 136.498 291.33 135.964 291.124 135.341C290.888 134.615 290.774 133.855 290.787 133.092V128.43C290.771 127.645 290.885 126.864 291.124 126.116C291.331 125.497 291.747 124.968 292.302 124.622C293.001 124.237 293.794 124.055 294.592 124.097C295.35 124.059 296.105 124.217 296.783 124.556C297.301 124.85 297.7 125.314 297.911 125.87C298.139 126.501 298.251 127.168 298.241 127.839V128.931H295.671V127.741C295.671 127.466 295.655 127.192 295.621 126.92C295.599 126.685 295.507 126.463 295.358 126.28C295.257 126.188 295.139 126.119 295.01 126.077C294.88 126.034 294.744 126.02 294.608 126.034C294.469 126.021 294.328 126.037 294.195 126.081C294.061 126.124 293.939 126.195 293.834 126.288C293.671 126.476 293.566 126.707 293.529 126.953C293.488 127.252 293.469 127.554 293.472 127.856V133.748C293.466 134.068 293.494 134.387 293.554 134.7C293.596 134.939 293.715 135.158 293.892 135.324C294.096 135.482 294.351 135.558 294.608 135.538C294.741 135.551 294.875 135.536 295.002 135.493C295.128 135.451 295.244 135.382 295.341 135.291C295.493 135.1 295.587 134.869 295.613 134.627C295.65 134.335 295.669 134.042 295.671 133.748V132.484H298.241V133.486C298.253 134.167 298.144 134.845 297.92 135.488C297.715 136.059 297.323 136.545 296.808 136.867C296.134 137.249 295.366 137.431 294.592 137.392Z" fill="#3652AD"/>
<path d="M301.083 137.22V126.222H299.073V124.253H305.712V126.222H303.735V137.22H301.083Z" fill="#3652AD"/>
<path d="M255.895 158.985C255.603 158.834 255.327 158.652 255.072 158.444C254.735 158.194 254.419 157.92 254.125 157.623C253.818 157.317 253.542 156.982 253.301 156.622H253.161H252.996C252.207 156.662 251.423 156.483 250.731 156.105C250.176 155.769 249.754 155.253 249.537 154.644C249.276 153.912 249.153 153.138 249.174 152.362V147.528C249.153 146.755 249.276 145.984 249.537 145.255C249.752 144.651 250.175 144.142 250.731 143.819C251.428 143.455 252.211 143.288 252.996 143.334C253.791 143.297 254.582 143.472 255.286 143.843C255.842 144.168 256.267 144.676 256.488 145.279C256.746 146.006 256.869 146.774 256.851 147.545V152.362C256.854 152.914 256.796 153.464 256.678 154.004C256.582 154.466 256.395 154.904 256.126 155.292C255.855 155.646 255.502 155.927 255.096 156.113L255.533 156.564C255.676 156.71 255.827 156.847 255.986 156.975C256.118 157.095 256.261 157.202 256.414 157.295L255.895 158.985ZM252.996 154.701C253.27 154.722 253.541 154.636 253.754 154.463C253.921 154.292 254.033 154.075 254.075 153.839C254.125 153.569 254.15 153.294 254.149 153.019V146.888C254.15 146.613 254.126 146.338 254.075 146.067C254.031 145.833 253.92 145.616 253.754 145.444C253.538 145.277 253.268 145.195 252.996 145.214C252.729 145.196 252.465 145.278 252.255 145.444C252.089 145.614 251.979 145.832 251.942 146.067C251.891 146.338 251.866 146.613 251.868 146.888V153.019C251.867 153.294 251.892 153.569 251.942 153.839C251.977 154.075 252.087 154.294 252.255 154.463C252.461 154.635 252.727 154.721 252.996 154.701Z" fill="#3652AD"/>
<path d="M262.304 156.605C261.506 156.649 260.711 156.473 260.006 156.096C259.462 155.764 259.056 155.249 258.861 154.644C258.623 153.896 258.511 153.114 258.532 152.329V143.466H261.151V152.699C261.152 153.014 261.174 153.33 261.217 153.642C261.252 153.919 261.363 154.18 261.538 154.398C261.637 154.498 261.757 154.576 261.889 154.625C262.022 154.675 262.163 154.695 262.304 154.685C262.448 154.697 262.592 154.677 262.727 154.627C262.862 154.578 262.985 154.499 263.087 154.398C263.259 154.18 263.367 153.918 263.4 153.642C263.439 153.329 263.459 153.014 263.457 152.699V143.466H266.076V152.362C266.097 153.147 265.985 153.929 265.747 154.677C265.552 155.282 265.146 155.797 264.602 156.129C263.894 156.494 263.099 156.659 262.304 156.605Z" fill="#3652AD"/>
<path d="M267.188 156.466L269.709 143.507H272.649L275.12 156.466H272.649L272.18 153.618H270.129L269.627 156.466H267.188ZM270.417 152.001H271.941L271.117 146.765L270.417 152.001Z" fill="#3652AD"/>
<path d="M276.381 156.466V143.466H279.025V154.636H282.081V156.466H276.381Z" fill="#3652AD"/>
<path d="M283.267 156.466V143.466H285.944V156.466H283.267Z" fill="#3652AD"/>
<path d="M289.114 156.466V145.435H287.104V143.466H293.76V145.435H291.783V156.466H289.114Z" fill="#3652AD"/>
<path d="M296.651 156.466V151.328L294.114 143.507H296.585L297.986 148.062L299.287 143.507H301.692L299.221 151.328V156.466H296.651Z" fill="#3652AD"/>
<path d="M256.019 111.786L256.909 114.503H259.767L257.452 116.177L258.334 118.885L256.019 117.211L253.705 118.885L254.586 116.177L252.271 114.503H255.138L256.019 111.786Z" fill="#3652AD"/>
<path d="M266.044 111.786L266.925 114.503H269.791L267.469 116.177L268.358 118.885L266.044 117.211L263.729 118.885L264.61 116.177L262.296 114.503H265.154L266.044 111.786Z" fill="#3652AD"/>
<path d="M276.059 111.786L276.949 114.503H279.807L277.492 116.177L278.374 118.885L276.059 117.211L273.745 118.885L274.634 116.177L272.312 114.503H275.178L276.059 111.786Z" fill="#3652AD"/>
<path d="M286.084 111.786L286.965 114.503H289.831L287.517 116.177L288.398 118.885L286.084 117.211L283.769 118.885L284.65 116.177L282.336 114.503H285.202L286.084 111.786Z" fill="#3652AD"/>
<path d="M296.107 111.786L296.988 114.503H299.847L297.532 116.177L298.422 118.885L296.107 117.211L293.784 118.885L294.674 116.177L292.359 114.503H295.218L296.107 111.786Z" fill="#3652AD"/>
</g>
<defs>
<clipPath id="clip0_668_4255">
<rect width="393" height="383" fill="white" transform="translate(0.741211)"/>
</clipPath>
</defs>
</svg>
