<svg width="378" height="317" viewBox="0 0 378 317" fill="none" xmlns="http://www.w3.org/2000/svg">
<path d="M328.482 221.368C325.042 223.991 321.512 226.525 317.951 228.952C293.336 245.845 264.842 258.34 232.674 260.754L230.3 260.919C170.198 264.603 171.332 204.671 164.135 189.932C156.938 175.194 35.1163 164.614 14.1676 129.096C-3.77988 98.76 18.3482 70.952 50.0095 55.1077C71.873 44.1804 96.6547 37.5444 121.293 32.5959C194.292 17.9272 272.16 19.8358 330.992 63.5702C338.136 68.879 343.632 74.4912 349.136 80.9628C364.513 99.0317 374.704 120.596 375.483 142.899C376.564 174 355.887 200.322 329.367 220.704L328.482 221.368Z" fill="#3652AD"/>
<path opacity="0.7" d="M328.482 221.368C325.042 223.991 321.512 226.525 317.951 228.952C293.336 245.845 264.842 258.34 232.674 260.754L230.3 260.919C170.198 264.603 171.332 204.671 164.135 189.932C156.938 175.194 35.1163 164.614 14.1676 129.096C-3.77988 98.76 18.3482 70.952 50.0095 55.1077C71.873 44.1804 96.6547 37.5444 121.293 32.5959C194.292 17.9272 272.16 19.8358 330.992 63.5702C338.136 68.879 343.632 74.4912 349.136 80.9628C364.513 99.0317 374.704 120.596 375.483 142.899C376.564 174 355.887 200.322 329.367 220.704L328.482 221.368Z" fill="white"/>
<path d="M307.586 160.639V235.594H206.804L207.484 160.639L207.9 159.912L226.361 127.466L235.184 111.956L236.983 108.803L257.539 72.6648L257.962 73.4106L285.821 122.378L307.586 160.639Z" fill="#DBDBDB"/>
<path d="M309.93 232.378L307.587 232.738L289.155 235.594H243.833L210.94 177.463L207.9 159.912L226.362 127.466L235.184 111.956L236.984 108.803L257.539 72.6648L257.963 73.4106L244.702 155.811L256.269 133.767L255.808 176.692L271.533 160.064V184.042L265.984 175.921L260.896 212.267L288.649 157.359L307.587 224.117L309.93 232.378Z" fill="#B8B8B8"/>
<path d="M235.185 111.956L233.604 114.731L251.643 97.0284L257.66 117.91L264.6 100.125L272.002 108.215L274.754 102.925L257.963 73.4106L257.539 72.6648L236.984 108.803L235.185 111.956Z" fill="white" stroke="#263238" stroke-linecap="round" stroke-linejoin="round"/>
<path d="M307.586 160.639V235.594H206.804L207.484 160.639L207.9 159.912L226.361 127.466L235.184 111.956L236.983 108.803L257.539 72.6648L257.962 73.4106L285.821 122.378L307.586 160.639Z" stroke="#263238" stroke-linecap="round" stroke-linejoin="round"/>
<path d="M357.725 248.076L338.696 237.389L336.02 257.272L317.883 251.306L313.431 273.173L282.51 256.28H256.353L257.834 234.16L286.94 181.843L288.256 179.486L305.402 148.669L319.078 170.543L321.421 175.245L324.71 181.843L357.725 248.076Z" fill="#DBDBDB"/>
<path d="M337.01 225.767L338.938 237.522L345.938 241.459L337.01 225.767Z" fill="#B8B8B8"/>
<path d="M317.883 251.306L332.232 256.027L330.524 251.451L325.33 244.215L329.223 239.513L328.483 221.381L314.512 237.705L313.65 202.977L299.8 226.127L307.148 151.463L305.402 148.669L288.256 179.486L286.94 181.843L257.834 234.16L256.353 256.28H282.51L313.431 273.173L317.883 251.306Z" fill="#B8B8B8"/>
<path d="M359.705 251.451L307.019 145.092L247.446 252.418" stroke="#263238" stroke-linecap="round" stroke-linejoin="round"/>
<path d="M312.258 184.864L316.152 181.9L325.715 190.779L326.509 184.44L307.019 145.092L284.316 186.001L284.286 186.343L304.471 168.583L312.258 184.864Z" fill="white" stroke="#263238" stroke-linecap="round" stroke-linejoin="round"/>
<path d="M271.193 274.545L272.962 292.007L258.658 286.11L239.924 278.387L221.977 270.993L212.414 277.212L186.218 268.035L162.85 286.976L144.434 273.66L122.487 277.502L123.901 259.743L161.625 189.193L166.524 180.023L200.023 117.379L211 138.393L221.266 149.643L266.415 241.093L274.935 232.036L302.703 286.382L271.193 274.545Z" fill="#DBDBDB"/>
<path d="M205.383 226.19L196.598 216.913L202.147 170.505L176.708 212.659L198.911 133.381L200.318 117.935L200.023 117.379L166.524 180.023L161.625 189.193L123.901 259.743L122.487 277.502L144.434 273.66L162.85 286.976L186.218 268.035L194.103 270.797L196.137 243.981L211.862 253.651L210.009 216.913L205.383 226.19Z" fill="#B8B8B8"/>
<path d="M306.286 293.517L274.935 232.036L266.415 241.093L202.389 111.861L126.29 255.654" stroke="#263238" stroke-linecap="round" stroke-linejoin="round"/>
<path d="M225.062 157.631L202.389 111.861L175.854 162.004L196.5 142.785L209.148 150.104L211.091 144.82L225.062 157.631Z" fill="white" stroke="#263238" stroke-linecap="round" stroke-linejoin="round"/>
<path d="M258.658 286.11L239.924 278.387L227.042 230.323L258.658 286.11Z" fill="#B8B8B8"/>
<path d="M273.83 111.956H235.184L236.983 108.796H237.096C238.896 108.645 239.077 107.596 241.594 107.292C244.112 106.989 245.919 108.196 247.9 107.444C249.88 106.692 251.143 103.829 255.104 104.284C259.066 104.739 264.645 109.548 264.645 109.548C266.807 109.548 267.707 109.1 270.05 109.852C271.476 110.319 272.765 111.036 273.83 111.956Z" fill="#263238" stroke="#263238" stroke-linecap="round" stroke-linejoin="round"/>
<path d="M266.603 107.918C266.603 107.918 261.016 103.096 257.055 102.647C253.094 102.198 251.831 105.055 249.85 105.807C247.87 106.559 246.07 105.358 243.553 105.655C241.035 105.952 240.846 107.014 239.017 107.166C237.187 107.317 235.955 106.262 233.974 106.534C231.994 106.805 230.95 108.645 229.831 108.645C228.713 108.645 226.951 107.589 224.97 107.589C222.99 107.589 219.928 109.093 219.928 109.093L207.681 110.3H275.789C274.726 109.377 273.436 108.657 272.009 108.19C269.665 107.463 268.765 107.918 266.603 107.918Z" fill="white" stroke="#263238" stroke-linecap="round" stroke-linejoin="round"/>
<path d="M336.133 95.7202C336.133 95.7202 330.554 90.9044 326.592 90.4494C322.631 89.9943 321.368 92.8573 319.387 93.6094C317.407 94.3614 315.607 93.1543 313.082 93.4577C310.557 93.761 310.384 94.8102 308.584 94.9618C306.785 95.1135 305.522 94.0581 303.542 94.3614C301.561 94.6648 300.48 96.466 299.399 96.466C298.318 96.466 296.518 95.4105 294.538 95.4105C292.557 95.4105 289.495 96.921 289.495 96.921L277.248 98.1218H345.288C344.223 97.2019 342.934 96.4842 341.508 96.0173C339.195 95.2715 338.295 95.7202 336.133 95.7202Z" fill="white" stroke="#263238" stroke-linecap="round" stroke-linejoin="round"/>
<path d="M301.727 199.027C301.727 199.027 291.725 190.4 284.619 189.585C277.512 188.77 275.267 193.901 271.714 195.273C268.161 196.644 264.91 194.464 260.419 195.001C255.929 195.538 255.581 197.434 252.353 197.7C249.125 197.965 246.864 196.082 243.318 196.625C239.773 197.169 237.83 200.417 235.895 200.417C233.959 200.417 230.731 198.521 227.185 198.521C223.64 198.521 218.113 201.22 218.113 201.22L196.189 203.381H318.185C316.273 201.72 313.951 200.426 311.381 199.589C307.208 198.218 305.598 199.027 301.727 199.027Z" fill="#263238" stroke="#263238" stroke-linecap="round" stroke-linejoin="round"/>
<path d="M305.538 197.434C305.538 197.434 295.536 188.801 288.429 187.992C281.323 187.183 279.078 192.309 275.524 193.68C271.971 195.052 268.72 192.871 264.23 193.408C259.739 193.946 259.391 195.842 256.163 196.107C252.935 196.372 250.675 194.489 247.129 195.033C243.583 195.576 241.64 198.825 239.705 198.825C237.77 198.825 234.542 196.929 230.996 196.929C227.45 196.929 221.924 199.627 221.924 199.627L200 201.789H321.996C320.083 200.127 317.762 198.833 315.192 197.997C311.019 196.625 309.408 197.434 305.538 197.434Z" fill="white" stroke="#263238" stroke-linecap="round" stroke-linejoin="round"/>
<path d="M324.709 181.843H286.909L288.225 179.486C289.08 179.809 289.978 180.044 290.901 180.187C291.982 180.187 293.063 178.38 295.044 178.082C297.024 177.785 298.287 178.835 300.086 178.683C301.886 178.531 302.067 177.476 304.622 177.179C307.178 176.882 308.939 178.082 310.92 177.324C312.9 176.566 314.163 173.715 318.124 174.164C319.295 174.347 320.413 174.714 321.421 175.245L324.709 181.843Z" fill="#263238" stroke="#263238" stroke-linecap="round" stroke-linejoin="round"/>
<path d="M329.366 177.45C329.366 177.45 323.787 172.628 319.826 172.18C315.864 171.731 314.602 174.588 312.621 175.34C310.64 176.092 308.841 174.891 306.316 175.188C303.791 175.485 303.617 176.547 301.818 176.692C300.018 176.837 298.756 175.795 296.775 176.092C294.794 176.389 293.713 178.203 292.632 178.203C291.551 178.203 289.752 177.147 287.771 177.147C285.79 177.147 282.729 178.651 282.729 178.651L270.481 179.858H338.521C337.458 178.935 336.169 178.215 334.741 177.748C332.428 176.995 331.528 177.45 329.366 177.45Z" fill="white" stroke="#263238" stroke-linecap="round" stroke-linejoin="round"/>
<path d="M226.097 189.193H161.625L166.524 180.023C167.925 180.182 169.351 180.014 170.644 179.536C174.885 177.931 177.577 171.813 186.051 172.78C194.526 173.747 206.463 184.042 206.463 184.042C211.083 184.042 213.01 183.082 218.015 184.674C221.066 185.678 223.822 187.219 226.097 189.193Z" fill="#263238" stroke="#263238" stroke-linecap="round" stroke-linejoin="round"/>
<path d="M209.193 182.083C209.193 182.083 197.256 171.781 188.781 170.814C180.306 169.847 177.615 175.965 173.374 177.577C169.133 179.188 165.292 176.61 159.902 177.255C154.512 177.899 154.126 180.149 150.27 180.471C146.415 180.794 143.723 178.544 139.49 179.207C135.256 179.871 132.943 183.714 130.637 183.714C128.331 183.714 124.476 181.457 120.235 181.457C115.993 181.457 109.454 184.681 109.454 184.681L83.2812 187.24H228.834C226.558 185.268 223.798 183.731 220.745 182.734C215.74 181.116 213.82 182.083 209.193 182.083Z" fill="white" stroke="#263238" stroke-linecap="round" stroke-linejoin="round"/>
<path d="M174.772 71.2239C174.772 71.2239 162.835 60.9223 154.36 59.9553C145.885 58.9883 143.194 65.1061 138.953 66.7177C134.711 68.3293 130.871 65.7508 125.473 66.3954C120.075 67.04 119.697 69.2899 115.849 69.6123C112.001 69.9346 109.302 67.7163 105.069 68.3483C100.835 68.9803 98.5293 72.8481 96.2159 72.8481C93.9026 72.8481 90.0545 70.5919 85.8209 70.5919C81.5873 70.5919 75.0404 73.8151 75.0404 73.8151L48.8525 76.3873H194.413C192.135 74.4169 189.376 72.88 186.324 71.8812C181.319 70.2569 179.391 71.2239 174.772 71.2239Z" fill="white" stroke="#263238" stroke-linecap="round" stroke-linejoin="round"/>
<path d="M334.56 275.012C334.56 275.012 317.391 260.198 305.205 258.808C293.018 257.417 289.147 266.215 283.054 268.534C276.96 270.854 271.419 267.144 263.67 268.067C255.921 268.989 255.354 272.238 249.82 272.699C244.286 273.161 240.408 269.918 234.314 270.847C228.221 271.776 224.895 277.332 221.576 277.332C218.257 277.332 212.715 274.09 206.622 274.09C200.529 274.09 191.109 278.716 191.109 278.716L153.468 282.419H362.804C359.532 279.585 355.566 277.375 351.177 275.941C343.98 273.622 341.205 275.012 334.56 275.012Z" fill="white" stroke="#263238" stroke-linecap="round" stroke-linejoin="round"/>
<path d="M257.538 72.6646V46.74" stroke="#263238" stroke-linecap="round" stroke-linejoin="round"/>
<path d="M277.301 68.2722V63.4753C278.492 64.0149 279.503 64.7948 280.242 65.7442C280.369 65.9454 280.47 66.1572 280.544 66.3762C279.816 66.2861 279.074 66.4323 278.471 66.7849C277.868 67.1374 277.449 67.6696 277.301 68.2722Z" fill="#263238" stroke="#263238" stroke-linecap="round" stroke-linejoin="round"/>
<path d="M264.901 49.6156C260.434 49.7546 258.097 48.2947 257.508 47.9092V55.0508L257.659 63.33C258.99 65.0806 268.334 65.0806 273.679 65.0806C279.024 65.0806 280.543 66.3446 280.543 66.3446V50.7279C277.685 48.5033 270.05 49.4639 264.901 49.6156Z" fill="#3652AD" stroke="#263238" stroke-miterlimit="10"/>
<path d="M280.544 51.4168C279.769 50.9358 278.833 50.6705 277.867 50.6584C274.564 50.6584 271.88 53.8184 271.88 57.7748C271.88 61.7311 274.564 64.8848 277.867 64.8848C278.833 64.8727 279.769 64.6074 280.544 64.1264V51.4168Z" fill="white" stroke="#263238" stroke-linecap="round" stroke-linejoin="round"/>
<path d="M280.544 66.3573C280.544 66.3573 277.21 66.1488 277.301 68.2533C277.346 69.2582 278.813 70.004 284.165 69.688C289.518 69.372 297.728 70.3769 297.728 70.3769L292.572 62.736L300.2 60.208C297.438 58.4883 294.348 57.1719 291.06 56.3149C287.645 55.4548 284.086 55.0621 280.521 55.152L280.544 66.3573Z" fill="#3652AD" stroke="#263238" stroke-miterlimit="10"/>
<path d="M278.034 63.9304V63.0835C277.645 63.0615 277.268 62.9608 276.936 62.7902C276.604 62.6195 276.327 62.384 276.128 62.1039C275.686 61.4658 275.449 60.743 275.44 60.0056L276.688 59.7592C276.714 60.1057 276.773 60.4501 276.862 60.7893C276.93 61.0876 277.074 61.37 277.285 61.6172C277.383 61.7274 277.509 61.818 277.655 61.8824C277.8 61.9469 277.96 61.9837 278.124 61.9901C278.276 62.0106 278.431 61.9994 278.576 61.9575C278.721 61.9156 278.852 61.8443 278.956 61.75C279.16 61.5043 279.259 61.208 279.236 60.9094C279.255 60.5232 279.145 60.1402 278.918 59.8034C278.697 59.4909 278.444 59.1948 278.162 58.9186L276.461 57.3323C276.257 57.1372 276.077 56.9254 275.924 56.7003C275.772 56.4734 275.662 56.2283 275.599 55.9735C275.523 55.6851 275.488 55.3903 275.493 55.095C275.444 54.5112 275.66 53.9333 276.098 53.4771C276.311 53.2923 276.572 53.1503 276.86 53.0617C277.148 52.973 277.456 52.94 277.761 52.9652V52.1436H278.2V52.9652C278.524 53.0066 278.835 53.1011 279.115 53.2432C279.378 53.3825 279.603 53.5679 279.772 53.7868C279.967 54.0323 280.11 54.3037 280.196 54.5894C280.308 54.9452 280.379 55.3092 280.407 55.6764L279.205 55.9103C279.184 55.5999 279.133 55.2913 279.054 54.9876C278.994 54.7285 278.859 54.4856 278.661 54.2797C278.56 54.1866 278.436 54.1134 278.298 54.0653C278.159 54.0172 278.01 53.9955 277.86 54.0016C277.56 53.9883 277.267 54.0746 277.043 54.2418C276.935 54.3472 276.853 54.4698 276.802 54.6023C276.751 54.7347 276.733 54.8744 276.748 55.0128C276.738 55.27 276.792 55.5262 276.907 55.7649C277.038 55.9951 277.209 56.2081 277.414 56.3969L279.122 57.9832C279.38 58.2311 279.615 58.4952 279.825 58.7732C280.049 59.07 280.229 59.3883 280.362 59.7212C280.502 60.0911 280.571 60.4772 280.566 60.8652C280.576 61.264 280.486 61.6602 280.302 62.028C280.154 62.3308 279.902 62.59 279.577 62.7724C279.253 62.9548 278.871 63.0521 278.48 63.0519V63.9114L278.034 63.9304Z" fill="#263238"/>
<path d="M272.605 28.9492V37.0831" stroke="#263238" stroke-linecap="round" stroke-linejoin="round"/>
<path d="M272.605 76.9622V85.096" stroke="#263238" stroke-linecap="round" stroke-linejoin="round"/>
<path d="M236.477 40.1799L247.59 47.5364" stroke="#263238" stroke-linecap="round" stroke-linejoin="round"/>
<path d="M306.882 40.1799L295.762 47.5364" stroke="#263238" stroke-linecap="round" stroke-linejoin="round"/>
<path d="M306.882 82.252L295.762 74.8955" stroke="#263238" stroke-linecap="round" stroke-linejoin="round"/>
<path d="M236.016 82.252L247.129 74.8955" stroke="#263238" stroke-linecap="round" stroke-linejoin="round"/>
<path d="M242.963 61.0864H228.138" stroke="#263238" stroke-linecap="round" stroke-linejoin="round"/>
<path d="M318.918 61.0864H304.101" stroke="#263238" stroke-linecap="round" stroke-linejoin="round"/>
<path d="M117.808 298.023L123.274 287.425C123.274 287.425 125.459 282.672 126.775 281.212C127.912 279.807 128.935 278.34 129.836 276.82L136.837 268.048L143.837 250.124L124.416 255.54L109.485 265.14L89.0728 273.54L18.4473 285.548" fill="white"/>
<path d="M117.808 298.023L123.274 287.425C123.274 287.425 125.459 282.672 126.775 281.212C127.912 279.807 128.935 278.34 129.836 276.82L136.837 268.048L143.837 250.124L124.416 255.54L109.485 265.14L89.0728 273.54L18.4473 285.548" stroke="#263238" stroke-linecap="round" stroke-linejoin="round"/>
<path d="M19.1651 240.619H105.341L143.837 250.124L139.898 255.243L132.021 257.442L123.274 259.269L116.273 267.681L110.588 271.7L91.7788 274.26L16.9727 288.158" fill="white"/>
<path d="M19.1651 240.619H105.341L143.837 250.124L139.898 255.243L132.021 257.442L123.274 259.269L116.273 267.681L110.588 271.7L91.7788 274.26L16.9727 288.158" stroke="#263238" stroke-linecap="round" stroke-linejoin="round"/>
<path d="M123.274 259.269L124.151 272.8L119.335 280.479L115.835 285.232L106.324 298.023" fill="white"/>
<path d="M123.274 259.269L124.151 272.8L119.335 280.479L115.835 285.232L106.324 298.023" stroke="#263238" stroke-linecap="round" stroke-linejoin="round"/>
<path d="M110.588 271.7L109.28 283.039L102.718 286.331L93.9639 290.717" fill="white"/>
<path d="M110.588 271.7L109.28 283.039L102.718 286.331L93.9639 290.717" stroke="#263238" stroke-linecap="round" stroke-linejoin="round"/>
<path opacity="0.21" d="M99.5727 255.901C99.5727 258.106 85.375 259.888 67.8584 259.888C50.3419 259.888 36.1064 258.106 36.1064 255.901C36.1064 253.695 50.3117 251.913 67.8584 251.913C85.4052 251.913 99.5727 253.701 99.5727 255.901Z" fill="black"/>
<path d="M117.248 108.714C117.248 108.714 119.259 107.336 120.446 106.654C121.633 105.971 123.742 104.05 123.924 103.285C124.105 102.521 125.111 97.9323 125.111 97.9323C124.405 97.8984 123.697 97.9494 123.009 98.084C121.641 98.3178 120.446 98.6212 120.446 98.6212L116.787 102.293L117.248 108.714Z" fill="white" stroke="#263238" stroke-miterlimit="10"/>
<path d="M122.184 98.2419C122.184 98.2419 121.912 99.5059 122.456 99.923C123.001 100.34 126.115 100.378 126.577 99.6133C127.038 98.8486 127.128 97.553 126.577 97.553C126.025 97.553 122.184 98.2419 122.184 98.2419Z" fill="white" stroke="#263238" stroke-miterlimit="10"/>
<path d="M124.475 100.536C124.475 100.536 120.174 100.688 119.992 101.168C119.811 101.648 119.531 102.546 119.811 102.698C120.091 102.849 124.566 102.856 125.02 102.394C125.473 101.933 126.116 100.075 124.475 100.536Z" fill="white" stroke="#263238" stroke-miterlimit="10"/>
<path d="M124.195 102.596C124.195 102.596 119.901 102.748 119.712 103.228C119.523 103.709 119.259 104.606 119.531 104.758C119.803 104.909 124.286 104.909 124.747 104.454C125.208 103.999 125.843 102.141 124.195 102.596Z" fill="white" stroke="#263238" stroke-miterlimit="10"/>
<path d="M122.94 104.568C122.94 104.568 119.69 104.682 119.554 105.03C119.417 105.377 119.206 106.072 119.41 106.186C119.614 106.3 123.008 106.3 123.349 105.952C123.689 105.605 124.18 104.221 122.94 104.568Z" fill="white" stroke="#263238" stroke-miterlimit="10"/>
<path d="M142.03 95.3664L112.546 99.0889H112.183H111.888C111.298 99.0304 110.753 98.7951 110.354 98.4265C109.955 98.0579 109.73 97.581 109.72 97.0842C109.71 96.5873 109.916 96.1043 110.299 95.7245C110.682 95.3447 111.217 95.094 111.805 95.0188L140.087 91.4606L141.289 91.3089C141.611 91.2594 141.941 91.2644 142.26 91.3234C142.58 91.3824 142.882 91.4944 143.149 91.6526C143.416 91.8109 143.642 92.0122 143.814 92.2448C143.987 92.4774 144.101 92.7364 144.152 93.0067C144.202 93.277 144.188 93.553 144.108 93.8184C144.029 94.0838 143.887 94.3332 143.691 94.552C143.494 94.7708 143.248 94.9544 142.965 95.0921C142.682 95.2298 142.369 95.3188 142.045 95.3537L142.03 95.3664Z" fill="white" stroke="#263238" stroke-miterlimit="10"/>
<path d="M139.935 95.5622L111.888 99.1014C111.298 99.043 110.753 98.8077 110.354 98.4391C109.955 98.0704 109.73 97.5935 109.72 97.0967C109.71 96.5999 109.916 96.1168 110.299 95.737C110.682 95.3573 111.217 95.1065 111.805 95.0313L140.087 91.4731C140.656 91.5765 141.164 91.8436 141.521 92.2278C141.879 92.6121 142.064 93.0891 142.044 93.5757C142.025 94.0623 141.801 94.5277 141.413 94.8907C141.025 95.2537 140.497 95.4914 139.92 95.5622H139.935Z" fill="#B5B5B5" stroke="#263238" stroke-miterlimit="10"/>
<path d="M91.9069 101.08C91.4609 101.086 91.029 100.949 90.6996 100.698C90.3703 100.447 90.1685 100.099 90.1356 99.7275C90.1027 99.3557 90.2413 98.9874 90.5228 98.6982C90.8044 98.4091 91.2076 98.2209 91.6498 98.1724L111.888 95.6001C112.122 95.5586 112.364 95.5575 112.598 95.5968C112.832 95.6362 113.055 95.7153 113.251 95.8291C113.448 95.943 113.615 96.0893 113.741 96.259C113.868 96.4287 113.951 96.6182 113.987 96.8159C114.023 97.0136 114.009 97.2153 113.948 97.4087C113.887 97.602 113.78 97.7828 113.632 97.94C113.484 98.0973 113.299 98.2276 113.089 98.323C112.879 98.4184 112.648 98.4768 112.41 98.4947L92.1412 101.023L91.9069 101.08Z" fill="#B5B5B5" stroke="#263238" stroke-miterlimit="10"/>
<path d="M112.122 109.789C112.122 109.789 114.503 103.058 114.685 101.832C114.866 100.606 116.514 99.5376 116.514 99.5376C116.514 99.5376 119.538 97.4773 120.294 96.3776C121.05 95.278 121.67 96.6052 121.67 97.5279C121.67 98.4506 118.102 101.276 118.102 101.276C118.425 102.525 118.637 103.792 118.737 105.068C118.593 106.144 118.189 107.185 117.55 108.127L115.811 112.329L112.122 109.789Z" fill="white" stroke="#263238" stroke-miterlimit="10"/>
<path d="M111.207 108.79L118.072 112.999L115.6 116.513L109.287 112.083L111.207 108.79Z" fill="white" stroke="#263238" stroke-miterlimit="10"/>
<path d="M109.469 111.318L117.981 117.05C117.981 117.05 100.14 139.076 99.0436 139.689C98.037 140.145 96.9577 140.479 95.8381 140.681L91.6348 129.823L109.469 111.318Z" fill="#3652AD" stroke="#263238" stroke-miterlimit="10"/>
<path d="M84.9594 113.991L89.1628 116.21H86.9704L85.8742 117.05L83.8556 116.899L83.1299 114.908L84.9594 113.991Z" fill="white" stroke="#263238" stroke-linecap="round" stroke-linejoin="round"/>
<path d="M90.2586 91.0497C90.2586 91.0497 92.8214 96.4028 92.4585 96.94C92.0957 97.4772 91.5438 98.3177 91.7025 98.836C91.8613 99.3542 94.4468 101.996 94.1747 102.432C93.5475 103.2 92.8738 103.94 92.1561 104.65C92.1561 104.65 91.2414 108.088 91.4001 108.398C91.5589 108.708 92.4056 109.542 91.8537 110.383C91.3019 111.223 89.8957 111.4 88.9809 111.4C88.2773 111.386 87.5754 111.336 86.8793 111.248L84.2257 115.451L69.3174 110.711L71.5854 106.502C70.5718 104.281 70.4106 101.851 71.1242 99.5501C72.3187 95.6507 81.2849 91.1382 85.0346 90.7021C88.7844 90.266 90.2586 91.0497 90.2586 91.0497Z" fill="white" stroke="#263238" stroke-linecap="round" stroke-linejoin="round"/>
<path d="M86.7887 92.042C86.7887 92.042 89.1625 94.6458 88.7089 95.4106C87.8969 96.3487 86.9778 97.2186 85.9646 98.0081C85.9646 98.0081 86.7206 100.688 86.3275 100.991C86.0896 101.159 85.8103 101.28 85.5097 101.347C85.2091 101.413 84.8946 101.424 84.5887 101.377C84.2258 101.219 81.9351 97.5846 80.4761 98.3936C79.017 99.2026 78.7373 101.219 79.3723 102.369C79.7043 102.984 80.1042 103.572 80.5668 104.126C80.5668 104.126 76.9078 106.957 74.8968 107.286C72.8858 107.614 71.3285 107.747 70.7766 107.058C70.2247 106.369 66.8454 100.176 66.7547 95.815C66.664 91.4542 70.134 87.7886 72.2432 86.967C74.3525 86.1454 78.3668 86.0506 78.3668 86.0506C78.3668 86.0506 78.6465 84.0598 81.4815 84.1546C84.3165 84.2494 87.2423 86.1454 87.2423 86.1454C87.2423 86.1454 86.3275 83.3899 88.5199 84.9952C90.7123 86.6005 92.2999 87.5232 91.8161 90.0512C91.3322 92.5792 86.7887 92.042 86.7887 92.042Z" fill="#263238" stroke="#263238" stroke-linecap="round" stroke-linejoin="round"/>
<path d="M80.5664 104.126L82.5774 104.587L83.4014 105.965" stroke="#263238" stroke-linecap="round" stroke-linejoin="round"/>
<path d="M88.9814 111.4C88.3465 111.131 87.7352 110.825 87.1519 110.484C86.3959 110.023 84.7705 109.03 84.7705 109.03L85.6853 112.696L86.8797 111.249L88.9814 111.4Z" fill="#263238" stroke="#263238" stroke-linecap="round" stroke-linejoin="round"/>
<path d="M65.7488 109.555L64.9248 112.765L83.031 116.974L91.8157 123.32L84.7698 116.285L83.6736 114.067L65.7488 109.555Z" fill="white" stroke="#263238" stroke-linecap="round" stroke-linejoin="round"/>
<path d="M85.874 117.05C85.874 117.05 90.9468 118.517 94.8175 127.282C98.6882 136.048 109.552 170.954 109.552 170.954L103.557 172.218C101.726 163.785 99.2672 155.455 96.1934 147.279C91.476 135.107 85.874 117.05 85.874 117.05Z" fill="#3652AD" stroke="#263238" stroke-linecap="round" stroke-linejoin="round"/>
<path d="M104.427 169.121C104.427 169.121 102.378 187.664 101.516 196.549C100.654 205.435 92.1794 229.458 91.1739 232.7C90.1685 235.942 89.7375 245.909 89.7375 245.909L91.1739 246.749V247.71L96.0577 250.352C96.0577 250.352 103.24 252.519 101.66 253.84C100.08 255.161 97.2068 254.681 93.1849 254.681C89.163 254.681 84.8689 253.48 83.561 253.48C82.5055 253.516 81.4482 253.476 80.4009 253.36C79.8264 253.24 78.5336 253.72 78.5336 252.639C78.3042 250.903 77.9686 249.177 77.5281 247.47C77.5281 247.47 76.3563 246.016 76.3563 245.068C76.3563 244.12 76.6436 240.865 77.2182 239.664C77.7927 238.464 78.6546 233.66 78.6546 233.66L79.5164 221.052L74.489 230.178L70.1798 245.308C70.1798 245.308 72.3344 245.909 72.3344 246.389C72.3344 246.869 71.9035 249.031 71.9035 249.031C71.9035 249.031 74.6327 251.312 75.9254 252.191C78.4756 253.551 81.113 254.794 83.8256 255.913C84.2565 256.033 86.0936 257.354 84.9747 257.955C83.8559 258.555 78.08 258.915 73.4835 258.915C68.8871 258.915 62.9903 257.234 62.9903 257.234L61.6975 257.955L56.9574 256.994C56.3828 256.874 56.0955 254.712 56.2014 253.872C56.2742 253.11 56.2742 252.345 56.2014 251.584C56.2014 251.104 55.7705 248.582 56.0577 247.741C56.345 246.901 57.3505 244.619 57.3505 244.619C57.3505 244.619 59.5051 225.166 60.0797 222.164C60.6542 219.162 64.593 212.52 64.593 212.52C64.593 212.52 66.6115 200.746 66.861 198.464C67.1105 196.183 67.2919 187.537 67.2919 187.537C65.9115 184.611 64.8044 181.6 63.9806 178.531C63.1188 174.689 63.837 173.848 63.837 173.848L65.7723 167.844L104.427 169.121Z" fill="#263238" stroke="#263238" stroke-linecap="round" stroke-linejoin="round"/>
<path d="M82.3359 217.898C82.3359 217.898 86.7132 205.707 87.4389 202.048C88.1647 198.389 93.0333 184.567 93.0333 184.567L97.6525 181.925" stroke="#8C8C8C" stroke-linecap="round" stroke-linejoin="round"/>
<path d="M65.5605 216.072C65.5605 216.072 76.016 210.789 82.0943 201.644" stroke="#8C8C8C" stroke-linecap="round" stroke-linejoin="round"/>
<path d="M83.5451 196.151C83.5451 196.151 77.2249 204.285 72.8477 207.527" stroke="#8C8C8C" stroke-linecap="round" stroke-linejoin="round"/>
<path d="M94.6514 129.21C94.6514 129.21 102.06 158.686 103.058 162.649C104.056 166.612 104.426 169.121 104.426 169.121C102.903 169.373 101.363 169.546 99.8149 169.639C98.4389 169.639 95.4452 169.538 95.4452 169.538L90.9092 127.592L94.6514 129.21Z" fill="white" stroke="#263238" stroke-linecap="round" stroke-linejoin="round"/>
<path d="M62.7477 111.621V114.832C62.7477 114.832 58.5444 128.907 59.0887 133.337C59.633 137.767 64.857 152 64.857 152C64.857 152 63.5718 153.757 63.481 153.984C63.5642 154.658 63.7185 155.324 63.9422 155.975L59.255 175.232C59.255 175.232 77.089 178.392 88.7995 177.526C100.51 176.66 101.304 176.161 101.304 176.161C101.304 176.161 99.7917 157.966 99.8673 153.681C99.9429 149.396 95.6564 131.277 94.6509 129.21C93.6454 127.143 91.8159 123.32 91.8159 123.32L83.0312 117L62.7477 111.621Z" fill="#3652AD" stroke="#263238" stroke-linecap="round" stroke-linejoin="round"/>
<path d="M76.2651 134.563C76.2651 134.563 66.5732 141.907 65.1973 142.368" stroke="#263238" stroke-linecap="round" stroke-linejoin="round"/>
<path d="M79.1001 134.335C79.1001 134.335 76.3559 138.083 75.1689 139.764" stroke="#263238" stroke-linecap="round" stroke-linejoin="round"/>
<path d="M77.913 140.144L74.9873 144.808" stroke="#263238" stroke-linecap="round" stroke-linejoin="round"/>
<path d="M95.6562 106.344C95.6562 106.344 95.936 100.915 96.2081 100.024C96.9944 98.3822 97.88 96.7748 98.8617 95.2082C98.8617 95.2082 100.321 94.2097 100.963 94.5762C101.606 94.9428 101.515 95.8402 101.515 95.8402C101.515 95.8402 102.611 94.5762 103.254 94.6963C103.897 94.8164 104.532 95.9224 104.532 95.9224C105.184 95.7572 105.874 95.729 106.543 95.8402C107.299 96.0741 107.828 95.9224 107.639 96.6049C107.45 97.2875 105.628 101.029 105.628 101.029C105.628 101.029 109.468 99.8092 109.468 100.397C109.468 100.985 108.833 101.244 108.009 101.699C107.185 102.154 104.169 103.456 104.169 103.456L101.901 105.352L101.538 107.109L95.6562 106.344Z" fill="white" stroke="#263238" stroke-linecap="round" stroke-linejoin="round"/>
<path d="M96.012 109.175L95.6416 106.344C96.4996 106.12 97.3966 106.017 98.2952 106.041C99.6934 106.228 101.071 106.509 102.415 106.881L102.597 109.788L96.012 109.175Z" fill="white" stroke="#263238" stroke-linecap="round" stroke-linejoin="round"/>
<path d="M64.9255 120.798C64.9255 120.798 68.5845 119.957 69.6807 119.882C70.7769 119.806 94.3792 121.639 94.3792 121.639L95.5661 108.183C96.4471 108.051 97.3516 108.077 98.2197 108.259L104.895 109.864C104.895 109.864 105.266 123.768 105.266 126.928V132.054C104.55 132.278 103.814 132.455 103.066 132.585C102.06 132.743 77.0895 134.481 72.5157 134.481C67.9419 134.481 63.0959 134.784 61.9922 130.891" fill="#3652AD"/>
<path d="M64.9255 120.798C64.9255 120.798 68.5845 119.957 69.6807 119.882C70.7769 119.806 94.3792 121.639 94.3792 121.639L95.5661 108.183C96.4471 108.051 97.3516 108.077 98.2197 108.259L104.895 109.864C104.895 109.864 105.266 123.768 105.266 126.928V132.054C104.55 132.278 103.814 132.455 103.066 132.585C102.06 132.743 77.0895 134.481 72.5157 134.481C67.9419 134.481 63.0959 134.784 61.9922 130.891" stroke="#263238" stroke-linecap="round" stroke-linejoin="round"/>
</svg>
