<svg width="342" height="325" viewBox="0 0 342 325" fill="none" xmlns="http://www.w3.org/2000/svg">
<g clip-path="url(#clip0_269_3345)">
<path fill-rule="evenodd" clip-rule="evenodd" d="M178.06 25.7966C211.696 31.0638 225.429 70.9533 248.321 97.1363C269.282 121.11 298.456 138.436 304.367 170.26C311.361 207.906 310.403 254.015 282 278.435C254.232 302.309 213.917 282.387 178.06 278.856C147.732 275.869 116.871 278.172 92.0889 259.734C62.5369 237.747 33.9372 208.019 32.0987 170.26C30.2069 131.409 55.8244 98.0417 82.9102 71.2338C109.198 45.216 142.187 20.1791 178.06 25.7966Z" fill="#3652AD" fill-opacity="0.4"/>
<path opacity="0.07" d="M25.1703 30.2949V294.267H15.2139V18.5781L25.1703 30.2949ZM164.934 140.186L161.348 136.345V294.267H171.304V137.949L164.934 140.186ZM102.887 73.7271V294.267H112.855V84.3931L102.887 73.7271ZM73.6629 72.2696V294.267H83.6194V69.1285L73.6629 72.2696ZM44.4384 52.8923V294.267H54.3948V64.6091L44.4384 52.8923ZM132.123 105.036V294.267H142.08V115.747L132.123 105.036ZM307.493 171.45V294.267H317.449V180.568L307.493 171.45ZM278.268 144.683V294.267H288.225V153.801L278.268 144.683ZM190.595 131.192V294.267H200.551V127.69L190.595 131.192ZM249.044 117.905V294.267H259V127.046L249.044 117.905ZM219.819 120.933V294.267H229.776V117.442L219.819 120.933Z" fill="black"/>
<path d="M340.146 200.905L243.319 112.685L160.375 145.146L95.1031 65.3774L63.695 75.4784L12.4871 13.844" stroke="#3652AD" stroke-width="3" stroke-linecap="round" stroke-linejoin="round"/>
<path d="M23.8126 8.95171L1.60291 0.737549L5.58549 24.0581L23.8126 8.95171Z" fill="#3652AD"/>
<path d="M168.928 323.35C209.726 323.35 242.798 317.846 242.798 311.057C242.798 304.267 209.726 298.764 168.928 298.764C128.131 298.764 95.058 304.267 95.058 311.057C95.058 317.846 128.131 323.35 168.928 323.35Z" fill="#3652AD"/>
<path opacity="0.5" d="M168.928 323.35C209.726 323.35 242.798 317.846 242.798 311.057C242.798 304.267 209.726 298.764 168.928 298.764C128.131 298.764 95.058 304.267 95.058 311.057C95.058 317.846 128.131 323.35 168.928 323.35Z" fill="white"/>
<path d="M162.547 42.0119C154.199 57.2691 151.959 75.1211 156.279 91.9635C163.531 120.278 183.659 153.044 183.659 153.044L208.732 145.135C208.732 145.135 206.752 98.0535 196.195 75.7837C185.639 53.514 166.179 41.3679 162.547 42.0119Z" fill="#263238" stroke="#263238" stroke-linecap="round" stroke-linejoin="round"/>
<path d="M179.699 40.351C171.336 56.2481 169.105 74.6576 173.431 92.0878C180.695 121.464 200.823 155.361 200.823 155.361L225.895 147.09C225.895 147.09 223.915 98.3359 213.359 75.264C202.803 52.192 183.308 39.7521 179.699 40.351Z" fill="#3652AD"/>
<mask id="mask0_269_3345" style="mask-type:luminance" maskUnits="userSpaceOnUse" x="171" y="40" width="55" height="116">
<path d="M179.699 40.351C171.336 56.2481 169.105 74.6576 173.431 92.0878C180.695 121.464 200.823 155.361 200.823 155.361L225.895 147.09C225.895 147.09 223.915 98.3359 213.359 75.264C202.803 52.192 183.308 39.7521 179.699 40.351Z" fill="white"/>
</mask>
<g mask="url(#mask0_269_3345)">
<path opacity="0.29" d="M178.783 53.3106C171.365 67.4091 169.388 83.7368 173.228 99.1946C179.665 125.182 197.519 155.304 197.519 155.304L219.763 148.005C219.763 148.005 218.009 104.742 208.641 84.2916C199.273 63.8409 181.973 52.7569 178.783 53.3106Z" fill="black"/>
</g>
<path d="M179.699 40.351C171.336 56.2481 169.105 74.6576 173.431 92.0878C180.695 121.464 200.823 155.361 200.823 155.361L225.895 147.09C225.895 147.09 223.915 98.3359 213.359 75.264C202.803 52.192 183.308 39.7521 179.699 40.351Z" stroke="#263238" stroke-linecap="round" stroke-linejoin="round"/>
<path d="M179.699 40.3508C174.488 50.1244 171.626 60.9747 171.338 72.0437C176.121 72.2478 180.911 71.9066 185.617 71.0268C192.994 69.7284 200.058 67.0446 206.435 63.1177C195.879 47.887 182.63 39.8198 179.699 40.3508Z" fill="#263238" stroke="#263238" stroke-linecap="round" stroke-linejoin="round"/>
<path d="M225.59 141.655L198.379 151.067C199.895 153.779 200.823 155.338 200.823 155.338L225.895 147.09C225.895 147.09 225.805 145.067 225.59 141.655Z" fill="#263238" stroke="#263238" stroke-linecap="round" stroke-linejoin="round"/>
<path d="M117.087 296.605C117.087 296.605 107.583 303.509 99.81 305.644C92.0372 307.78 97.2191 312.107 103.261 312.107C109.303 312.107 119.248 309.949 124 309.949C128.752 309.949 133.051 311.678 134.805 307.362C136.558 303.046 135.235 300.458 135.235 300.458C135.235 300.458 123.14 297.035 117.087 296.605Z" fill="white" stroke="#263238" stroke-linecap="round" stroke-linejoin="round"/>
<path d="M124.837 307.215C117.336 307.215 114.168 309.588 106.463 310.175C102.844 310.576 99.2019 309.674 96.1894 307.633C94.7412 309.746 98.7691 312.153 103.261 312.153C109.314 312.153 119.248 309.995 124 309.995C128.752 309.995 133.051 311.723 134.805 307.407C135.2 306.44 135.47 305.426 135.608 304.39C132.252 306.065 128.584 307.027 124.837 307.215Z" fill="white" stroke="#263238" stroke-linecap="round" stroke-linejoin="round"/>
<path d="M189.871 298.73C189.871 298.73 184.146 308.209 180.819 310.966C177.493 313.723 175.287 316.887 179.032 317.09C182.777 317.294 190.504 315.113 197.621 312.153C204.738 309.192 211.651 301.498 211.651 300.312C211.651 299.125 208.098 293.792 208.098 293.792C208.098 293.792 194.815 295.973 189.871 298.73Z" fill="white" stroke="#263238" stroke-linecap="round" stroke-linejoin="round"/>
<path d="M210.881 298.492C206.232 303.542 200.553 307.537 194.227 310.209C185.492 313.949 179.79 314.966 177.154 315.248C176.803 316.288 177.244 317.034 178.998 317.124C182.754 317.316 190.47 315.147 197.587 312.186C204.704 309.226 211.617 301.532 211.617 300.345C211.485 299.689 211.236 299.061 210.881 298.492Z" fill="white" stroke="#263238" stroke-linecap="round" stroke-linejoin="round"/>
<path d="M137.396 150.355L132.214 167.179C132.214 167.179 113.161 208.159 109.314 218.95C105.467 229.74 114.496 248.722 115.367 260.755C116.238 272.788 115.797 289.228 115.797 289.228C115.318 289.586 114.918 290.039 114.62 290.558C114.322 291.076 114.134 291.65 114.066 292.244V297.894L136.524 303.068C136.524 303.068 137.396 292.29 136.524 286.685C135.653 281.081 134.805 246.123 134.805 240.948C134.805 235.773 133.074 225.424 133.074 225.424L149.491 203.855C149.491 203.855 144.739 229.299 146.47 234.045C148.201 238.79 163.316 256.913 167.197 260.359C171.078 263.806 190.957 290.561 190.957 290.561C190.957 290.561 187.936 293.148 187.936 295.306C188.061 297.341 188.348 299.362 188.796 301.351L209.105 295.702C209.105 295.702 206.514 287.51 202.192 276.72C197.87 265.93 173.68 227.977 173.68 227.977C173.68 227.977 193.118 179.653 193.118 168.874C193.118 158.095 193.548 150.321 193.548 150.321C193.548 150.321 159.854 159.417 137.396 150.355Z" fill="#263238" stroke="#263238" stroke-linecap="round" stroke-linejoin="round"/>
<path d="M149.49 203.854L154.672 178.398L147.759 169.337" stroke="white" stroke-linecap="round" stroke-linejoin="round"/>
<path d="M116.838 144.423C116.4 144.513 115.944 144.433 115.562 144.199C115.181 143.966 114.903 143.597 114.783 143.166C114.664 142.736 114.713 142.276 114.92 141.88C115.127 141.485 115.477 141.182 115.899 141.034L160.805 124.086C161.022 124.004 161.252 123.966 161.484 123.973C161.716 123.981 161.944 124.034 162.155 124.129C162.366 124.225 162.556 124.361 162.715 124.53C162.873 124.699 162.997 124.897 163.079 125.114C163.16 125.33 163.199 125.561 163.191 125.792C163.184 126.024 163.131 126.251 163.035 126.462C162.939 126.673 162.803 126.863 162.634 127.021C162.465 127.18 162.266 127.303 162.049 127.385L117.155 144.333C117.052 144.372 116.946 144.403 116.838 144.423Z" fill="#263238" stroke="#263238" stroke-linecap="round" stroke-linejoin="round"/>
<path d="M118.727 122.233C118.727 122.233 123.547 123.679 136.479 116.391L140.032 130.345C140.032 130.345 130.856 134.3 117.29 132.435L118.727 122.233Z" fill="white"/>
<mask id="mask1_269_3345" style="mask-type:luminance" maskUnits="userSpaceOnUse" x="117" y="116" width="24" height="17">
<path d="M118.727 122.233C118.727 122.233 123.547 123.679 136.479 116.391L140.032 130.345C140.032 130.345 130.856 134.3 117.29 132.435L118.727 122.233Z" fill="white"/>
</mask>
<g mask="url(#mask1_269_3345)">
<path opacity="0.15" d="M118.727 122.233C118.727 122.233 123.547 123.679 136.479 116.391L140.032 130.345C140.032 130.345 130.856 134.3 117.29 132.435L118.727 122.233Z" fill="black"/>
</g>
<path d="M118.727 122.233C118.727 122.233 123.547 123.679 136.479 116.391L140.032 130.345C140.032 130.345 130.856 134.3 117.29 132.435L118.727 122.233Z" stroke="#263238" stroke-linecap="round" stroke-linejoin="round"/>
<path d="M118.139 141.35C117.499 141.347 116.878 141.134 116.371 140.745C115.864 140.355 115.499 139.809 115.333 139.192L108.42 113.205C108.322 112.834 108.298 112.447 108.35 112.067C108.401 111.687 108.527 111.321 108.72 110.989C108.914 110.658 109.171 110.367 109.476 110.135C109.782 109.903 110.13 109.733 110.502 109.635C110.873 109.537 111.26 109.513 111.641 109.564C112.022 109.616 112.389 109.742 112.721 109.935C113.053 110.128 113.343 110.384 113.576 110.689C113.809 110.995 113.979 111.343 114.077 111.714L120.99 137.701C121.089 138.069 121.114 138.452 121.064 138.83C121.014 139.208 120.89 139.572 120.699 139.902C120.507 140.232 120.253 140.52 119.949 140.751C119.646 140.982 119.3 141.151 118.931 141.248C118.673 141.32 118.406 141.354 118.139 141.35Z" fill="#3652AD" stroke="#263238" stroke-miterlimit="10"/>
<path d="M120.809 116.888C117.505 115.465 115.039 125.554 119.27 128.526C121.533 130.108 122.959 127.102 123.174 125.136C123.389 123.17 123.321 119.758 122.201 118.142C121.859 117.606 121.378 117.173 120.809 116.888Z" fill="white" stroke="#263238" stroke-linecap="round" stroke-linejoin="round"/>
<path d="M119.734 131.938C119.734 131.938 114.835 131.758 112.946 133.396C111.056 135.034 112.459 136.989 113.579 136.785C114.699 136.582 119.904 136.096 120.933 135.023C121.963 133.949 121.974 133.351 119.734 131.938Z" fill="white" stroke="#263238" stroke-linecap="round" stroke-linejoin="round"/>
<path d="M118.41 127.441C118.41 127.441 112.753 127.125 110.57 129.08C108.386 131.034 110.072 133.475 111.373 133.294C112.674 133.113 118.716 132.571 119.893 131.272C121.069 129.972 121.081 129.204 118.41 127.441Z" fill="white" stroke="#263238" stroke-linecap="round" stroke-linejoin="round"/>
<path d="M117.89 122.843C117.89 122.843 110.988 121.577 108.069 123.634C105.15 125.69 106.779 128.91 108.397 128.899C110.015 128.888 117.449 129.147 119.089 127.769C120.73 126.391 120.82 125.408 117.89 122.843Z" fill="white" stroke="#263238" stroke-linecap="round" stroke-linejoin="round"/>
<path d="M117.517 117.363C117.517 117.363 110.626 116.098 107.696 118.154C104.766 120.21 106.417 123.419 108.035 123.408C109.653 123.396 117.087 123.656 118.727 122.278C120.368 120.899 120.447 119.973 117.517 117.363Z" fill="white" stroke="#263238" stroke-linecap="round" stroke-linejoin="round"/>
<path d="M135.551 68.1117C135.551 68.1117 127.088 83.6361 128.695 96.6523C130.302 109.668 135.551 122.639 136.92 128.379C138.289 134.119 133.945 147.587 134.861 151.654C135.778 155.722 154.978 157.823 171.44 158.513C187.902 159.202 195.2 154.852 196.128 150.287C197.055 145.723 197.497 146.412 196.806 137.96C196.116 129.509 188.581 84.7773 184.01 76.0999C179.439 67.4225 157.727 59.8976 154.061 58.9598C150.396 58.022 140.315 59.4456 135.551 68.1117Z" fill="white"/>
<mask id="mask2_269_3345" style="mask-type:luminance" maskUnits="userSpaceOnUse" x="128" y="58" width="70" height="101">
<path d="M135.551 68.1117C135.551 68.1117 127.088 83.6361 128.695 96.6523C130.302 109.668 135.551 122.639 136.92 128.379C138.289 134.119 133.945 147.587 134.861 151.654C135.778 155.722 154.978 157.823 171.44 158.513C187.902 159.202 195.2 154.852 196.128 150.287C197.055 145.723 197.497 146.412 196.806 137.96C196.116 129.509 188.581 84.7773 184.01 76.0999C179.439 67.4225 157.727 59.8976 154.061 58.9598C150.396 58.022 140.315 59.4456 135.551 68.1117Z" fill="white"/>
</mask>
<g mask="url(#mask2_269_3345)">
<path opacity="0.15" d="M176.701 78.8794L168.023 92.4379C168.023 92.4379 167.276 98.8443 170.671 103.737C172.655 106.627 174.797 109.407 177.086 112.064L160.477 103.398C160.477 103.398 171.429 120.346 174.438 123.735C177.448 127.125 181.985 132.774 177.459 139.192C173.081 145.384 153.179 153.349 151.188 156.931C157.422 157.722 164.663 158.242 171.44 158.524C187.891 159.202 195.2 154.863 196.127 150.299C197.055 145.734 197.497 146.423 196.806 137.972C196.161 130.063 189.509 90.3363 184.915 78.1902C181.487 77.3654 178.545 77.3993 176.701 78.8794Z" fill="black"/>
</g>
<path d="M135.551 68.1117C135.551 68.1117 127.088 83.6361 128.695 96.6523C130.302 109.668 135.551 122.639 136.92 128.379C138.289 134.119 133.945 147.587 134.861 151.654C135.778 155.722 154.978 157.823 171.44 158.513C187.902 159.202 195.2 154.852 196.128 150.287C197.055 145.723 197.497 146.412 196.806 137.96C196.116 129.509 188.581 84.7773 184.01 76.0999C179.439 67.4225 157.727 59.8976 154.061 58.9598C150.396 58.022 140.315 59.4456 135.551 68.1117Z" stroke="#263238" stroke-linecap="round" stroke-linejoin="round"/>
<path d="M153.383 54.1919L136.92 74.9589L145.666 87.2858L160.182 60.1011L153.383 54.1919Z" fill="white" stroke="#263238" stroke-linecap="round" stroke-linejoin="round"/>
<path d="M130.37 73.5803L130.188 82.9469L137.69 78.4501L130.37 73.5803Z" fill="white" stroke="#263238" stroke-linecap="round" stroke-linejoin="round"/>
<path d="M133.006 65.8972L130.37 73.5803L140.688 82.7549L133.006 65.8972Z" fill="white" stroke="#263238" stroke-linecap="round" stroke-linejoin="round"/>
<path d="M128.819 55.2312C128.819 55.2312 137.192 78.1789 139.591 77.4558C141.989 76.7327 151.561 60.5077 152.036 57.378C152.511 54.2483 149.162 46.8589 149.162 46.8589C144.609 47.9615 140.192 49.5644 135.993 51.6383C128.571 55.2312 128.819 55.2312 128.819 55.2312Z" fill="white"/>
<mask id="mask3_269_3345" style="mask-type:luminance" maskUnits="userSpaceOnUse" x="128" y="46" width="25" height="32">
<path d="M128.819 55.2312C128.819 55.2312 137.192 78.1789 139.591 77.4558C141.989 76.7327 151.561 60.5077 152.036 57.378C152.511 54.2483 149.162 46.8589 149.162 46.8589C144.609 47.9615 140.192 49.5644 135.993 51.6383C128.571 55.2312 128.819 55.2312 128.819 55.2312Z" fill="white"/>
</mask>
<g mask="url(#mask3_269_3345)">
<path d="M135.993 51.6383L135.676 51.7965C135.48 52.4487 135.19 53.069 134.816 53.6381C132.644 56.8809 130.799 57.8978 129.94 58.2141C130.007 58.3949 130.075 58.5757 130.155 58.7678L146.741 67.9988C149.411 63.5584 151.799 58.9598 152.036 57.4119C152.511 54.3048 149.162 46.8928 149.162 46.8928C144.611 47.9846 140.194 49.5761 135.993 51.6383Z" fill="#3652AD"/>
<path opacity="0.5" d="M135.993 51.6383L135.676 51.7965C135.48 52.4487 135.19 53.069 134.816 53.6381C132.644 56.8809 130.799 57.8978 129.94 58.2141C130.007 58.3949 130.075 58.5757 130.155 58.7678L146.741 67.9988C149.411 63.5584 151.799 58.9598 152.036 57.4119C152.511 54.3048 149.162 46.8928 149.162 46.8928C144.611 47.9846 140.194 49.5761 135.993 51.6383Z" fill="white"/>
</g>
<path d="M128.819 55.2312C128.819 55.2312 137.192 78.1789 139.591 77.4558C141.989 76.7327 151.561 60.5077 152.036 57.378C152.511 54.2483 149.162 46.8589 149.162 46.8589C144.609 47.9615 140.192 49.5644 135.993 51.6383C128.571 55.2312 128.819 55.2312 128.819 55.2312Z" stroke="#263238" stroke-linecap="round" stroke-linejoin="round"/>
<path d="M128.695 96.6523C128.695 96.6523 133.492 103.273 157.49 103.036L161.834 109.431C161.834 109.431 142.86 113.544 129.838 102.584L128.695 96.6523Z" fill="#263238" stroke="#263238" stroke-linecap="round" stroke-linejoin="round"/>
<path d="M165.489 63.3213C165.489 63.3213 157.953 64.6884 154.299 79.2977C150.644 93.9069 159.322 113.081 173.035 118.335C186.748 123.589 193.842 114.222 193.842 114.222L191.783 109.205C191.783 109.205 186.986 118.561 175.094 113.544C163.203 108.527 158.632 96.2457 159.549 84.0883C160.465 71.9309 171.44 66.2929 171.44 66.2929L165.489 63.3213Z" fill="#263238" stroke="#263238" stroke-linecap="round" stroke-linejoin="round"/>
<path d="M142.578 154.016C142.084 154.032 141.604 153.859 141.234 153.532C140.864 153.206 140.633 152.751 140.589 152.26C140.544 151.769 140.688 151.28 140.993 150.892C141.297 150.505 141.739 150.248 142.227 150.174L225.669 120.865C226.176 120.77 226.7 120.879 227.127 121.169C227.553 121.459 227.847 121.907 227.943 122.413C228.039 122.92 227.93 123.444 227.639 123.87C227.348 124.295 226.9 124.589 226.393 124.684L142.94 153.993C142.82 154.012 142.699 154.02 142.578 154.016Z" fill="#263238" stroke="#263238" stroke-linecap="round" stroke-linejoin="round"/>
<path d="M145.451 150.683C144.738 150.683 144.045 150.448 143.478 150.015C142.912 149.582 142.504 148.975 142.317 148.288L134.658 119.329C134.522 118.91 134.473 118.468 134.514 118.029C134.555 117.59 134.685 117.165 134.896 116.778C135.107 116.391 135.395 116.051 135.742 115.779C136.089 115.507 136.488 115.309 136.914 115.196C137.34 115.083 137.785 115.058 138.222 115.122C138.658 115.187 139.077 115.339 139.452 115.571C139.828 115.802 140.152 116.107 140.405 116.468C140.659 116.828 140.836 117.237 140.926 117.668L148.642 146.615C148.864 147.441 148.751 148.321 148.328 149.063C147.904 149.806 147.204 150.351 146.379 150.581C146.076 150.655 145.764 150.689 145.451 150.683Z" fill="#3652AD" stroke="#263238" stroke-miterlimit="10"/>
<path d="M161.812 134.763C161.812 134.763 151.753 127.012 148.789 124.956C145.825 122.899 138.957 125.634 136.672 125.634C134.386 125.634 131.41 127.893 131.874 129.52C132.324 130.645 133.115 131.602 134.137 132.255C134.137 132.255 132.531 135 133.9 137.057C134.659 138.041 135.136 139.212 135.28 140.446C135.839 141.832 136.696 143.078 137.792 144.096C139.161 145.011 142.136 145.463 145.791 145.463C149.445 145.463 155.849 142.954 155.849 142.954L162.253 142.728L161.812 134.763Z" fill="white"/>
<mask id="mask4_269_3345" style="mask-type:luminance" maskUnits="userSpaceOnUse" x="131" y="124" width="32" height="22">
<path d="M161.812 134.763C161.812 134.763 151.753 127.012 148.789 124.956C145.825 122.899 138.957 125.634 136.672 125.634C134.386 125.634 131.41 127.893 131.874 129.52C132.324 130.645 133.115 131.602 134.137 132.255C134.137 132.255 132.531 135 133.9 137.057C134.659 138.041 135.136 139.212 135.28 140.446C135.839 141.832 136.696 143.078 137.792 144.096C139.161 145.011 142.136 145.463 145.791 145.463C149.445 145.463 155.849 142.954 155.849 142.954L162.253 142.728L161.812 134.763Z" fill="white"/>
</mask>
<g mask="url(#mask4_269_3345)">
<path d="M155.894 142.988L162.298 142.762L162.208 141.192L161.235 136.537C161.235 136.537 150.294 129.757 145.757 130.13C141.22 130.503 138.595 130.469 138.21 137.294C138.109 138.744 138.318 140.2 138.823 141.563C139.328 142.927 140.118 144.168 141.141 145.203C142.696 145.423 144.265 145.529 145.836 145.519C149.491 145.497 155.894 142.988 155.894 142.988Z" fill="#3652AD"/>
<path opacity="0.5" d="M155.894 142.988L162.298 142.762L162.208 141.192L161.235 136.537C161.235 136.537 150.294 129.757 145.757 130.13C141.22 130.503 138.595 130.469 138.21 137.294C138.109 138.744 138.318 140.2 138.823 141.563C139.328 142.927 140.118 144.168 141.141 145.203C142.696 145.423 144.265 145.529 145.836 145.519C149.491 145.497 155.894 142.988 155.894 142.988Z" fill="white"/>
</g>
<path d="M161.812 134.763C161.812 134.763 151.753 127.012 148.789 124.956C145.825 122.899 138.957 125.634 136.672 125.634C134.386 125.634 131.41 127.893 131.874 129.52C132.324 130.645 133.115 131.602 134.137 132.255C134.137 132.255 132.531 135 133.9 137.057C134.659 138.041 135.136 139.212 135.28 140.446C135.839 141.832 136.696 143.078 137.792 144.096C139.161 145.011 142.136 145.463 145.791 145.463C149.445 145.463 155.849 142.954 155.849 142.954L162.253 142.728L161.812 134.763Z" stroke="#263238" stroke-linecap="round" stroke-linejoin="round"/>
<path d="M168.464 70.6315C168.464 70.6315 160.239 78.1564 163.441 88.201C166.643 98.2455 179.914 107.601 183.309 112.166C185.805 115.354 188.56 118.332 191.545 121.069C191.545 121.069 181.249 126.097 173.94 129.294C169.793 131.114 165.515 132.625 161.144 133.814L161.37 142.48C161.37 142.48 186.51 143.61 198.164 139.09C209.818 134.571 218.281 128.82 218.281 121.973C218.281 115.126 203.674 102.358 195.89 90.0313C188.106 77.7045 182.403 71.3094 174.642 70.1682" fill="white"/>
<mask id="mask5_269_3345" style="mask-type:luminance" maskUnits="userSpaceOnUse" x="161" y="70" width="58" height="73">
<path d="M168.464 70.6315C168.464 70.6315 160.239 78.1564 163.441 88.201C166.643 98.2455 179.914 107.601 183.309 112.166C185.805 115.354 188.56 118.332 191.545 121.069C191.545 121.069 181.249 126.097 173.94 129.294C169.793 131.114 165.515 132.625 161.144 133.814L161.37 142.48C161.37 142.48 186.51 143.61 198.164 139.09C209.818 134.571 218.281 128.82 218.281 121.973C218.281 115.126 203.674 102.358 195.89 90.0313C188.106 77.7045 182.403 71.3094 174.642 70.1682" fill="white"/>
</mask>
<g mask="url(#mask5_269_3345)">
<path opacity="0.15" d="M198.175 139.102C209.84 134.582 218.292 128.831 218.292 121.984C218.292 115.137 203.674 102.358 195.89 90.0314C190.312 81.1732 185.786 75.3996 180.797 72.4167C182.969 74.5861 189.599 81.5122 189.916 85.286C190.289 89.8055 171.429 87.9299 174.823 90.1896C178.217 92.4494 193.684 97.7258 200.483 103.748C207.283 109.77 215.95 115.047 212.182 119.566C208.415 124.086 190.685 129.735 177.844 138.028C175.966 139.115 174.406 140.673 173.318 142.548C181.396 142.39 191.805 141.599 198.175 139.102Z" fill="black"/>
</g>
<path d="M168.464 70.6315C168.464 70.6315 160.239 78.1564 163.441 88.201C166.643 98.2455 179.914 107.601 183.309 112.166C185.805 115.354 188.56 118.332 191.545 121.069C191.545 121.069 181.249 126.097 173.94 129.294C169.793 131.114 165.515 132.625 161.144 133.814L161.37 142.48C161.37 142.48 186.51 143.61 198.164 139.09C209.818 134.571 218.281 128.82 218.281 121.973C218.281 115.126 203.674 102.358 195.89 90.0313C188.106 77.7045 182.403 71.3094 174.642 70.1682" stroke="#263238" stroke-linecap="round" stroke-linejoin="round"/>
<path d="M165.953 132.48L166.869 142.525" stroke="#263238" stroke-linecap="round" stroke-linejoin="round"/>
<path d="M191.557 121.103C191.557 121.103 199.782 115.623 205.043 114.256" stroke="#263238" stroke-linecap="round" stroke-linejoin="round"/>
<path d="M126.274 18.7138C125.373 20.9305 124.592 23.1934 123.932 25.493C123.377 27.8205 120.424 32.0349 118.693 33.1083C116.962 34.1817 112.923 35.6844 114.699 37.6278C116.278 39.0585 118.078 40.2259 120.028 41.0852C120.028 41.0852 118.637 49.1073 119.519 53.7285C120.402 58.3496 123.66 59.1292 126.613 59.084C129.566 59.0389 140.711 57.7169 144.478 53.1974C148.246 48.6779 154.31 34.3851 151.335 25.0975C148.359 15.81 131.546 9.88948 126.274 18.7138Z" fill="white"/>
<mask id="mask6_269_3345" style="mask-type:luminance" maskUnits="userSpaceOnUse" x="114" y="14" width="39" height="46">
<path d="M126.274 18.7138C125.373 20.9305 124.592 23.1934 123.932 25.493C123.377 27.8205 120.424 32.0349 118.693 33.1083C116.962 34.1817 112.923 35.6844 114.699 37.6278C116.278 39.0585 118.078 40.2259 120.028 41.0852C120.028 41.0852 118.637 49.1073 119.519 53.7285C120.402 58.3496 123.66 59.1292 126.613 59.084C129.566 59.0389 140.711 57.7169 144.478 53.1974C148.246 48.6779 154.31 34.3851 151.335 25.0975C148.359 15.81 131.546 9.88948 126.274 18.7138Z" fill="white"/>
</mask>
<g mask="url(#mask6_269_3345)">
<path d="M133.311 34.7919C134.816 40.8254 137.837 49.1073 134.816 53.6381C131.795 58.1689 129.396 58.361 129.396 58.361L130.143 58.7677C134.669 58.1689 141.65 56.5758 144.478 53.1862C148.246 48.6667 154.31 34.3738 151.335 25.0863C150.876 23.7126 150.17 22.4338 149.253 21.3125L136.705 23.866C136.705 23.866 131.795 28.7584 133.311 34.7919Z" fill="#3652AD"/>
<path opacity="0.5" d="M133.311 34.7919C134.816 40.8254 137.837 49.1073 134.816 53.6381C131.795 58.1689 129.396 58.361 129.396 58.361L130.143 58.7677C134.669 58.1689 141.65 56.5758 144.478 53.1862C148.246 48.6667 154.31 34.3738 151.335 25.0863C150.876 23.7126 150.17 22.4338 149.253 21.3125L136.705 23.866C136.705 23.866 131.795 28.7584 133.311 34.7919Z" fill="white"/>
</g>
<path d="M126.274 18.7138C125.373 20.9305 124.592 23.1934 123.932 25.493C123.377 27.8205 120.424 32.0349 118.693 33.1083C116.962 34.1817 112.923 35.6844 114.699 37.6278C116.278 39.0585 118.078 40.2259 120.028 41.0852C120.028 41.0852 118.637 49.1073 119.519 53.7285C120.402 58.3496 123.66 59.1292 126.613 59.084C129.566 59.0389 140.711 57.7169 144.478 53.1974C148.246 48.6779 154.31 34.3851 151.335 25.0975C148.359 15.81 131.546 9.88948 126.274 18.7138Z" stroke="#263238" stroke-linecap="round" stroke-linejoin="round"/>
<path d="M141.446 51.5593C141.446 51.5593 134.658 57.3895 129.453 58.3386C129.453 58.3386 138.504 59.6266 147.929 51.8644L141.446 51.5593Z" fill="#263238" stroke="#263238" stroke-linecap="round" stroke-linejoin="round"/>
<path d="M127.371 26.589C127.371 26.589 129.849 22.1712 132.564 27.8092" stroke="#263238" stroke-linecap="round" stroke-linejoin="round"/>
<path d="M122.28 44.0569C122.28 44.0569 126.726 46.0794 130.279 43.4807" stroke="#263238" stroke-linecap="round" stroke-linejoin="round"/>
<path d="M128.276 31.0973C128.016 32.2272 127.45 32.9955 126.998 32.8825C126.545 32.7695 126.387 31.8092 126.647 30.7132C126.907 29.6172 127.473 28.8263 127.926 28.928C128.378 29.0297 128.537 30.0014 128.276 31.0973Z" fill="#263238"/>
<path d="M121.624 21.9227C121.624 21.9227 140.1 26.9845 140.496 30.521C140.892 34.0575 137.633 41.5147 139.364 49.0283C141.095 56.542 151.346 58.7226 159.9 55.8076C168.453 52.8925 174.608 37.1647 173.477 24.1712C172.345 11.1777 159.096 3.59621 148.732 1.64154C138.369 -0.313138 122.631 7.17791 121.624 21.9227Z" fill="#3652AD"/>
<mask id="mask7_269_3345" style="mask-type:luminance" maskUnits="userSpaceOnUse" x="121" y="1" width="53" height="57">
<path d="M121.624 21.9227C121.624 21.9227 140.1 26.9845 140.496 30.521C140.892 34.0575 137.633 41.5147 139.364 49.0283C141.095 56.542 151.346 58.7226 159.9 55.8076C168.453 52.8925 174.608 37.1647 173.477 24.1712C172.345 11.1777 159.096 3.59621 148.732 1.64154C138.369 -0.313138 122.631 7.17791 121.624 21.9227Z" fill="white"/>
</mask>
<g mask="url(#mask7_269_3345)">
<path opacity="0.29" d="M156.709 12.1831C154.976 11.8811 153.218 11.7411 151.459 11.7651C152.168 12.4787 152.573 13.438 152.591 14.4429C152.591 15.6415 152.114 16.7911 151.265 17.6386C150.416 18.4862 149.265 18.9624 148.065 18.9624C146.865 18.9624 145.714 18.4862 144.865 17.6386C144.016 16.7911 143.539 15.6415 143.539 14.4429C143.538 14.1573 143.572 13.8727 143.641 13.5955C139.002 15.923 135.721 20.2165 132.327 25.4026C136.513 27.0183 140.371 28.9278 140.552 30.5209C140.96 34.0574 137.69 41.5146 139.421 49.0282C141.152 56.5419 151.403 58.7225 159.956 55.8075C168.034 53.0619 173.974 38.8594 173.669 26.3065C172.108 22.9056 167.344 14.0022 156.709 12.1831Z" fill="black"/>
</g>
<path d="M121.624 21.9227C121.624 21.9227 140.1 26.9845 140.496 30.521C140.892 34.0575 137.633 41.5147 139.364 49.0283C141.095 56.542 151.346 58.7226 159.9 55.8076C168.453 52.8925 174.608 37.1647 173.477 24.1712C172.345 11.1777 159.096 3.59621 148.732 1.64154C138.369 -0.313138 122.631 7.17791 121.624 21.9227Z" stroke="#263238" stroke-linecap="round" stroke-linejoin="round"/>
<path d="M144.524 49.5593C139.998 42.3394 145.87 31.4813 143.166 28.3629C140.903 25.7981 127.1 20.8493 122.008 19.0867C121.82 20.0229 121.692 20.9701 121.624 21.9226C121.624 21.9226 140.1 26.9845 140.496 30.521C140.892 34.0575 137.633 41.5146 139.364 49.0282C141.095 56.5419 151.346 58.7225 159.9 55.8075H160.013C153.948 56.1012 147.488 54.2934 144.524 49.5593Z" fill="#263238" stroke="#263238" stroke-linecap="round" stroke-linejoin="round"/>
</g>
<defs>
<clipPath id="clip0_269_3345">
<rect width="341.107" height="323.848" fill="white" transform="translate(0.893311 0.575928)"/>
</clipPath>
</defs>
</svg>
